%TF.GenerationSoftware,KiCad,Pcbnew,5.1.9*%
%TF.CreationDate,2021-04-12T02:58:06-04:00*%
%TF.ProjectId,rog_tri-vibe,726f675f-7472-4692-9d76-6962652e6b69,rev?*%
%TF.SameCoordinates,Original*%
%TF.FileFunction,Copper,L2,Bot*%
%TF.FilePolarity,Positive*%
%FSLAX46Y46*%
G04 Gerber Fmt 4.6, Leading zero omitted, Abs format (unit mm)*
G04 Created by KiCad (PCBNEW 5.1.9) date 2021-04-12 02:58:06*
%MOMM*%
%LPD*%
G01*
G04 APERTURE LIST*
%TA.AperFunction,ComponentPad*%
%ADD10C,1.600000*%
%TD*%
%TA.AperFunction,ComponentPad*%
%ADD11R,1.600000X1.600000*%
%TD*%
%TA.AperFunction,ComponentPad*%
%ADD12C,2.500000*%
%TD*%
%TA.AperFunction,ComponentPad*%
%ADD13C,2.100000*%
%TD*%
%TA.AperFunction,ComponentPad*%
%ADD14R,2.000000X2.000000*%
%TD*%
%TA.AperFunction,ComponentPad*%
%ADD15C,2.000000*%
%TD*%
%TA.AperFunction,ViaPad*%
%ADD16C,0.800000*%
%TD*%
%TA.AperFunction,ViaPad*%
%ADD17C,1.200000*%
%TD*%
%TA.AperFunction,Conductor*%
%ADD18C,0.500000*%
%TD*%
%TA.AperFunction,Conductor*%
%ADD19C,0.250000*%
%TD*%
%TA.AperFunction,Conductor*%
%ADD20C,0.254000*%
%TD*%
%TA.AperFunction,Conductor*%
%ADD21C,0.100000*%
%TD*%
G04 APERTURE END LIST*
D10*
%TO.P,C16,2*%
%TO.N,GND*%
X157512000Y-110490000D03*
D11*
%TO.P,C16,1*%
%TO.N,VCC*%
X159512000Y-110490000D03*
%TD*%
%TO.P,RV2,1*%
%TO.N,Vbias*%
%TA.AperFunction,ComponentPad*%
G36*
G01*
X168088000Y-76059000D02*
X168088000Y-74309000D01*
G75*
G02*
X168463000Y-73934000I375000J0D01*
G01*
X170213000Y-73934000D01*
G75*
G02*
X170588000Y-74309000I0J-375000D01*
G01*
X170588000Y-76059000D01*
G75*
G02*
X170213000Y-76434000I-375000J0D01*
G01*
X168463000Y-76434000D01*
G75*
G02*
X168088000Y-76059000I0J375000D01*
G01*
G37*
%TD.AperFunction*%
D12*
%TO.P,RV2,3*%
%TO.N,Net-(D2-Pad2)*%
X159338000Y-75184000D03*
%TO.P,RV2,2*%
%TO.N,Net-(RV2-Pad2)*%
X164338000Y-75184000D03*
%TD*%
%TO.P,RV1,1*%
%TO.N,Net-(R21-Pad1)*%
%TA.AperFunction,ComponentPad*%
G36*
G01*
X139640000Y-76059000D02*
X139640000Y-74309000D01*
G75*
G02*
X140015000Y-73934000I375000J0D01*
G01*
X141765000Y-73934000D01*
G75*
G02*
X142140000Y-74309000I0J-375000D01*
G01*
X142140000Y-76059000D01*
G75*
G02*
X141765000Y-76434000I-375000J0D01*
G01*
X140015000Y-76434000D01*
G75*
G02*
X139640000Y-76059000I0J375000D01*
G01*
G37*
%TD.AperFunction*%
%TO.P,RV1,3*%
%TO.N,Net-(C11-Pad2)*%
X130890000Y-75184000D03*
%TO.P,RV1,2*%
%TO.N,Net-(R21-Pad1)*%
X135890000Y-75184000D03*
%TD*%
%TO.P,R41,2*%
%TO.N,GND*%
%TA.AperFunction,SMDPad,CuDef*%
G36*
G01*
X130281000Y-106343000D02*
X130831000Y-106343000D01*
G75*
G02*
X131031000Y-106543000I0J-200000D01*
G01*
X131031000Y-106943000D01*
G75*
G02*
X130831000Y-107143000I-200000J0D01*
G01*
X130281000Y-107143000D01*
G75*
G02*
X130081000Y-106943000I0J200000D01*
G01*
X130081000Y-106543000D01*
G75*
G02*
X130281000Y-106343000I200000J0D01*
G01*
G37*
%TD.AperFunction*%
%TO.P,R41,1*%
%TO.N,Net-(C15-Pad1)*%
%TA.AperFunction,SMDPad,CuDef*%
G36*
G01*
X130281000Y-104693000D02*
X130831000Y-104693000D01*
G75*
G02*
X131031000Y-104893000I0J-200000D01*
G01*
X131031000Y-105293000D01*
G75*
G02*
X130831000Y-105493000I-200000J0D01*
G01*
X130281000Y-105493000D01*
G75*
G02*
X130081000Y-105293000I0J200000D01*
G01*
X130081000Y-104893000D01*
G75*
G02*
X130281000Y-104693000I200000J0D01*
G01*
G37*
%TD.AperFunction*%
%TD*%
%TO.P,R22,2*%
%TO.N,Net-(C12-Pad2)*%
%TA.AperFunction,SMDPad,CuDef*%
G36*
G01*
X153333000Y-101875000D02*
X153333000Y-101325000D01*
G75*
G02*
X153533000Y-101125000I200000J0D01*
G01*
X153933000Y-101125000D01*
G75*
G02*
X154133000Y-101325000I0J-200000D01*
G01*
X154133000Y-101875000D01*
G75*
G02*
X153933000Y-102075000I-200000J0D01*
G01*
X153533000Y-102075000D01*
G75*
G02*
X153333000Y-101875000I0J200000D01*
G01*
G37*
%TD.AperFunction*%
%TO.P,R22,1*%
%TO.N,Net-(R22-Pad1)*%
%TA.AperFunction,SMDPad,CuDef*%
G36*
G01*
X151683000Y-101875000D02*
X151683000Y-101325000D01*
G75*
G02*
X151883000Y-101125000I200000J0D01*
G01*
X152283000Y-101125000D01*
G75*
G02*
X152483000Y-101325000I0J-200000D01*
G01*
X152483000Y-101875000D01*
G75*
G02*
X152283000Y-102075000I-200000J0D01*
G01*
X151883000Y-102075000D01*
G75*
G02*
X151683000Y-101875000I0J200000D01*
G01*
G37*
%TD.AperFunction*%
%TD*%
%TO.P,J5,1*%
%TO.N,Net-(C15-Pad1)*%
%TA.AperFunction,ComponentPad*%
G36*
G01*
X131356001Y-102904000D02*
X129755999Y-102904000D01*
G75*
G02*
X129506000Y-102654001I0J249999D01*
G01*
X129506000Y-101053999D01*
G75*
G02*
X129755999Y-100804000I249999J0D01*
G01*
X131356001Y-100804000D01*
G75*
G02*
X131606000Y-101053999I0J-249999D01*
G01*
X131606000Y-102654001D01*
G75*
G02*
X131356001Y-102904000I-249999J0D01*
G01*
G37*
%TD.AperFunction*%
D13*
%TO.P,J5,2*%
%TO.N,GND*%
X130556000Y-97254000D03*
%TD*%
%TO.P,J4,1*%
%TO.N,Net-(C18-Pad2)*%
%TA.AperFunction,ComponentPad*%
G36*
G01*
X131356001Y-111286000D02*
X129755999Y-111286000D01*
G75*
G02*
X129506000Y-111036001I0J249999D01*
G01*
X129506000Y-109435999D01*
G75*
G02*
X129755999Y-109186000I249999J0D01*
G01*
X131356001Y-109186000D01*
G75*
G02*
X131606000Y-109435999I0J-249999D01*
G01*
X131606000Y-111036001D01*
G75*
G02*
X131356001Y-111286000I-249999J0D01*
G01*
G37*
%TD.AperFunction*%
%TD*%
%TO.P,J3,1*%
%TO.N,Net-(J3-Pad1)*%
%TA.AperFunction,ComponentPad*%
G36*
G01*
X170472001Y-95538000D02*
X168871999Y-95538000D01*
G75*
G02*
X168622000Y-95288001I0J249999D01*
G01*
X168622000Y-93687999D01*
G75*
G02*
X168871999Y-93438000I249999J0D01*
G01*
X170472001Y-93438000D01*
G75*
G02*
X170722000Y-93687999I0J-249999D01*
G01*
X170722000Y-95288001D01*
G75*
G02*
X170472001Y-95538000I-249999J0D01*
G01*
G37*
%TD.AperFunction*%
%TO.P,J3,2*%
%TO.N,Net-(J3-Pad2)*%
X169672000Y-89888000D03*
%TD*%
%TO.P,J2,2*%
%TO.N,GND*%
X130556000Y-93246000D03*
%TO.P,J2,1*%
%TO.N,Net-(J2-Pad1)*%
%TA.AperFunction,ComponentPad*%
G36*
G01*
X129755999Y-87596000D02*
X131356001Y-87596000D01*
G75*
G02*
X131606000Y-87845999I0J-249999D01*
G01*
X131606000Y-89446001D01*
G75*
G02*
X131356001Y-89696000I-249999J0D01*
G01*
X129755999Y-89696000D01*
G75*
G02*
X129506000Y-89446001I0J249999D01*
G01*
X129506000Y-87845999D01*
G75*
G02*
X129755999Y-87596000I249999J0D01*
G01*
G37*
%TD.AperFunction*%
%TD*%
%TO.P,J1,2*%
%TO.N,GND*%
X169672000Y-98524000D03*
%TO.P,J1,1*%
%TO.N,Net-(C3-Pad2)*%
%TA.AperFunction,ComponentPad*%
G36*
G01*
X170472001Y-104174000D02*
X168871999Y-104174000D01*
G75*
G02*
X168622000Y-103924001I0J249999D01*
G01*
X168622000Y-102323999D01*
G75*
G02*
X168871999Y-102074000I249999J0D01*
G01*
X170472001Y-102074000D01*
G75*
G02*
X170722000Y-102323999I0J-249999D01*
G01*
X170722000Y-103924001D01*
G75*
G02*
X170472001Y-104174000I-249999J0D01*
G01*
G37*
%TD.AperFunction*%
%TD*%
D10*
%TO.P,C15,1*%
%TO.N,Net-(C15-Pad1)*%
X134874000Y-101600000D03*
%TO.P,C15,2*%
%TO.N,Net-(C15-Pad2)*%
X134874000Y-96600000D03*
%TD*%
%TO.P,C12,2*%
%TO.N,Net-(C12-Pad2)*%
%TA.AperFunction,SMDPad,CuDef*%
G36*
G01*
X153233000Y-103628000D02*
X153233000Y-103128000D01*
G75*
G02*
X153458000Y-102903000I225000J0D01*
G01*
X153908000Y-102903000D01*
G75*
G02*
X154133000Y-103128000I0J-225000D01*
G01*
X154133000Y-103628000D01*
G75*
G02*
X153908000Y-103853000I-225000J0D01*
G01*
X153458000Y-103853000D01*
G75*
G02*
X153233000Y-103628000I0J225000D01*
G01*
G37*
%TD.AperFunction*%
%TO.P,C12,1*%
%TO.N,Net-(C12-Pad1)*%
%TA.AperFunction,SMDPad,CuDef*%
G36*
G01*
X151683000Y-103628000D02*
X151683000Y-103128000D01*
G75*
G02*
X151908000Y-102903000I225000J0D01*
G01*
X152358000Y-102903000D01*
G75*
G02*
X152583000Y-103128000I0J-225000D01*
G01*
X152583000Y-103628000D01*
G75*
G02*
X152358000Y-103853000I-225000J0D01*
G01*
X151908000Y-103853000D01*
G75*
G02*
X151683000Y-103628000I0J225000D01*
G01*
G37*
%TD.AperFunction*%
%TD*%
%TO.P,C11,2*%
%TO.N,Net-(C11-Pad2)*%
X155988000Y-81788000D03*
%TO.P,C11,1*%
%TO.N,Net-(C11-Pad1)*%
X157988000Y-81788000D03*
%TD*%
%TO.P,C10,2*%
%TO.N,GND*%
X148876000Y-110490000D03*
D11*
%TO.P,C10,1*%
%TO.N,VCC*%
X150876000Y-110490000D03*
%TD*%
D10*
%TO.P,C8,2*%
%TO.N,GND*%
X142748000Y-83344000D03*
D11*
%TO.P,C8,1*%
%TO.N,VCC*%
X142748000Y-85344000D03*
%TD*%
D10*
%TO.P,C7,1*%
%TO.N,Net-(C7-Pad1)*%
X161036000Y-101092000D03*
%TO.P,C7,2*%
%TO.N,Net-(C17-Pad1)*%
X161036000Y-96092000D03*
%TD*%
%TO.P,C6,2*%
%TO.N,GND*%
X140748000Y-110490000D03*
D11*
%TO.P,C6,1*%
%TO.N,VCC*%
X142748000Y-110490000D03*
%TD*%
D14*
%TO.P,C5,1*%
%TO.N,VCC*%
X136906000Y-82550000D03*
D15*
%TO.P,C5,2*%
%TO.N,GND*%
X131906000Y-82550000D03*
%TD*%
D10*
%TO.P,C3,2*%
%TO.N,Net-(C3-Pad2)*%
X169672000Y-106760000D03*
%TO.P,C3,1*%
%TO.N,Net-(C3-Pad1)*%
X169672000Y-111760000D03*
%TD*%
%TO.P,C1,2*%
%TO.N,GND*%
X145796000Y-89948000D03*
D11*
%TO.P,C1,1*%
%TO.N,Net-(C1-Pad1)*%
X145796000Y-91948000D03*
%TD*%
D16*
%TO.N,GND*%
X138938000Y-89662000D03*
X143256000Y-92456000D03*
X154940000Y-94488000D03*
X146304000Y-97536000D03*
X153416000Y-76962000D03*
X155702000Y-87376000D03*
X150368000Y-90424000D03*
X161290000Y-88138000D03*
X162052000Y-102616000D03*
X159004000Y-101346000D03*
X162052000Y-111252000D03*
X152908000Y-73914000D03*
X167640000Y-88392000D03*
X140462000Y-94488000D03*
X159258000Y-93726000D03*
X163576000Y-93472000D03*
X170434000Y-108712000D03*
X158496000Y-79756000D03*
X161798000Y-74676000D03*
X166624000Y-74676000D03*
X168148000Y-78740000D03*
X168148000Y-82042000D03*
X170434000Y-78740000D03*
X170434000Y-83312000D03*
X142748000Y-102870000D03*
X139192000Y-102870000D03*
X139192000Y-85344000D03*
X163830000Y-98552000D03*
X168148000Y-100838000D03*
X167640000Y-106680000D03*
X134874000Y-112268000D03*
X133604000Y-109220000D03*
X137160000Y-96266000D03*
X129540000Y-103886000D03*
X146558000Y-73914000D03*
X138176000Y-73914000D03*
X133350000Y-73914000D03*
X135128000Y-99060000D03*
D17*
%TO.N,VCC*%
X133604000Y-87596000D03*
X133604000Y-89696000D03*
D16*
X160015347Y-83815347D03*
X162306000Y-83820000D03*
D17*
X141986000Y-105918000D03*
X141478000Y-100330000D03*
D16*
%TO.N,Net-(C11-Pad2)*%
X152400000Y-80264000D03*
X144780000Y-80772000D03*
%TO.N,Net-(C12-Pad2)*%
X155198653Y-102874653D03*
%TO.N,Net-(C12-Pad1)*%
X149606000Y-103632000D03*
%TO.N,Vbias*%
X151358000Y-92710000D03*
X152908000Y-92710000D03*
X151130000Y-80264000D03*
X166624000Y-85598000D03*
X147823347Y-88895347D03*
X148848653Y-89920653D03*
X144780000Y-86868000D03*
X136906000Y-102616000D03*
X137414000Y-107950000D03*
X139987959Y-98010041D03*
X141190041Y-96807959D03*
X163613000Y-78232000D03*
%TO.N,Net-(R22-Pad1)*%
X149606000Y-102362000D03*
%TD*%
D18*
%TO.N,VCC*%
X133604000Y-87596000D02*
X133604000Y-89696000D01*
D19*
X162301347Y-83815347D02*
X162306000Y-83820000D01*
X160015347Y-83815347D02*
X162301347Y-83815347D01*
D18*
X141478000Y-104140000D02*
X141986000Y-104648000D01*
X141986000Y-104648000D02*
X141986000Y-105918000D01*
X141478000Y-100330000D02*
X141478000Y-104140000D01*
D19*
%TO.N,Net-(C11-Pad2)*%
X152400000Y-80264000D02*
X154464000Y-80264000D01*
X154464000Y-80264000D02*
X155988000Y-81788000D01*
X151638000Y-79502000D02*
X152400000Y-80264000D01*
X146050000Y-79502000D02*
X151638000Y-79502000D01*
X144780000Y-80772000D02*
X146050000Y-79502000D01*
%TO.N,Net-(C12-Pad2)*%
X153733000Y-103328000D02*
X153683000Y-103378000D01*
X153733000Y-101600000D02*
X153733000Y-103328000D01*
X154695306Y-103378000D02*
X155198653Y-102874653D01*
X153683000Y-103378000D02*
X154695306Y-103378000D01*
%TO.N,Net-(C12-Pad1)*%
X149606000Y-103632000D02*
X150368000Y-103632000D01*
X150622000Y-103378000D02*
X152133000Y-103378000D01*
X150368000Y-103632000D02*
X150622000Y-103378000D01*
%TO.N,Net-(C15-Pad1)*%
X130556000Y-101854000D02*
X130556000Y-105093000D01*
X130810000Y-101600000D02*
X130556000Y-101854000D01*
X134874000Y-101600000D02*
X130810000Y-101600000D01*
%TO.N,Vbias*%
X151358000Y-92710000D02*
X152908000Y-92710000D01*
X151130000Y-85588694D02*
X151130000Y-80264000D01*
X166614694Y-85588694D02*
X166624000Y-85598000D01*
X151130000Y-85588694D02*
X166614694Y-85588694D01*
X147823347Y-88895347D02*
X148848653Y-89920653D01*
X146059306Y-85588694D02*
X151130000Y-85588694D01*
X144780000Y-86868000D02*
X146059306Y-85588694D01*
X137414000Y-107950000D02*
X137414000Y-103124000D01*
X137414000Y-103124000D02*
X136906000Y-102616000D01*
X139987959Y-98010041D02*
X141190041Y-96807959D01*
X163613000Y-78232000D02*
X166290000Y-78232000D01*
X166290000Y-78232000D02*
X169338000Y-75184000D01*
X169338000Y-82884000D02*
X166624000Y-85598000D01*
X169338000Y-75184000D02*
X169338000Y-82884000D01*
%TO.N,Net-(R22-Pad1)*%
X150368000Y-101600000D02*
X152083000Y-101600000D01*
X149606000Y-102362000D02*
X150368000Y-101600000D01*
%TD*%
D20*
%TO.N,GND*%
X134688382Y-73719825D02*
X134425825Y-73982382D01*
X134219534Y-74291118D01*
X134077439Y-74634166D01*
X134005000Y-74998344D01*
X134005000Y-75369656D01*
X134077439Y-75733834D01*
X134219534Y-76076882D01*
X134425825Y-76385618D01*
X134688382Y-76648175D01*
X134997118Y-76854466D01*
X135340166Y-76996561D01*
X135704344Y-77069000D01*
X136075656Y-77069000D01*
X136439834Y-76996561D01*
X136782882Y-76854466D01*
X137091618Y-76648175D01*
X137354175Y-76385618D01*
X137560466Y-76076882D01*
X137702561Y-75733834D01*
X137775000Y-75369656D01*
X137775000Y-74998344D01*
X137702561Y-74634166D01*
X137560466Y-74291118D01*
X137354175Y-73982382D01*
X137091618Y-73719825D01*
X136849430Y-73558000D01*
X139340871Y-73558000D01*
X139298650Y-73592650D01*
X139172661Y-73746167D01*
X139079044Y-73921314D01*
X139021394Y-74111359D01*
X139001928Y-74309000D01*
X139001928Y-76059000D01*
X139021394Y-76256641D01*
X139079044Y-76446686D01*
X139172661Y-76621833D01*
X139298650Y-76775350D01*
X139452167Y-76901339D01*
X139627314Y-76994956D01*
X139817359Y-77052606D01*
X140015000Y-77072072D01*
X141765000Y-77072072D01*
X141962641Y-77052606D01*
X142152686Y-76994956D01*
X142327833Y-76901339D01*
X142481350Y-76775350D01*
X142607339Y-76621833D01*
X142700956Y-76446686D01*
X142758606Y-76256641D01*
X142778072Y-76059000D01*
X142778072Y-74309000D01*
X142758606Y-74111359D01*
X142700956Y-73921314D01*
X142607339Y-73746167D01*
X142481350Y-73592650D01*
X142439129Y-73558000D01*
X158378570Y-73558000D01*
X158136382Y-73719825D01*
X157873825Y-73982382D01*
X157667534Y-74291118D01*
X157525439Y-74634166D01*
X157453000Y-74998344D01*
X157453000Y-75369656D01*
X157525439Y-75733834D01*
X157667534Y-76076882D01*
X157873825Y-76385618D01*
X158136382Y-76648175D01*
X158445118Y-76854466D01*
X158788166Y-76996561D01*
X159152344Y-77069000D01*
X159523656Y-77069000D01*
X159887834Y-76996561D01*
X160230882Y-76854466D01*
X160539618Y-76648175D01*
X160802175Y-76385618D01*
X161008466Y-76076882D01*
X161150561Y-75733834D01*
X161223000Y-75369656D01*
X161223000Y-74998344D01*
X161150561Y-74634166D01*
X161008466Y-74291118D01*
X160802175Y-73982382D01*
X160539618Y-73719825D01*
X160297430Y-73558000D01*
X163378570Y-73558000D01*
X163136382Y-73719825D01*
X162873825Y-73982382D01*
X162667534Y-74291118D01*
X162525439Y-74634166D01*
X162453000Y-74998344D01*
X162453000Y-75369656D01*
X162525439Y-75733834D01*
X162667534Y-76076882D01*
X162873825Y-76385618D01*
X163136382Y-76648175D01*
X163445118Y-76854466D01*
X163788166Y-76996561D01*
X164152344Y-77069000D01*
X164523656Y-77069000D01*
X164887834Y-76996561D01*
X165230882Y-76854466D01*
X165539618Y-76648175D01*
X165802175Y-76385618D01*
X166008466Y-76076882D01*
X166150561Y-75733834D01*
X166223000Y-75369656D01*
X166223000Y-74998344D01*
X166150561Y-74634166D01*
X166008466Y-74291118D01*
X165802175Y-73982382D01*
X165539618Y-73719825D01*
X165297430Y-73558000D01*
X167788871Y-73558000D01*
X167746650Y-73592650D01*
X167620661Y-73746167D01*
X167527044Y-73921314D01*
X167469394Y-74111359D01*
X167449928Y-74309000D01*
X167449928Y-75997270D01*
X165975199Y-77472000D01*
X164316711Y-77472000D01*
X164272774Y-77428063D01*
X164103256Y-77314795D01*
X163914898Y-77236774D01*
X163714939Y-77197000D01*
X163511061Y-77197000D01*
X163311102Y-77236774D01*
X163122744Y-77314795D01*
X162953226Y-77428063D01*
X162809063Y-77572226D01*
X162695795Y-77741744D01*
X162617774Y-77930102D01*
X162578000Y-78130061D01*
X162578000Y-78333939D01*
X162617774Y-78533898D01*
X162695795Y-78722256D01*
X162809063Y-78891774D01*
X162953226Y-79035937D01*
X163122744Y-79149205D01*
X163311102Y-79227226D01*
X163511061Y-79267000D01*
X163714939Y-79267000D01*
X163914898Y-79227226D01*
X164103256Y-79149205D01*
X164272774Y-79035937D01*
X164316711Y-78992000D01*
X166252678Y-78992000D01*
X166290000Y-78995676D01*
X166327322Y-78992000D01*
X166327333Y-78992000D01*
X166438986Y-78981003D01*
X166582247Y-78937546D01*
X166714276Y-78866974D01*
X166830001Y-78772001D01*
X166853804Y-78742997D01*
X168524730Y-77072072D01*
X168578000Y-77072072D01*
X168578001Y-82569197D01*
X166584199Y-84563000D01*
X166522061Y-84563000D01*
X166322102Y-84602774D01*
X166133744Y-84680795D01*
X165964226Y-84794063D01*
X165929595Y-84828694D01*
X162540189Y-84828694D01*
X162607898Y-84815226D01*
X162796256Y-84737205D01*
X162965774Y-84623937D01*
X163109937Y-84479774D01*
X163223205Y-84310256D01*
X163301226Y-84121898D01*
X163341000Y-83921939D01*
X163341000Y-83718061D01*
X163301226Y-83518102D01*
X163223205Y-83329744D01*
X163109937Y-83160226D01*
X162965774Y-83016063D01*
X162796256Y-82902795D01*
X162607898Y-82824774D01*
X162407939Y-82785000D01*
X162204061Y-82785000D01*
X162004102Y-82824774D01*
X161815744Y-82902795D01*
X161646226Y-83016063D01*
X161606942Y-83055347D01*
X160719058Y-83055347D01*
X160675121Y-83011410D01*
X160505603Y-82898142D01*
X160317245Y-82820121D01*
X160117286Y-82780347D01*
X159913408Y-82780347D01*
X159713449Y-82820121D01*
X159525091Y-82898142D01*
X159355573Y-83011410D01*
X159211410Y-83155573D01*
X159098142Y-83325091D01*
X159020121Y-83513449D01*
X158980347Y-83713408D01*
X158980347Y-83917286D01*
X159020121Y-84117245D01*
X159098142Y-84305603D01*
X159211410Y-84475121D01*
X159355573Y-84619284D01*
X159525091Y-84732552D01*
X159713449Y-84810573D01*
X159804550Y-84828694D01*
X151890000Y-84828694D01*
X151890000Y-81168013D01*
X151909744Y-81181205D01*
X152098102Y-81259226D01*
X152298061Y-81299000D01*
X152501939Y-81299000D01*
X152701898Y-81259226D01*
X152890256Y-81181205D01*
X153059774Y-81067937D01*
X153103711Y-81024000D01*
X154149199Y-81024000D01*
X154589312Y-81464114D01*
X154553000Y-81646665D01*
X154553000Y-81929335D01*
X154608147Y-82206574D01*
X154716320Y-82467727D01*
X154873363Y-82702759D01*
X155073241Y-82902637D01*
X155308273Y-83059680D01*
X155569426Y-83167853D01*
X155846665Y-83223000D01*
X156129335Y-83223000D01*
X156406574Y-83167853D01*
X156667727Y-83059680D01*
X156902759Y-82902637D01*
X156988000Y-82817396D01*
X157073241Y-82902637D01*
X157308273Y-83059680D01*
X157569426Y-83167853D01*
X157846665Y-83223000D01*
X158129335Y-83223000D01*
X158406574Y-83167853D01*
X158667727Y-83059680D01*
X158902759Y-82902637D01*
X159102637Y-82702759D01*
X159259680Y-82467727D01*
X159367853Y-82206574D01*
X159423000Y-81929335D01*
X159423000Y-81646665D01*
X159367853Y-81369426D01*
X159259680Y-81108273D01*
X159102637Y-80873241D01*
X158902759Y-80673363D01*
X158667727Y-80516320D01*
X158406574Y-80408147D01*
X158129335Y-80353000D01*
X157846665Y-80353000D01*
X157569426Y-80408147D01*
X157308273Y-80516320D01*
X157073241Y-80673363D01*
X156988000Y-80758604D01*
X156902759Y-80673363D01*
X156667727Y-80516320D01*
X156406574Y-80408147D01*
X156129335Y-80353000D01*
X155846665Y-80353000D01*
X155664114Y-80389312D01*
X155027803Y-79753002D01*
X155004001Y-79723999D01*
X154888276Y-79629026D01*
X154756247Y-79558454D01*
X154612986Y-79514997D01*
X154501333Y-79504000D01*
X154501322Y-79504000D01*
X154464000Y-79500324D01*
X154426678Y-79504000D01*
X153103711Y-79504000D01*
X153059774Y-79460063D01*
X152890256Y-79346795D01*
X152701898Y-79268774D01*
X152501939Y-79229000D01*
X152439801Y-79229000D01*
X152201803Y-78991002D01*
X152178001Y-78961999D01*
X152062276Y-78867026D01*
X151930247Y-78796454D01*
X151786986Y-78752997D01*
X151675333Y-78742000D01*
X151675322Y-78742000D01*
X151638000Y-78738324D01*
X151600678Y-78742000D01*
X146087322Y-78742000D01*
X146049999Y-78738324D01*
X146012676Y-78742000D01*
X146012667Y-78742000D01*
X145901014Y-78752997D01*
X145757753Y-78796454D01*
X145625724Y-78867026D01*
X145509999Y-78961999D01*
X145486201Y-78990997D01*
X144740199Y-79737000D01*
X144678061Y-79737000D01*
X144478102Y-79776774D01*
X144289744Y-79854795D01*
X144120226Y-79968063D01*
X143976063Y-80112226D01*
X143862795Y-80281744D01*
X143784774Y-80470102D01*
X143745000Y-80670061D01*
X143745000Y-80873939D01*
X143784774Y-81073898D01*
X143862795Y-81262256D01*
X143976063Y-81431774D01*
X144120226Y-81575937D01*
X144289744Y-81689205D01*
X144478102Y-81767226D01*
X144678061Y-81807000D01*
X144881939Y-81807000D01*
X145081898Y-81767226D01*
X145270256Y-81689205D01*
X145439774Y-81575937D01*
X145583937Y-81431774D01*
X145697205Y-81262256D01*
X145775226Y-81073898D01*
X145815000Y-80873939D01*
X145815000Y-80811801D01*
X146364802Y-80262000D01*
X150095000Y-80262000D01*
X150095000Y-80365939D01*
X150134774Y-80565898D01*
X150212795Y-80754256D01*
X150326063Y-80923774D01*
X150370001Y-80967712D01*
X150370000Y-84828694D01*
X146096629Y-84828694D01*
X146059306Y-84825018D01*
X146021983Y-84828694D01*
X146021973Y-84828694D01*
X145910320Y-84839691D01*
X145767059Y-84883148D01*
X145635029Y-84953720D01*
X145551389Y-85022362D01*
X145519305Y-85048693D01*
X145495507Y-85077691D01*
X144740199Y-85833000D01*
X144678061Y-85833000D01*
X144478102Y-85872774D01*
X144289744Y-85950795D01*
X144186072Y-86020066D01*
X144186072Y-84544000D01*
X144173812Y-84419518D01*
X144137502Y-84299820D01*
X144078537Y-84189506D01*
X143999185Y-84092815D01*
X143986242Y-84082193D01*
X144105571Y-83830004D01*
X144174300Y-83555816D01*
X144188217Y-83273488D01*
X144146787Y-82993870D01*
X144051603Y-82727708D01*
X143984671Y-82602486D01*
X143740702Y-82530903D01*
X142927605Y-83344000D01*
X142941748Y-83358143D01*
X142762143Y-83537748D01*
X142748000Y-83523605D01*
X142733858Y-83537748D01*
X142554253Y-83358143D01*
X142568395Y-83344000D01*
X141755298Y-82530903D01*
X141511329Y-82602486D01*
X141390429Y-82857996D01*
X141321700Y-83132184D01*
X141307783Y-83414512D01*
X141349213Y-83694130D01*
X141444397Y-83960292D01*
X141509616Y-84082309D01*
X141496815Y-84092815D01*
X141417463Y-84189506D01*
X141358498Y-84299820D01*
X141322188Y-84419518D01*
X141309928Y-84544000D01*
X141309928Y-86144000D01*
X141322188Y-86268482D01*
X141358498Y-86388180D01*
X141417463Y-86498494D01*
X141496815Y-86595185D01*
X141593506Y-86674537D01*
X141703820Y-86733502D01*
X141823518Y-86769812D01*
X141948000Y-86782072D01*
X143548000Y-86782072D01*
X143672482Y-86769812D01*
X143748863Y-86746642D01*
X143745000Y-86766061D01*
X143745000Y-86969939D01*
X143784774Y-87169898D01*
X143862795Y-87358256D01*
X143976063Y-87527774D01*
X144120226Y-87671937D01*
X144289744Y-87785205D01*
X144478102Y-87863226D01*
X144678061Y-87903000D01*
X144881939Y-87903000D01*
X145081898Y-87863226D01*
X145270256Y-87785205D01*
X145439774Y-87671937D01*
X145583937Y-87527774D01*
X145697205Y-87358256D01*
X145775226Y-87169898D01*
X145815000Y-86969939D01*
X145815000Y-86907801D01*
X146374108Y-86348694D01*
X151092667Y-86348694D01*
X151130000Y-86352371D01*
X151167333Y-86348694D01*
X165910983Y-86348694D01*
X165964226Y-86401937D01*
X166133744Y-86515205D01*
X166322102Y-86593226D01*
X166522061Y-86633000D01*
X166725939Y-86633000D01*
X166925898Y-86593226D01*
X167114256Y-86515205D01*
X167283774Y-86401937D01*
X167427937Y-86257774D01*
X167541205Y-86088256D01*
X167619226Y-85899898D01*
X167659000Y-85699939D01*
X167659000Y-85637801D01*
X169849003Y-83447799D01*
X169878001Y-83424001D01*
X169972974Y-83308276D01*
X170043546Y-83176247D01*
X170087003Y-83032986D01*
X170098000Y-82921333D01*
X170101677Y-82884000D01*
X170098000Y-82846667D01*
X170098000Y-77072072D01*
X170213000Y-77072072D01*
X170410641Y-77052606D01*
X170600686Y-76994956D01*
X170775833Y-76901339D01*
X170929350Y-76775350D01*
X171044001Y-76635648D01*
X171044001Y-88908424D01*
X170980825Y-88813875D01*
X170746125Y-88579175D01*
X170470147Y-88394772D01*
X170163496Y-88267754D01*
X169837958Y-88203000D01*
X169506042Y-88203000D01*
X169180504Y-88267754D01*
X168873853Y-88394772D01*
X168597875Y-88579175D01*
X168363175Y-88813875D01*
X168178772Y-89089853D01*
X168051754Y-89396504D01*
X167987000Y-89722042D01*
X167987000Y-90053958D01*
X168051754Y-90379496D01*
X168178772Y-90686147D01*
X168363175Y-90962125D01*
X168597875Y-91196825D01*
X168873853Y-91381228D01*
X169180504Y-91508246D01*
X169506042Y-91573000D01*
X169837958Y-91573000D01*
X170163496Y-91508246D01*
X170470147Y-91381228D01*
X170746125Y-91196825D01*
X170980825Y-90962125D01*
X171044001Y-90867576D01*
X171044001Y-93014112D01*
X170965387Y-92949595D01*
X170811851Y-92867528D01*
X170645255Y-92816992D01*
X170472001Y-92799928D01*
X168871999Y-92799928D01*
X168698745Y-92816992D01*
X168532149Y-92867528D01*
X168378613Y-92949595D01*
X168244038Y-93060038D01*
X168133595Y-93194613D01*
X168051528Y-93348149D01*
X168000992Y-93514745D01*
X167983928Y-93687999D01*
X167983928Y-95288001D01*
X168000992Y-95461255D01*
X168051528Y-95627851D01*
X168133595Y-95781387D01*
X168244038Y-95915962D01*
X168378613Y-96026405D01*
X168532149Y-96108472D01*
X168698745Y-96159008D01*
X168871999Y-96176072D01*
X170472001Y-96176072D01*
X170645255Y-96159008D01*
X170811851Y-96108472D01*
X170965387Y-96026405D01*
X171044000Y-95961889D01*
X171044000Y-97608436D01*
X170843066Y-97532539D01*
X169851605Y-98524000D01*
X170843066Y-99515461D01*
X171044000Y-99439564D01*
X171044000Y-101650111D01*
X170965387Y-101585595D01*
X170811851Y-101503528D01*
X170645255Y-101452992D01*
X170472001Y-101435928D01*
X168871999Y-101435928D01*
X168698745Y-101452992D01*
X168532149Y-101503528D01*
X168378613Y-101585595D01*
X168244038Y-101696038D01*
X168133595Y-101830613D01*
X168051528Y-101984149D01*
X168000992Y-102150745D01*
X167983928Y-102323999D01*
X167983928Y-103924001D01*
X168000992Y-104097255D01*
X168051528Y-104263851D01*
X168133595Y-104417387D01*
X168244038Y-104551962D01*
X168378613Y-104662405D01*
X168532149Y-104744472D01*
X168698745Y-104795008D01*
X168871999Y-104812072D01*
X170472001Y-104812072D01*
X170645255Y-104795008D01*
X170811851Y-104744472D01*
X170965387Y-104662405D01*
X171044000Y-104597889D01*
X171044000Y-106322468D01*
X170943680Y-106080273D01*
X170786637Y-105845241D01*
X170586759Y-105645363D01*
X170351727Y-105488320D01*
X170090574Y-105380147D01*
X169813335Y-105325000D01*
X169530665Y-105325000D01*
X169253426Y-105380147D01*
X168992273Y-105488320D01*
X168757241Y-105645363D01*
X168557363Y-105845241D01*
X168400320Y-106080273D01*
X168292147Y-106341426D01*
X168237000Y-106618665D01*
X168237000Y-106901335D01*
X168292147Y-107178574D01*
X168400320Y-107439727D01*
X168557363Y-107674759D01*
X168757241Y-107874637D01*
X168992273Y-108031680D01*
X169253426Y-108139853D01*
X169530665Y-108195000D01*
X169813335Y-108195000D01*
X170090574Y-108139853D01*
X170351727Y-108031680D01*
X170586759Y-107874637D01*
X170786637Y-107674759D01*
X170943680Y-107439727D01*
X171044000Y-107197532D01*
X171044000Y-111322467D01*
X170943680Y-111080273D01*
X170786637Y-110845241D01*
X170586759Y-110645363D01*
X170351727Y-110488320D01*
X170090574Y-110380147D01*
X169813335Y-110325000D01*
X169530665Y-110325000D01*
X169253426Y-110380147D01*
X168992273Y-110488320D01*
X168757241Y-110645363D01*
X168557363Y-110845241D01*
X168400320Y-111080273D01*
X168292147Y-111341426D01*
X168237000Y-111618665D01*
X168237000Y-111901335D01*
X168292147Y-112178574D01*
X168400320Y-112439727D01*
X168557363Y-112674759D01*
X168757241Y-112874637D01*
X168762274Y-112878000D01*
X129184000Y-112878000D01*
X129184000Y-111709889D01*
X129262613Y-111774405D01*
X129416149Y-111856472D01*
X129582745Y-111907008D01*
X129755999Y-111924072D01*
X131356001Y-111924072D01*
X131529255Y-111907008D01*
X131695851Y-111856472D01*
X131849387Y-111774405D01*
X131983962Y-111663962D01*
X132094405Y-111529387D01*
X132176472Y-111375851D01*
X132227008Y-111209255D01*
X132244072Y-111036001D01*
X132244072Y-110560512D01*
X139307783Y-110560512D01*
X139349213Y-110840130D01*
X139444397Y-111106292D01*
X139511329Y-111231514D01*
X139755298Y-111303097D01*
X140568395Y-110490000D01*
X139755298Y-109676903D01*
X139511329Y-109748486D01*
X139390429Y-110003996D01*
X139321700Y-110278184D01*
X139307783Y-110560512D01*
X132244072Y-110560512D01*
X132244072Y-109497298D01*
X139934903Y-109497298D01*
X140748000Y-110310395D01*
X140762143Y-110296253D01*
X140941748Y-110475858D01*
X140927605Y-110490000D01*
X140941748Y-110504143D01*
X140762143Y-110683748D01*
X140748000Y-110669605D01*
X139934903Y-111482702D01*
X140006486Y-111726671D01*
X140261996Y-111847571D01*
X140536184Y-111916300D01*
X140818512Y-111930217D01*
X141098130Y-111888787D01*
X141364292Y-111793603D01*
X141486309Y-111728384D01*
X141496815Y-111741185D01*
X141593506Y-111820537D01*
X141703820Y-111879502D01*
X141823518Y-111915812D01*
X141948000Y-111928072D01*
X143548000Y-111928072D01*
X143672482Y-111915812D01*
X143792180Y-111879502D01*
X143902494Y-111820537D01*
X143999185Y-111741185D01*
X144078537Y-111644494D01*
X144137502Y-111534180D01*
X144173812Y-111414482D01*
X144186072Y-111290000D01*
X144186072Y-110560512D01*
X147435783Y-110560512D01*
X147477213Y-110840130D01*
X147572397Y-111106292D01*
X147639329Y-111231514D01*
X147883298Y-111303097D01*
X148696395Y-110490000D01*
X147883298Y-109676903D01*
X147639329Y-109748486D01*
X147518429Y-110003996D01*
X147449700Y-110278184D01*
X147435783Y-110560512D01*
X144186072Y-110560512D01*
X144186072Y-109690000D01*
X144173812Y-109565518D01*
X144153118Y-109497298D01*
X148062903Y-109497298D01*
X148876000Y-110310395D01*
X148890143Y-110296253D01*
X149069748Y-110475858D01*
X149055605Y-110490000D01*
X149069748Y-110504143D01*
X148890143Y-110683748D01*
X148876000Y-110669605D01*
X148062903Y-111482702D01*
X148134486Y-111726671D01*
X148389996Y-111847571D01*
X148664184Y-111916300D01*
X148946512Y-111930217D01*
X149226130Y-111888787D01*
X149492292Y-111793603D01*
X149614309Y-111728384D01*
X149624815Y-111741185D01*
X149721506Y-111820537D01*
X149831820Y-111879502D01*
X149951518Y-111915812D01*
X150076000Y-111928072D01*
X151676000Y-111928072D01*
X151800482Y-111915812D01*
X151920180Y-111879502D01*
X152030494Y-111820537D01*
X152127185Y-111741185D01*
X152206537Y-111644494D01*
X152265502Y-111534180D01*
X152301812Y-111414482D01*
X152314072Y-111290000D01*
X152314072Y-110560512D01*
X156071783Y-110560512D01*
X156113213Y-110840130D01*
X156208397Y-111106292D01*
X156275329Y-111231514D01*
X156519298Y-111303097D01*
X157332395Y-110490000D01*
X156519298Y-109676903D01*
X156275329Y-109748486D01*
X156154429Y-110003996D01*
X156085700Y-110278184D01*
X156071783Y-110560512D01*
X152314072Y-110560512D01*
X152314072Y-109690000D01*
X152301812Y-109565518D01*
X152281118Y-109497298D01*
X156698903Y-109497298D01*
X157512000Y-110310395D01*
X157526143Y-110296253D01*
X157705748Y-110475858D01*
X157691605Y-110490000D01*
X157705748Y-110504143D01*
X157526143Y-110683748D01*
X157512000Y-110669605D01*
X156698903Y-111482702D01*
X156770486Y-111726671D01*
X157025996Y-111847571D01*
X157300184Y-111916300D01*
X157582512Y-111930217D01*
X157862130Y-111888787D01*
X158128292Y-111793603D01*
X158250309Y-111728384D01*
X158260815Y-111741185D01*
X158357506Y-111820537D01*
X158467820Y-111879502D01*
X158587518Y-111915812D01*
X158712000Y-111928072D01*
X160312000Y-111928072D01*
X160436482Y-111915812D01*
X160556180Y-111879502D01*
X160666494Y-111820537D01*
X160763185Y-111741185D01*
X160842537Y-111644494D01*
X160901502Y-111534180D01*
X160937812Y-111414482D01*
X160950072Y-111290000D01*
X160950072Y-109690000D01*
X160937812Y-109565518D01*
X160901502Y-109445820D01*
X160842537Y-109335506D01*
X160763185Y-109238815D01*
X160666494Y-109159463D01*
X160556180Y-109100498D01*
X160436482Y-109064188D01*
X160312000Y-109051928D01*
X158712000Y-109051928D01*
X158587518Y-109064188D01*
X158467820Y-109100498D01*
X158357506Y-109159463D01*
X158260815Y-109238815D01*
X158250193Y-109251758D01*
X157998004Y-109132429D01*
X157723816Y-109063700D01*
X157441488Y-109049783D01*
X157161870Y-109091213D01*
X156895708Y-109186397D01*
X156770486Y-109253329D01*
X156698903Y-109497298D01*
X152281118Y-109497298D01*
X152265502Y-109445820D01*
X152206537Y-109335506D01*
X152127185Y-109238815D01*
X152030494Y-109159463D01*
X151920180Y-109100498D01*
X151800482Y-109064188D01*
X151676000Y-109051928D01*
X150076000Y-109051928D01*
X149951518Y-109064188D01*
X149831820Y-109100498D01*
X149721506Y-109159463D01*
X149624815Y-109238815D01*
X149614193Y-109251758D01*
X149362004Y-109132429D01*
X149087816Y-109063700D01*
X148805488Y-109049783D01*
X148525870Y-109091213D01*
X148259708Y-109186397D01*
X148134486Y-109253329D01*
X148062903Y-109497298D01*
X144153118Y-109497298D01*
X144137502Y-109445820D01*
X144078537Y-109335506D01*
X143999185Y-109238815D01*
X143902494Y-109159463D01*
X143792180Y-109100498D01*
X143672482Y-109064188D01*
X143548000Y-109051928D01*
X141948000Y-109051928D01*
X141823518Y-109064188D01*
X141703820Y-109100498D01*
X141593506Y-109159463D01*
X141496815Y-109238815D01*
X141486193Y-109251758D01*
X141234004Y-109132429D01*
X140959816Y-109063700D01*
X140677488Y-109049783D01*
X140397870Y-109091213D01*
X140131708Y-109186397D01*
X140006486Y-109253329D01*
X139934903Y-109497298D01*
X132244072Y-109497298D01*
X132244072Y-109435999D01*
X132227008Y-109262745D01*
X132176472Y-109096149D01*
X132094405Y-108942613D01*
X131983962Y-108808038D01*
X131849387Y-108697595D01*
X131695851Y-108615528D01*
X131529255Y-108564992D01*
X131356001Y-108547928D01*
X129755999Y-108547928D01*
X129582745Y-108564992D01*
X129416149Y-108615528D01*
X129262613Y-108697595D01*
X129184000Y-108762111D01*
X129184000Y-107143000D01*
X129442928Y-107143000D01*
X129455188Y-107267482D01*
X129491498Y-107387180D01*
X129550463Y-107497494D01*
X129629815Y-107594185D01*
X129726506Y-107673537D01*
X129836820Y-107732502D01*
X129956518Y-107768812D01*
X130081000Y-107781072D01*
X130270250Y-107778000D01*
X130429000Y-107619250D01*
X130429000Y-106870000D01*
X130683000Y-106870000D01*
X130683000Y-107619250D01*
X130841750Y-107778000D01*
X131031000Y-107781072D01*
X131155482Y-107768812D01*
X131275180Y-107732502D01*
X131385494Y-107673537D01*
X131482185Y-107594185D01*
X131561537Y-107497494D01*
X131620502Y-107387180D01*
X131656812Y-107267482D01*
X131669072Y-107143000D01*
X131666000Y-107028750D01*
X131507250Y-106870000D01*
X130683000Y-106870000D01*
X130429000Y-106870000D01*
X129604750Y-106870000D01*
X129446000Y-107028750D01*
X129442928Y-107143000D01*
X129184000Y-107143000D01*
X129184000Y-103327889D01*
X129262613Y-103392405D01*
X129416149Y-103474472D01*
X129582745Y-103525008D01*
X129755999Y-103542072D01*
X129796001Y-103542072D01*
X129796001Y-104212083D01*
X129688394Y-104300394D01*
X129584169Y-104427392D01*
X129506722Y-104572284D01*
X129459031Y-104729500D01*
X129442928Y-104893000D01*
X129442928Y-105293000D01*
X129459031Y-105456500D01*
X129506722Y-105613716D01*
X129584169Y-105758608D01*
X129667863Y-105860590D01*
X129629815Y-105891815D01*
X129550463Y-105988506D01*
X129491498Y-106098820D01*
X129455188Y-106218518D01*
X129442928Y-106343000D01*
X129446000Y-106457250D01*
X129604750Y-106616000D01*
X130429000Y-106616000D01*
X130429000Y-106596000D01*
X130683000Y-106596000D01*
X130683000Y-106616000D01*
X131507250Y-106616000D01*
X131666000Y-106457250D01*
X131669072Y-106343000D01*
X131656812Y-106218518D01*
X131620502Y-106098820D01*
X131561537Y-105988506D01*
X131482185Y-105891815D01*
X131444137Y-105860590D01*
X131527831Y-105758608D01*
X131605278Y-105613716D01*
X131652969Y-105456500D01*
X131669072Y-105293000D01*
X131669072Y-104893000D01*
X131652969Y-104729500D01*
X131605278Y-104572284D01*
X131527831Y-104427392D01*
X131423606Y-104300394D01*
X131316000Y-104212084D01*
X131316000Y-103542072D01*
X131356001Y-103542072D01*
X131529255Y-103525008D01*
X131695851Y-103474472D01*
X131849387Y-103392405D01*
X131983962Y-103281962D01*
X132094405Y-103147387D01*
X132176472Y-102993851D01*
X132227008Y-102827255D01*
X132244072Y-102654001D01*
X132244072Y-102360000D01*
X133655957Y-102360000D01*
X133759363Y-102514759D01*
X133959241Y-102714637D01*
X134194273Y-102871680D01*
X134455426Y-102979853D01*
X134732665Y-103035000D01*
X135015335Y-103035000D01*
X135292574Y-102979853D01*
X135553727Y-102871680D01*
X135788759Y-102714637D01*
X135871000Y-102632396D01*
X135871000Y-102717939D01*
X135910774Y-102917898D01*
X135988795Y-103106256D01*
X136102063Y-103275774D01*
X136246226Y-103419937D01*
X136415744Y-103533205D01*
X136604102Y-103611226D01*
X136654001Y-103621151D01*
X136654000Y-107246289D01*
X136610063Y-107290226D01*
X136496795Y-107459744D01*
X136418774Y-107648102D01*
X136379000Y-107848061D01*
X136379000Y-108051939D01*
X136418774Y-108251898D01*
X136496795Y-108440256D01*
X136610063Y-108609774D01*
X136754226Y-108753937D01*
X136923744Y-108867205D01*
X137112102Y-108945226D01*
X137312061Y-108985000D01*
X137515939Y-108985000D01*
X137715898Y-108945226D01*
X137904256Y-108867205D01*
X138073774Y-108753937D01*
X138217937Y-108609774D01*
X138331205Y-108440256D01*
X138409226Y-108251898D01*
X138449000Y-108051939D01*
X138449000Y-107848061D01*
X138409226Y-107648102D01*
X138331205Y-107459744D01*
X138217937Y-107290226D01*
X138174000Y-107246289D01*
X138174000Y-103161322D01*
X138177676Y-103123999D01*
X138174000Y-103086676D01*
X138174000Y-103086667D01*
X138163003Y-102975014D01*
X138119546Y-102831753D01*
X138048974Y-102699724D01*
X137954001Y-102583999D01*
X137941000Y-102573329D01*
X137941000Y-102514061D01*
X137901226Y-102314102D01*
X137823205Y-102125744D01*
X137709937Y-101956226D01*
X137565774Y-101812063D01*
X137396256Y-101698795D01*
X137207898Y-101620774D01*
X137007939Y-101581000D01*
X136804061Y-101581000D01*
X136604102Y-101620774D01*
X136415744Y-101698795D01*
X136302397Y-101774531D01*
X136309000Y-101741335D01*
X136309000Y-101458665D01*
X136253853Y-101181426D01*
X136145680Y-100920273D01*
X135988637Y-100685241D01*
X135788759Y-100485363D01*
X135553727Y-100328320D01*
X135292574Y-100220147D01*
X135233333Y-100208363D01*
X140243000Y-100208363D01*
X140243000Y-100451637D01*
X140290460Y-100690236D01*
X140383557Y-100914992D01*
X140518713Y-101117267D01*
X140593000Y-101191554D01*
X140593001Y-104096521D01*
X140588719Y-104140000D01*
X140605805Y-104313490D01*
X140656412Y-104480313D01*
X140738590Y-104634059D01*
X140821468Y-104735046D01*
X140821471Y-104735049D01*
X140849184Y-104768817D01*
X140882952Y-104796530D01*
X141101000Y-105014578D01*
X141101000Y-105056446D01*
X141026713Y-105130733D01*
X140891557Y-105333008D01*
X140798460Y-105557764D01*
X140751000Y-105796363D01*
X140751000Y-106039637D01*
X140798460Y-106278236D01*
X140891557Y-106502992D01*
X141026713Y-106705267D01*
X141198733Y-106877287D01*
X141401008Y-107012443D01*
X141625764Y-107105540D01*
X141864363Y-107153000D01*
X142107637Y-107153000D01*
X142346236Y-107105540D01*
X142570992Y-107012443D01*
X142773267Y-106877287D01*
X142945287Y-106705267D01*
X143080443Y-106502992D01*
X143173540Y-106278236D01*
X143221000Y-106039637D01*
X143221000Y-105796363D01*
X143173540Y-105557764D01*
X143080443Y-105333008D01*
X142945287Y-105130733D01*
X142871000Y-105056446D01*
X142871000Y-104691465D01*
X142875281Y-104647999D01*
X142871000Y-104604533D01*
X142871000Y-104604523D01*
X142858195Y-104474510D01*
X142807589Y-104307687D01*
X142725411Y-104153941D01*
X142614817Y-104019183D01*
X142581045Y-103991467D01*
X142363000Y-103773422D01*
X142363000Y-102260061D01*
X148571000Y-102260061D01*
X148571000Y-102463939D01*
X148610774Y-102663898D01*
X148688795Y-102852256D01*
X148785510Y-102997000D01*
X148688795Y-103141744D01*
X148610774Y-103330102D01*
X148571000Y-103530061D01*
X148571000Y-103733939D01*
X148610774Y-103933898D01*
X148688795Y-104122256D01*
X148802063Y-104291774D01*
X148946226Y-104435937D01*
X149115744Y-104549205D01*
X149304102Y-104627226D01*
X149504061Y-104667000D01*
X149707939Y-104667000D01*
X149907898Y-104627226D01*
X150096256Y-104549205D01*
X150265774Y-104435937D01*
X150309711Y-104392000D01*
X150330678Y-104392000D01*
X150368000Y-104395676D01*
X150405322Y-104392000D01*
X150405333Y-104392000D01*
X150516986Y-104381003D01*
X150660247Y-104337546D01*
X150792276Y-104266974D01*
X150908001Y-104172001D01*
X150931804Y-104142997D01*
X150936801Y-104138000D01*
X151215415Y-104138000D01*
X151297716Y-104238284D01*
X151428503Y-104345618D01*
X151577717Y-104425375D01*
X151739623Y-104474488D01*
X151908000Y-104491072D01*
X152358000Y-104491072D01*
X152526377Y-104474488D01*
X152688283Y-104425375D01*
X152837497Y-104345618D01*
X152908000Y-104287758D01*
X152978503Y-104345618D01*
X153127717Y-104425375D01*
X153289623Y-104474488D01*
X153458000Y-104491072D01*
X153908000Y-104491072D01*
X154076377Y-104474488D01*
X154238283Y-104425375D01*
X154387497Y-104345618D01*
X154518284Y-104238284D01*
X154600585Y-104138000D01*
X154657984Y-104138000D01*
X154695306Y-104141676D01*
X154732628Y-104138000D01*
X154732639Y-104138000D01*
X154844292Y-104127003D01*
X154987553Y-104083546D01*
X155119582Y-104012974D01*
X155235307Y-103918001D01*
X155242158Y-103909653D01*
X155300592Y-103909653D01*
X155500551Y-103869879D01*
X155688909Y-103791858D01*
X155858427Y-103678590D01*
X156002590Y-103534427D01*
X156115858Y-103364909D01*
X156193879Y-103176551D01*
X156233653Y-102976592D01*
X156233653Y-102772714D01*
X156193879Y-102572755D01*
X156115858Y-102384397D01*
X156002590Y-102214879D01*
X155858427Y-102070716D01*
X155688909Y-101957448D01*
X155500551Y-101879427D01*
X155300592Y-101839653D01*
X155096714Y-101839653D01*
X154896755Y-101879427D01*
X154765272Y-101933889D01*
X154771072Y-101875000D01*
X154771072Y-101325000D01*
X154754969Y-101161500D01*
X154707278Y-101004284D01*
X154678618Y-100950665D01*
X159601000Y-100950665D01*
X159601000Y-101233335D01*
X159656147Y-101510574D01*
X159764320Y-101771727D01*
X159921363Y-102006759D01*
X160121241Y-102206637D01*
X160356273Y-102363680D01*
X160617426Y-102471853D01*
X160894665Y-102527000D01*
X161177335Y-102527000D01*
X161454574Y-102471853D01*
X161715727Y-102363680D01*
X161950759Y-102206637D01*
X162150637Y-102006759D01*
X162307680Y-101771727D01*
X162415853Y-101510574D01*
X162471000Y-101233335D01*
X162471000Y-100950665D01*
X162415853Y-100673426D01*
X162307680Y-100412273D01*
X162150637Y-100177241D01*
X161950759Y-99977363D01*
X161715727Y-99820320D01*
X161454574Y-99712147D01*
X161368704Y-99695066D01*
X168680539Y-99695066D01*
X168782339Y-99964579D01*
X169080477Y-100110463D01*
X169401346Y-100195380D01*
X169732617Y-100216066D01*
X170061557Y-100171728D01*
X170375527Y-100064069D01*
X170561661Y-99964579D01*
X170663461Y-99695066D01*
X169672000Y-98703605D01*
X168680539Y-99695066D01*
X161368704Y-99695066D01*
X161177335Y-99657000D01*
X160894665Y-99657000D01*
X160617426Y-99712147D01*
X160356273Y-99820320D01*
X160121241Y-99977363D01*
X159921363Y-100177241D01*
X159764320Y-100412273D01*
X159656147Y-100673426D01*
X159601000Y-100950665D01*
X154678618Y-100950665D01*
X154629831Y-100859392D01*
X154525606Y-100732394D01*
X154398608Y-100628169D01*
X154253716Y-100550722D01*
X154096500Y-100503031D01*
X153933000Y-100486928D01*
X153533000Y-100486928D01*
X153369500Y-100503031D01*
X153212284Y-100550722D01*
X153067392Y-100628169D01*
X152940394Y-100732394D01*
X152908000Y-100771866D01*
X152875606Y-100732394D01*
X152748608Y-100628169D01*
X152603716Y-100550722D01*
X152446500Y-100503031D01*
X152283000Y-100486928D01*
X151883000Y-100486928D01*
X151719500Y-100503031D01*
X151562284Y-100550722D01*
X151417392Y-100628169D01*
X151290394Y-100732394D01*
X151202084Y-100840000D01*
X150405325Y-100840000D01*
X150368000Y-100836324D01*
X150330675Y-100840000D01*
X150330667Y-100840000D01*
X150219014Y-100850997D01*
X150075753Y-100894454D01*
X149943724Y-100965026D01*
X149827999Y-101059999D01*
X149804201Y-101088998D01*
X149566198Y-101327000D01*
X149504061Y-101327000D01*
X149304102Y-101366774D01*
X149115744Y-101444795D01*
X148946226Y-101558063D01*
X148802063Y-101702226D01*
X148688795Y-101871744D01*
X148610774Y-102060102D01*
X148571000Y-102260061D01*
X142363000Y-102260061D01*
X142363000Y-101191554D01*
X142437287Y-101117267D01*
X142572443Y-100914992D01*
X142665540Y-100690236D01*
X142713000Y-100451637D01*
X142713000Y-100208363D01*
X142665540Y-99969764D01*
X142572443Y-99745008D01*
X142437287Y-99542733D01*
X142265267Y-99370713D01*
X142062992Y-99235557D01*
X141838236Y-99142460D01*
X141599637Y-99095000D01*
X141356363Y-99095000D01*
X141117764Y-99142460D01*
X140893008Y-99235557D01*
X140690733Y-99370713D01*
X140518713Y-99542733D01*
X140383557Y-99745008D01*
X140290460Y-99969764D01*
X140243000Y-100208363D01*
X135233333Y-100208363D01*
X135015335Y-100165000D01*
X134732665Y-100165000D01*
X134455426Y-100220147D01*
X134194273Y-100328320D01*
X133959241Y-100485363D01*
X133759363Y-100685241D01*
X133655957Y-100840000D01*
X132214648Y-100840000D01*
X132176472Y-100714149D01*
X132094405Y-100560613D01*
X131983962Y-100426038D01*
X131849387Y-100315595D01*
X131695851Y-100233528D01*
X131529255Y-100182992D01*
X131356001Y-100165928D01*
X129755999Y-100165928D01*
X129582745Y-100182992D01*
X129416149Y-100233528D01*
X129262613Y-100315595D01*
X129184000Y-100380111D01*
X129184000Y-98425066D01*
X129564539Y-98425066D01*
X129666339Y-98694579D01*
X129964477Y-98840463D01*
X130285346Y-98925380D01*
X130616617Y-98946066D01*
X130945557Y-98901728D01*
X131259527Y-98794069D01*
X131445661Y-98694579D01*
X131547461Y-98425066D01*
X130556000Y-97433605D01*
X129564539Y-98425066D01*
X129184000Y-98425066D01*
X129184000Y-98169565D01*
X129384934Y-98245461D01*
X130376395Y-97254000D01*
X130735605Y-97254000D01*
X131727066Y-98245461D01*
X131996579Y-98143661D01*
X132142463Y-97845523D01*
X132227380Y-97524654D01*
X132248066Y-97193383D01*
X132203728Y-96864443D01*
X132096069Y-96550473D01*
X132046997Y-96458665D01*
X133439000Y-96458665D01*
X133439000Y-96741335D01*
X133494147Y-97018574D01*
X133602320Y-97279727D01*
X133759363Y-97514759D01*
X133959241Y-97714637D01*
X134194273Y-97871680D01*
X134455426Y-97979853D01*
X134732665Y-98035000D01*
X135015335Y-98035000D01*
X135292574Y-97979853D01*
X135465796Y-97908102D01*
X138952959Y-97908102D01*
X138952959Y-98111980D01*
X138992733Y-98311939D01*
X139070754Y-98500297D01*
X139184022Y-98669815D01*
X139328185Y-98813978D01*
X139497703Y-98927246D01*
X139686061Y-99005267D01*
X139886020Y-99045041D01*
X140089898Y-99045041D01*
X140289857Y-99005267D01*
X140478215Y-98927246D01*
X140647733Y-98813978D01*
X140791896Y-98669815D01*
X140848823Y-98584617D01*
X167979934Y-98584617D01*
X168024272Y-98913557D01*
X168131931Y-99227527D01*
X168231421Y-99413661D01*
X168500934Y-99515461D01*
X169492395Y-98524000D01*
X168500934Y-97532539D01*
X168231421Y-97634339D01*
X168085537Y-97932477D01*
X168000620Y-98253346D01*
X167979934Y-98584617D01*
X140848823Y-98584617D01*
X140905164Y-98500297D01*
X140983185Y-98311939D01*
X141022959Y-98111980D01*
X141022959Y-98049842D01*
X141229843Y-97842959D01*
X141291980Y-97842959D01*
X141491939Y-97803185D01*
X141680297Y-97725164D01*
X141849815Y-97611896D01*
X141993978Y-97467733D01*
X142107246Y-97298215D01*
X142185267Y-97109857D01*
X142225041Y-96909898D01*
X142225041Y-96706020D01*
X142185267Y-96506061D01*
X142107246Y-96317703D01*
X141993978Y-96148185D01*
X141849815Y-96004022D01*
X141769961Y-95950665D01*
X159601000Y-95950665D01*
X159601000Y-96233335D01*
X159656147Y-96510574D01*
X159764320Y-96771727D01*
X159921363Y-97006759D01*
X160121241Y-97206637D01*
X160356273Y-97363680D01*
X160617426Y-97471853D01*
X160894665Y-97527000D01*
X161177335Y-97527000D01*
X161454574Y-97471853D01*
X161715727Y-97363680D01*
X161731809Y-97352934D01*
X168680539Y-97352934D01*
X169672000Y-98344395D01*
X170663461Y-97352934D01*
X170561661Y-97083421D01*
X170263523Y-96937537D01*
X169942654Y-96852620D01*
X169611383Y-96831934D01*
X169282443Y-96876272D01*
X168968473Y-96983931D01*
X168782339Y-97083421D01*
X168680539Y-97352934D01*
X161731809Y-97352934D01*
X161950759Y-97206637D01*
X162150637Y-97006759D01*
X162307680Y-96771727D01*
X162415853Y-96510574D01*
X162471000Y-96233335D01*
X162471000Y-95950665D01*
X162415853Y-95673426D01*
X162307680Y-95412273D01*
X162150637Y-95177241D01*
X161950759Y-94977363D01*
X161715727Y-94820320D01*
X161454574Y-94712147D01*
X161177335Y-94657000D01*
X160894665Y-94657000D01*
X160617426Y-94712147D01*
X160356273Y-94820320D01*
X160121241Y-94977363D01*
X159921363Y-95177241D01*
X159764320Y-95412273D01*
X159656147Y-95673426D01*
X159601000Y-95950665D01*
X141769961Y-95950665D01*
X141680297Y-95890754D01*
X141491939Y-95812733D01*
X141291980Y-95772959D01*
X141088102Y-95772959D01*
X140888143Y-95812733D01*
X140699785Y-95890754D01*
X140530267Y-96004022D01*
X140386104Y-96148185D01*
X140272836Y-96317703D01*
X140194815Y-96506061D01*
X140155041Y-96706020D01*
X140155041Y-96768157D01*
X139948158Y-96975041D01*
X139886020Y-96975041D01*
X139686061Y-97014815D01*
X139497703Y-97092836D01*
X139328185Y-97206104D01*
X139184022Y-97350267D01*
X139070754Y-97519785D01*
X138992733Y-97708143D01*
X138952959Y-97908102D01*
X135465796Y-97908102D01*
X135553727Y-97871680D01*
X135788759Y-97714637D01*
X135988637Y-97514759D01*
X136145680Y-97279727D01*
X136253853Y-97018574D01*
X136309000Y-96741335D01*
X136309000Y-96458665D01*
X136253853Y-96181426D01*
X136145680Y-95920273D01*
X135988637Y-95685241D01*
X135788759Y-95485363D01*
X135553727Y-95328320D01*
X135292574Y-95220147D01*
X135015335Y-95165000D01*
X134732665Y-95165000D01*
X134455426Y-95220147D01*
X134194273Y-95328320D01*
X133959241Y-95485363D01*
X133759363Y-95685241D01*
X133602320Y-95920273D01*
X133494147Y-96181426D01*
X133439000Y-96458665D01*
X132046997Y-96458665D01*
X131996579Y-96364339D01*
X131727066Y-96262539D01*
X130735605Y-97254000D01*
X130376395Y-97254000D01*
X129384934Y-96262539D01*
X129184000Y-96338435D01*
X129184000Y-96082934D01*
X129564539Y-96082934D01*
X130556000Y-97074395D01*
X131547461Y-96082934D01*
X131445661Y-95813421D01*
X131147523Y-95667537D01*
X130826654Y-95582620D01*
X130495383Y-95561934D01*
X130166443Y-95606272D01*
X129852473Y-95713931D01*
X129666339Y-95813421D01*
X129564539Y-96082934D01*
X129184000Y-96082934D01*
X129184000Y-94417066D01*
X129564539Y-94417066D01*
X129666339Y-94686579D01*
X129964477Y-94832463D01*
X130285346Y-94917380D01*
X130616617Y-94938066D01*
X130945557Y-94893728D01*
X131259527Y-94786069D01*
X131445661Y-94686579D01*
X131547461Y-94417066D01*
X130556000Y-93425605D01*
X129564539Y-94417066D01*
X129184000Y-94417066D01*
X129184000Y-94161565D01*
X129384934Y-94237461D01*
X130376395Y-93246000D01*
X130735605Y-93246000D01*
X131727066Y-94237461D01*
X131996579Y-94135661D01*
X132142463Y-93837523D01*
X132227380Y-93516654D01*
X132248066Y-93185383D01*
X132203728Y-92856443D01*
X132096069Y-92542473D01*
X131996579Y-92356339D01*
X131727066Y-92254539D01*
X130735605Y-93246000D01*
X130376395Y-93246000D01*
X129384934Y-92254539D01*
X129184000Y-92330435D01*
X129184000Y-92074934D01*
X129564539Y-92074934D01*
X130556000Y-93066395D01*
X131547461Y-92074934D01*
X131445661Y-91805421D01*
X131147523Y-91659537D01*
X130826654Y-91574620D01*
X130495383Y-91553934D01*
X130166443Y-91598272D01*
X129852473Y-91705931D01*
X129666339Y-91805421D01*
X129564539Y-92074934D01*
X129184000Y-92074934D01*
X129184000Y-90119889D01*
X129262613Y-90184405D01*
X129416149Y-90266472D01*
X129582745Y-90317008D01*
X129755999Y-90334072D01*
X131356001Y-90334072D01*
X131529255Y-90317008D01*
X131695851Y-90266472D01*
X131849387Y-90184405D01*
X131983962Y-90073962D01*
X132094405Y-89939387D01*
X132176472Y-89785851D01*
X132227008Y-89619255D01*
X132244072Y-89446001D01*
X132244072Y-87845999D01*
X132227008Y-87672745D01*
X132176472Y-87506149D01*
X132159482Y-87474363D01*
X132369000Y-87474363D01*
X132369000Y-87717637D01*
X132416460Y-87956236D01*
X132509557Y-88180992D01*
X132644713Y-88383267D01*
X132719000Y-88457554D01*
X132719001Y-88834445D01*
X132644713Y-88908733D01*
X132509557Y-89111008D01*
X132416460Y-89335764D01*
X132369000Y-89574363D01*
X132369000Y-89817637D01*
X132416460Y-90056236D01*
X132509557Y-90280992D01*
X132644713Y-90483267D01*
X132816733Y-90655287D01*
X133019008Y-90790443D01*
X133243764Y-90883540D01*
X133482363Y-90931000D01*
X133725637Y-90931000D01*
X133964236Y-90883540D01*
X134188992Y-90790443D01*
X134391267Y-90655287D01*
X134563287Y-90483267D01*
X134698443Y-90280992D01*
X134791540Y-90056236D01*
X134799043Y-90018512D01*
X144355783Y-90018512D01*
X144397213Y-90298130D01*
X144492397Y-90564292D01*
X144557616Y-90686309D01*
X144544815Y-90696815D01*
X144465463Y-90793506D01*
X144406498Y-90903820D01*
X144370188Y-91023518D01*
X144357928Y-91148000D01*
X144357928Y-92748000D01*
X144370188Y-92872482D01*
X144406498Y-92992180D01*
X144465463Y-93102494D01*
X144544815Y-93199185D01*
X144641506Y-93278537D01*
X144751820Y-93337502D01*
X144871518Y-93373812D01*
X144996000Y-93386072D01*
X146596000Y-93386072D01*
X146720482Y-93373812D01*
X146840180Y-93337502D01*
X146950494Y-93278537D01*
X147047185Y-93199185D01*
X147126537Y-93102494D01*
X147185502Y-92992180D01*
X147221812Y-92872482D01*
X147234072Y-92748000D01*
X147234072Y-92608061D01*
X150323000Y-92608061D01*
X150323000Y-92811939D01*
X150362774Y-93011898D01*
X150440795Y-93200256D01*
X150554063Y-93369774D01*
X150698226Y-93513937D01*
X150867744Y-93627205D01*
X151056102Y-93705226D01*
X151256061Y-93745000D01*
X151459939Y-93745000D01*
X151659898Y-93705226D01*
X151848256Y-93627205D01*
X152017774Y-93513937D01*
X152061711Y-93470000D01*
X152204289Y-93470000D01*
X152248226Y-93513937D01*
X152417744Y-93627205D01*
X152606102Y-93705226D01*
X152806061Y-93745000D01*
X153009939Y-93745000D01*
X153209898Y-93705226D01*
X153398256Y-93627205D01*
X153567774Y-93513937D01*
X153711937Y-93369774D01*
X153825205Y-93200256D01*
X153903226Y-93011898D01*
X153943000Y-92811939D01*
X153943000Y-92608061D01*
X153903226Y-92408102D01*
X153825205Y-92219744D01*
X153711937Y-92050226D01*
X153567774Y-91906063D01*
X153398256Y-91792795D01*
X153209898Y-91714774D01*
X153009939Y-91675000D01*
X152806061Y-91675000D01*
X152606102Y-91714774D01*
X152417744Y-91792795D01*
X152248226Y-91906063D01*
X152204289Y-91950000D01*
X152061711Y-91950000D01*
X152017774Y-91906063D01*
X151848256Y-91792795D01*
X151659898Y-91714774D01*
X151459939Y-91675000D01*
X151256061Y-91675000D01*
X151056102Y-91714774D01*
X150867744Y-91792795D01*
X150698226Y-91906063D01*
X150554063Y-92050226D01*
X150440795Y-92219744D01*
X150362774Y-92408102D01*
X150323000Y-92608061D01*
X147234072Y-92608061D01*
X147234072Y-91148000D01*
X147221812Y-91023518D01*
X147185502Y-90903820D01*
X147126537Y-90793506D01*
X147047185Y-90696815D01*
X147034242Y-90686193D01*
X147153571Y-90434004D01*
X147222300Y-90159816D01*
X147236217Y-89877488D01*
X147214894Y-89733576D01*
X147333091Y-89812552D01*
X147521449Y-89890573D01*
X147721408Y-89930347D01*
X147783546Y-89930347D01*
X147813653Y-89960455D01*
X147813653Y-90022592D01*
X147853427Y-90222551D01*
X147931448Y-90410909D01*
X148044716Y-90580427D01*
X148188879Y-90724590D01*
X148358397Y-90837858D01*
X148546755Y-90915879D01*
X148746714Y-90955653D01*
X148950592Y-90955653D01*
X149150551Y-90915879D01*
X149338909Y-90837858D01*
X149508427Y-90724590D01*
X149652590Y-90580427D01*
X149765858Y-90410909D01*
X149843879Y-90222551D01*
X149883653Y-90022592D01*
X149883653Y-89818714D01*
X149843879Y-89618755D01*
X149765858Y-89430397D01*
X149652590Y-89260879D01*
X149508427Y-89116716D01*
X149338909Y-89003448D01*
X149150551Y-88925427D01*
X148950592Y-88885653D01*
X148888455Y-88885653D01*
X148858347Y-88855546D01*
X148858347Y-88793408D01*
X148818573Y-88593449D01*
X148740552Y-88405091D01*
X148627284Y-88235573D01*
X148483121Y-88091410D01*
X148313603Y-87978142D01*
X148125245Y-87900121D01*
X147925286Y-87860347D01*
X147721408Y-87860347D01*
X147521449Y-87900121D01*
X147333091Y-87978142D01*
X147163573Y-88091410D01*
X147019410Y-88235573D01*
X146906142Y-88405091D01*
X146828121Y-88593449D01*
X146788347Y-88793408D01*
X146788347Y-88902000D01*
X146725370Y-88839023D01*
X146609097Y-88955296D01*
X146537514Y-88711329D01*
X146282004Y-88590429D01*
X146007816Y-88521700D01*
X145725488Y-88507783D01*
X145445870Y-88549213D01*
X145179708Y-88644397D01*
X145054486Y-88711329D01*
X144982903Y-88955298D01*
X145796000Y-89768395D01*
X145810143Y-89754253D01*
X145989748Y-89933858D01*
X145975605Y-89948000D01*
X145989748Y-89962143D01*
X145810143Y-90141748D01*
X145796000Y-90127605D01*
X145781858Y-90141748D01*
X145602253Y-89962143D01*
X145616395Y-89948000D01*
X144803298Y-89134903D01*
X144559329Y-89206486D01*
X144438429Y-89461996D01*
X144369700Y-89736184D01*
X144355783Y-90018512D01*
X134799043Y-90018512D01*
X134839000Y-89817637D01*
X134839000Y-89574363D01*
X134791540Y-89335764D01*
X134698443Y-89111008D01*
X134563287Y-88908733D01*
X134489000Y-88834446D01*
X134489000Y-88457554D01*
X134563287Y-88383267D01*
X134698443Y-88180992D01*
X134791540Y-87956236D01*
X134839000Y-87717637D01*
X134839000Y-87474363D01*
X134791540Y-87235764D01*
X134698443Y-87011008D01*
X134563287Y-86808733D01*
X134391267Y-86636713D01*
X134188992Y-86501557D01*
X133964236Y-86408460D01*
X133725637Y-86361000D01*
X133482363Y-86361000D01*
X133243764Y-86408460D01*
X133019008Y-86501557D01*
X132816733Y-86636713D01*
X132644713Y-86808733D01*
X132509557Y-87011008D01*
X132416460Y-87235764D01*
X132369000Y-87474363D01*
X132159482Y-87474363D01*
X132094405Y-87352613D01*
X131983962Y-87218038D01*
X131849387Y-87107595D01*
X131695851Y-87025528D01*
X131529255Y-86974992D01*
X131356001Y-86957928D01*
X129755999Y-86957928D01*
X129582745Y-86974992D01*
X129416149Y-87025528D01*
X129262613Y-87107595D01*
X129184000Y-87172111D01*
X129184000Y-83685413D01*
X130950192Y-83685413D01*
X131045956Y-83949814D01*
X131335571Y-84090704D01*
X131647108Y-84172384D01*
X131968595Y-84191718D01*
X132287675Y-84147961D01*
X132592088Y-84042795D01*
X132766044Y-83949814D01*
X132861808Y-83685413D01*
X131906000Y-82729605D01*
X130950192Y-83685413D01*
X129184000Y-83685413D01*
X129184000Y-82612595D01*
X130264282Y-82612595D01*
X130308039Y-82931675D01*
X130413205Y-83236088D01*
X130506186Y-83410044D01*
X130770587Y-83505808D01*
X131726395Y-82550000D01*
X132085605Y-82550000D01*
X133041413Y-83505808D01*
X133305814Y-83410044D01*
X133446704Y-83120429D01*
X133528384Y-82808892D01*
X133547718Y-82487405D01*
X133503961Y-82168325D01*
X133398795Y-81863912D01*
X133305814Y-81689956D01*
X133041413Y-81594192D01*
X132085605Y-82550000D01*
X131726395Y-82550000D01*
X130770587Y-81594192D01*
X130506186Y-81689956D01*
X130365296Y-81979571D01*
X130283616Y-82291108D01*
X130264282Y-82612595D01*
X129184000Y-82612595D01*
X129184000Y-81414587D01*
X130950192Y-81414587D01*
X131906000Y-82370395D01*
X132726395Y-81550000D01*
X135267928Y-81550000D01*
X135267928Y-83550000D01*
X135280188Y-83674482D01*
X135316498Y-83794180D01*
X135375463Y-83904494D01*
X135454815Y-84001185D01*
X135551506Y-84080537D01*
X135661820Y-84139502D01*
X135781518Y-84175812D01*
X135906000Y-84188072D01*
X137906000Y-84188072D01*
X138030482Y-84175812D01*
X138150180Y-84139502D01*
X138260494Y-84080537D01*
X138357185Y-84001185D01*
X138436537Y-83904494D01*
X138495502Y-83794180D01*
X138531812Y-83674482D01*
X138544072Y-83550000D01*
X138544072Y-82351298D01*
X141934903Y-82351298D01*
X142748000Y-83164395D01*
X143561097Y-82351298D01*
X143489514Y-82107329D01*
X143234004Y-81986429D01*
X142959816Y-81917700D01*
X142677488Y-81903783D01*
X142397870Y-81945213D01*
X142131708Y-82040397D01*
X142006486Y-82107329D01*
X141934903Y-82351298D01*
X138544072Y-82351298D01*
X138544072Y-81550000D01*
X138531812Y-81425518D01*
X138495502Y-81305820D01*
X138436537Y-81195506D01*
X138357185Y-81098815D01*
X138260494Y-81019463D01*
X138150180Y-80960498D01*
X138030482Y-80924188D01*
X137906000Y-80911928D01*
X135906000Y-80911928D01*
X135781518Y-80924188D01*
X135661820Y-80960498D01*
X135551506Y-81019463D01*
X135454815Y-81098815D01*
X135375463Y-81195506D01*
X135316498Y-81305820D01*
X135280188Y-81425518D01*
X135267928Y-81550000D01*
X132726395Y-81550000D01*
X132861808Y-81414587D01*
X132766044Y-81150186D01*
X132476429Y-81009296D01*
X132164892Y-80927616D01*
X131843405Y-80908282D01*
X131524325Y-80952039D01*
X131219912Y-81057205D01*
X131045956Y-81150186D01*
X130950192Y-81414587D01*
X129184000Y-81414587D01*
X129184000Y-75991095D01*
X129219534Y-76076882D01*
X129425825Y-76385618D01*
X129688382Y-76648175D01*
X129997118Y-76854466D01*
X130340166Y-76996561D01*
X130704344Y-77069000D01*
X131075656Y-77069000D01*
X131439834Y-76996561D01*
X131782882Y-76854466D01*
X132091618Y-76648175D01*
X132354175Y-76385618D01*
X132560466Y-76076882D01*
X132702561Y-75733834D01*
X132775000Y-75369656D01*
X132775000Y-74998344D01*
X132702561Y-74634166D01*
X132560466Y-74291118D01*
X132354175Y-73982382D01*
X132091618Y-73719825D01*
X131849430Y-73558000D01*
X134930570Y-73558000D01*
X134688382Y-73719825D01*
%TA.AperFunction,Conductor*%
D21*
G36*
X134688382Y-73719825D02*
G01*
X134425825Y-73982382D01*
X134219534Y-74291118D01*
X134077439Y-74634166D01*
X134005000Y-74998344D01*
X134005000Y-75369656D01*
X134077439Y-75733834D01*
X134219534Y-76076882D01*
X134425825Y-76385618D01*
X134688382Y-76648175D01*
X134997118Y-76854466D01*
X135340166Y-76996561D01*
X135704344Y-77069000D01*
X136075656Y-77069000D01*
X136439834Y-76996561D01*
X136782882Y-76854466D01*
X137091618Y-76648175D01*
X137354175Y-76385618D01*
X137560466Y-76076882D01*
X137702561Y-75733834D01*
X137775000Y-75369656D01*
X137775000Y-74998344D01*
X137702561Y-74634166D01*
X137560466Y-74291118D01*
X137354175Y-73982382D01*
X137091618Y-73719825D01*
X136849430Y-73558000D01*
X139340871Y-73558000D01*
X139298650Y-73592650D01*
X139172661Y-73746167D01*
X139079044Y-73921314D01*
X139021394Y-74111359D01*
X139001928Y-74309000D01*
X139001928Y-76059000D01*
X139021394Y-76256641D01*
X139079044Y-76446686D01*
X139172661Y-76621833D01*
X139298650Y-76775350D01*
X139452167Y-76901339D01*
X139627314Y-76994956D01*
X139817359Y-77052606D01*
X140015000Y-77072072D01*
X141765000Y-77072072D01*
X141962641Y-77052606D01*
X142152686Y-76994956D01*
X142327833Y-76901339D01*
X142481350Y-76775350D01*
X142607339Y-76621833D01*
X142700956Y-76446686D01*
X142758606Y-76256641D01*
X142778072Y-76059000D01*
X142778072Y-74309000D01*
X142758606Y-74111359D01*
X142700956Y-73921314D01*
X142607339Y-73746167D01*
X142481350Y-73592650D01*
X142439129Y-73558000D01*
X158378570Y-73558000D01*
X158136382Y-73719825D01*
X157873825Y-73982382D01*
X157667534Y-74291118D01*
X157525439Y-74634166D01*
X157453000Y-74998344D01*
X157453000Y-75369656D01*
X157525439Y-75733834D01*
X157667534Y-76076882D01*
X157873825Y-76385618D01*
X158136382Y-76648175D01*
X158445118Y-76854466D01*
X158788166Y-76996561D01*
X159152344Y-77069000D01*
X159523656Y-77069000D01*
X159887834Y-76996561D01*
X160230882Y-76854466D01*
X160539618Y-76648175D01*
X160802175Y-76385618D01*
X161008466Y-76076882D01*
X161150561Y-75733834D01*
X161223000Y-75369656D01*
X161223000Y-74998344D01*
X161150561Y-74634166D01*
X161008466Y-74291118D01*
X160802175Y-73982382D01*
X160539618Y-73719825D01*
X160297430Y-73558000D01*
X163378570Y-73558000D01*
X163136382Y-73719825D01*
X162873825Y-73982382D01*
X162667534Y-74291118D01*
X162525439Y-74634166D01*
X162453000Y-74998344D01*
X162453000Y-75369656D01*
X162525439Y-75733834D01*
X162667534Y-76076882D01*
X162873825Y-76385618D01*
X163136382Y-76648175D01*
X163445118Y-76854466D01*
X163788166Y-76996561D01*
X164152344Y-77069000D01*
X164523656Y-77069000D01*
X164887834Y-76996561D01*
X165230882Y-76854466D01*
X165539618Y-76648175D01*
X165802175Y-76385618D01*
X166008466Y-76076882D01*
X166150561Y-75733834D01*
X166223000Y-75369656D01*
X166223000Y-74998344D01*
X166150561Y-74634166D01*
X166008466Y-74291118D01*
X165802175Y-73982382D01*
X165539618Y-73719825D01*
X165297430Y-73558000D01*
X167788871Y-73558000D01*
X167746650Y-73592650D01*
X167620661Y-73746167D01*
X167527044Y-73921314D01*
X167469394Y-74111359D01*
X167449928Y-74309000D01*
X167449928Y-75997270D01*
X165975199Y-77472000D01*
X164316711Y-77472000D01*
X164272774Y-77428063D01*
X164103256Y-77314795D01*
X163914898Y-77236774D01*
X163714939Y-77197000D01*
X163511061Y-77197000D01*
X163311102Y-77236774D01*
X163122744Y-77314795D01*
X162953226Y-77428063D01*
X162809063Y-77572226D01*
X162695795Y-77741744D01*
X162617774Y-77930102D01*
X162578000Y-78130061D01*
X162578000Y-78333939D01*
X162617774Y-78533898D01*
X162695795Y-78722256D01*
X162809063Y-78891774D01*
X162953226Y-79035937D01*
X163122744Y-79149205D01*
X163311102Y-79227226D01*
X163511061Y-79267000D01*
X163714939Y-79267000D01*
X163914898Y-79227226D01*
X164103256Y-79149205D01*
X164272774Y-79035937D01*
X164316711Y-78992000D01*
X166252678Y-78992000D01*
X166290000Y-78995676D01*
X166327322Y-78992000D01*
X166327333Y-78992000D01*
X166438986Y-78981003D01*
X166582247Y-78937546D01*
X166714276Y-78866974D01*
X166830001Y-78772001D01*
X166853804Y-78742997D01*
X168524730Y-77072072D01*
X168578000Y-77072072D01*
X168578001Y-82569197D01*
X166584199Y-84563000D01*
X166522061Y-84563000D01*
X166322102Y-84602774D01*
X166133744Y-84680795D01*
X165964226Y-84794063D01*
X165929595Y-84828694D01*
X162540189Y-84828694D01*
X162607898Y-84815226D01*
X162796256Y-84737205D01*
X162965774Y-84623937D01*
X163109937Y-84479774D01*
X163223205Y-84310256D01*
X163301226Y-84121898D01*
X163341000Y-83921939D01*
X163341000Y-83718061D01*
X163301226Y-83518102D01*
X163223205Y-83329744D01*
X163109937Y-83160226D01*
X162965774Y-83016063D01*
X162796256Y-82902795D01*
X162607898Y-82824774D01*
X162407939Y-82785000D01*
X162204061Y-82785000D01*
X162004102Y-82824774D01*
X161815744Y-82902795D01*
X161646226Y-83016063D01*
X161606942Y-83055347D01*
X160719058Y-83055347D01*
X160675121Y-83011410D01*
X160505603Y-82898142D01*
X160317245Y-82820121D01*
X160117286Y-82780347D01*
X159913408Y-82780347D01*
X159713449Y-82820121D01*
X159525091Y-82898142D01*
X159355573Y-83011410D01*
X159211410Y-83155573D01*
X159098142Y-83325091D01*
X159020121Y-83513449D01*
X158980347Y-83713408D01*
X158980347Y-83917286D01*
X159020121Y-84117245D01*
X159098142Y-84305603D01*
X159211410Y-84475121D01*
X159355573Y-84619284D01*
X159525091Y-84732552D01*
X159713449Y-84810573D01*
X159804550Y-84828694D01*
X151890000Y-84828694D01*
X151890000Y-81168013D01*
X151909744Y-81181205D01*
X152098102Y-81259226D01*
X152298061Y-81299000D01*
X152501939Y-81299000D01*
X152701898Y-81259226D01*
X152890256Y-81181205D01*
X153059774Y-81067937D01*
X153103711Y-81024000D01*
X154149199Y-81024000D01*
X154589312Y-81464114D01*
X154553000Y-81646665D01*
X154553000Y-81929335D01*
X154608147Y-82206574D01*
X154716320Y-82467727D01*
X154873363Y-82702759D01*
X155073241Y-82902637D01*
X155308273Y-83059680D01*
X155569426Y-83167853D01*
X155846665Y-83223000D01*
X156129335Y-83223000D01*
X156406574Y-83167853D01*
X156667727Y-83059680D01*
X156902759Y-82902637D01*
X156988000Y-82817396D01*
X157073241Y-82902637D01*
X157308273Y-83059680D01*
X157569426Y-83167853D01*
X157846665Y-83223000D01*
X158129335Y-83223000D01*
X158406574Y-83167853D01*
X158667727Y-83059680D01*
X158902759Y-82902637D01*
X159102637Y-82702759D01*
X159259680Y-82467727D01*
X159367853Y-82206574D01*
X159423000Y-81929335D01*
X159423000Y-81646665D01*
X159367853Y-81369426D01*
X159259680Y-81108273D01*
X159102637Y-80873241D01*
X158902759Y-80673363D01*
X158667727Y-80516320D01*
X158406574Y-80408147D01*
X158129335Y-80353000D01*
X157846665Y-80353000D01*
X157569426Y-80408147D01*
X157308273Y-80516320D01*
X157073241Y-80673363D01*
X156988000Y-80758604D01*
X156902759Y-80673363D01*
X156667727Y-80516320D01*
X156406574Y-80408147D01*
X156129335Y-80353000D01*
X155846665Y-80353000D01*
X155664114Y-80389312D01*
X155027803Y-79753002D01*
X155004001Y-79723999D01*
X154888276Y-79629026D01*
X154756247Y-79558454D01*
X154612986Y-79514997D01*
X154501333Y-79504000D01*
X154501322Y-79504000D01*
X154464000Y-79500324D01*
X154426678Y-79504000D01*
X153103711Y-79504000D01*
X153059774Y-79460063D01*
X152890256Y-79346795D01*
X152701898Y-79268774D01*
X152501939Y-79229000D01*
X152439801Y-79229000D01*
X152201803Y-78991002D01*
X152178001Y-78961999D01*
X152062276Y-78867026D01*
X151930247Y-78796454D01*
X151786986Y-78752997D01*
X151675333Y-78742000D01*
X151675322Y-78742000D01*
X151638000Y-78738324D01*
X151600678Y-78742000D01*
X146087322Y-78742000D01*
X146049999Y-78738324D01*
X146012676Y-78742000D01*
X146012667Y-78742000D01*
X145901014Y-78752997D01*
X145757753Y-78796454D01*
X145625724Y-78867026D01*
X145509999Y-78961999D01*
X145486201Y-78990997D01*
X144740199Y-79737000D01*
X144678061Y-79737000D01*
X144478102Y-79776774D01*
X144289744Y-79854795D01*
X144120226Y-79968063D01*
X143976063Y-80112226D01*
X143862795Y-80281744D01*
X143784774Y-80470102D01*
X143745000Y-80670061D01*
X143745000Y-80873939D01*
X143784774Y-81073898D01*
X143862795Y-81262256D01*
X143976063Y-81431774D01*
X144120226Y-81575937D01*
X144289744Y-81689205D01*
X144478102Y-81767226D01*
X144678061Y-81807000D01*
X144881939Y-81807000D01*
X145081898Y-81767226D01*
X145270256Y-81689205D01*
X145439774Y-81575937D01*
X145583937Y-81431774D01*
X145697205Y-81262256D01*
X145775226Y-81073898D01*
X145815000Y-80873939D01*
X145815000Y-80811801D01*
X146364802Y-80262000D01*
X150095000Y-80262000D01*
X150095000Y-80365939D01*
X150134774Y-80565898D01*
X150212795Y-80754256D01*
X150326063Y-80923774D01*
X150370001Y-80967712D01*
X150370000Y-84828694D01*
X146096629Y-84828694D01*
X146059306Y-84825018D01*
X146021983Y-84828694D01*
X146021973Y-84828694D01*
X145910320Y-84839691D01*
X145767059Y-84883148D01*
X145635029Y-84953720D01*
X145551389Y-85022362D01*
X145519305Y-85048693D01*
X145495507Y-85077691D01*
X144740199Y-85833000D01*
X144678061Y-85833000D01*
X144478102Y-85872774D01*
X144289744Y-85950795D01*
X144186072Y-86020066D01*
X144186072Y-84544000D01*
X144173812Y-84419518D01*
X144137502Y-84299820D01*
X144078537Y-84189506D01*
X143999185Y-84092815D01*
X143986242Y-84082193D01*
X144105571Y-83830004D01*
X144174300Y-83555816D01*
X144188217Y-83273488D01*
X144146787Y-82993870D01*
X144051603Y-82727708D01*
X143984671Y-82602486D01*
X143740702Y-82530903D01*
X142927605Y-83344000D01*
X142941748Y-83358143D01*
X142762143Y-83537748D01*
X142748000Y-83523605D01*
X142733858Y-83537748D01*
X142554253Y-83358143D01*
X142568395Y-83344000D01*
X141755298Y-82530903D01*
X141511329Y-82602486D01*
X141390429Y-82857996D01*
X141321700Y-83132184D01*
X141307783Y-83414512D01*
X141349213Y-83694130D01*
X141444397Y-83960292D01*
X141509616Y-84082309D01*
X141496815Y-84092815D01*
X141417463Y-84189506D01*
X141358498Y-84299820D01*
X141322188Y-84419518D01*
X141309928Y-84544000D01*
X141309928Y-86144000D01*
X141322188Y-86268482D01*
X141358498Y-86388180D01*
X141417463Y-86498494D01*
X141496815Y-86595185D01*
X141593506Y-86674537D01*
X141703820Y-86733502D01*
X141823518Y-86769812D01*
X141948000Y-86782072D01*
X143548000Y-86782072D01*
X143672482Y-86769812D01*
X143748863Y-86746642D01*
X143745000Y-86766061D01*
X143745000Y-86969939D01*
X143784774Y-87169898D01*
X143862795Y-87358256D01*
X143976063Y-87527774D01*
X144120226Y-87671937D01*
X144289744Y-87785205D01*
X144478102Y-87863226D01*
X144678061Y-87903000D01*
X144881939Y-87903000D01*
X145081898Y-87863226D01*
X145270256Y-87785205D01*
X145439774Y-87671937D01*
X145583937Y-87527774D01*
X145697205Y-87358256D01*
X145775226Y-87169898D01*
X145815000Y-86969939D01*
X145815000Y-86907801D01*
X146374108Y-86348694D01*
X151092667Y-86348694D01*
X151130000Y-86352371D01*
X151167333Y-86348694D01*
X165910983Y-86348694D01*
X165964226Y-86401937D01*
X166133744Y-86515205D01*
X166322102Y-86593226D01*
X166522061Y-86633000D01*
X166725939Y-86633000D01*
X166925898Y-86593226D01*
X167114256Y-86515205D01*
X167283774Y-86401937D01*
X167427937Y-86257774D01*
X167541205Y-86088256D01*
X167619226Y-85899898D01*
X167659000Y-85699939D01*
X167659000Y-85637801D01*
X169849003Y-83447799D01*
X169878001Y-83424001D01*
X169972974Y-83308276D01*
X170043546Y-83176247D01*
X170087003Y-83032986D01*
X170098000Y-82921333D01*
X170101677Y-82884000D01*
X170098000Y-82846667D01*
X170098000Y-77072072D01*
X170213000Y-77072072D01*
X170410641Y-77052606D01*
X170600686Y-76994956D01*
X170775833Y-76901339D01*
X170929350Y-76775350D01*
X171044001Y-76635648D01*
X171044001Y-88908424D01*
X170980825Y-88813875D01*
X170746125Y-88579175D01*
X170470147Y-88394772D01*
X170163496Y-88267754D01*
X169837958Y-88203000D01*
X169506042Y-88203000D01*
X169180504Y-88267754D01*
X168873853Y-88394772D01*
X168597875Y-88579175D01*
X168363175Y-88813875D01*
X168178772Y-89089853D01*
X168051754Y-89396504D01*
X167987000Y-89722042D01*
X167987000Y-90053958D01*
X168051754Y-90379496D01*
X168178772Y-90686147D01*
X168363175Y-90962125D01*
X168597875Y-91196825D01*
X168873853Y-91381228D01*
X169180504Y-91508246D01*
X169506042Y-91573000D01*
X169837958Y-91573000D01*
X170163496Y-91508246D01*
X170470147Y-91381228D01*
X170746125Y-91196825D01*
X170980825Y-90962125D01*
X171044001Y-90867576D01*
X171044001Y-93014112D01*
X170965387Y-92949595D01*
X170811851Y-92867528D01*
X170645255Y-92816992D01*
X170472001Y-92799928D01*
X168871999Y-92799928D01*
X168698745Y-92816992D01*
X168532149Y-92867528D01*
X168378613Y-92949595D01*
X168244038Y-93060038D01*
X168133595Y-93194613D01*
X168051528Y-93348149D01*
X168000992Y-93514745D01*
X167983928Y-93687999D01*
X167983928Y-95288001D01*
X168000992Y-95461255D01*
X168051528Y-95627851D01*
X168133595Y-95781387D01*
X168244038Y-95915962D01*
X168378613Y-96026405D01*
X168532149Y-96108472D01*
X168698745Y-96159008D01*
X168871999Y-96176072D01*
X170472001Y-96176072D01*
X170645255Y-96159008D01*
X170811851Y-96108472D01*
X170965387Y-96026405D01*
X171044000Y-95961889D01*
X171044000Y-97608436D01*
X170843066Y-97532539D01*
X169851605Y-98524000D01*
X170843066Y-99515461D01*
X171044000Y-99439564D01*
X171044000Y-101650111D01*
X170965387Y-101585595D01*
X170811851Y-101503528D01*
X170645255Y-101452992D01*
X170472001Y-101435928D01*
X168871999Y-101435928D01*
X168698745Y-101452992D01*
X168532149Y-101503528D01*
X168378613Y-101585595D01*
X168244038Y-101696038D01*
X168133595Y-101830613D01*
X168051528Y-101984149D01*
X168000992Y-102150745D01*
X167983928Y-102323999D01*
X167983928Y-103924001D01*
X168000992Y-104097255D01*
X168051528Y-104263851D01*
X168133595Y-104417387D01*
X168244038Y-104551962D01*
X168378613Y-104662405D01*
X168532149Y-104744472D01*
X168698745Y-104795008D01*
X168871999Y-104812072D01*
X170472001Y-104812072D01*
X170645255Y-104795008D01*
X170811851Y-104744472D01*
X170965387Y-104662405D01*
X171044000Y-104597889D01*
X171044000Y-106322468D01*
X170943680Y-106080273D01*
X170786637Y-105845241D01*
X170586759Y-105645363D01*
X170351727Y-105488320D01*
X170090574Y-105380147D01*
X169813335Y-105325000D01*
X169530665Y-105325000D01*
X169253426Y-105380147D01*
X168992273Y-105488320D01*
X168757241Y-105645363D01*
X168557363Y-105845241D01*
X168400320Y-106080273D01*
X168292147Y-106341426D01*
X168237000Y-106618665D01*
X168237000Y-106901335D01*
X168292147Y-107178574D01*
X168400320Y-107439727D01*
X168557363Y-107674759D01*
X168757241Y-107874637D01*
X168992273Y-108031680D01*
X169253426Y-108139853D01*
X169530665Y-108195000D01*
X169813335Y-108195000D01*
X170090574Y-108139853D01*
X170351727Y-108031680D01*
X170586759Y-107874637D01*
X170786637Y-107674759D01*
X170943680Y-107439727D01*
X171044000Y-107197532D01*
X171044000Y-111322467D01*
X170943680Y-111080273D01*
X170786637Y-110845241D01*
X170586759Y-110645363D01*
X170351727Y-110488320D01*
X170090574Y-110380147D01*
X169813335Y-110325000D01*
X169530665Y-110325000D01*
X169253426Y-110380147D01*
X168992273Y-110488320D01*
X168757241Y-110645363D01*
X168557363Y-110845241D01*
X168400320Y-111080273D01*
X168292147Y-111341426D01*
X168237000Y-111618665D01*
X168237000Y-111901335D01*
X168292147Y-112178574D01*
X168400320Y-112439727D01*
X168557363Y-112674759D01*
X168757241Y-112874637D01*
X168762274Y-112878000D01*
X129184000Y-112878000D01*
X129184000Y-111709889D01*
X129262613Y-111774405D01*
X129416149Y-111856472D01*
X129582745Y-111907008D01*
X129755999Y-111924072D01*
X131356001Y-111924072D01*
X131529255Y-111907008D01*
X131695851Y-111856472D01*
X131849387Y-111774405D01*
X131983962Y-111663962D01*
X132094405Y-111529387D01*
X132176472Y-111375851D01*
X132227008Y-111209255D01*
X132244072Y-111036001D01*
X132244072Y-110560512D01*
X139307783Y-110560512D01*
X139349213Y-110840130D01*
X139444397Y-111106292D01*
X139511329Y-111231514D01*
X139755298Y-111303097D01*
X140568395Y-110490000D01*
X139755298Y-109676903D01*
X139511329Y-109748486D01*
X139390429Y-110003996D01*
X139321700Y-110278184D01*
X139307783Y-110560512D01*
X132244072Y-110560512D01*
X132244072Y-109497298D01*
X139934903Y-109497298D01*
X140748000Y-110310395D01*
X140762143Y-110296253D01*
X140941748Y-110475858D01*
X140927605Y-110490000D01*
X140941748Y-110504143D01*
X140762143Y-110683748D01*
X140748000Y-110669605D01*
X139934903Y-111482702D01*
X140006486Y-111726671D01*
X140261996Y-111847571D01*
X140536184Y-111916300D01*
X140818512Y-111930217D01*
X141098130Y-111888787D01*
X141364292Y-111793603D01*
X141486309Y-111728384D01*
X141496815Y-111741185D01*
X141593506Y-111820537D01*
X141703820Y-111879502D01*
X141823518Y-111915812D01*
X141948000Y-111928072D01*
X143548000Y-111928072D01*
X143672482Y-111915812D01*
X143792180Y-111879502D01*
X143902494Y-111820537D01*
X143999185Y-111741185D01*
X144078537Y-111644494D01*
X144137502Y-111534180D01*
X144173812Y-111414482D01*
X144186072Y-111290000D01*
X144186072Y-110560512D01*
X147435783Y-110560512D01*
X147477213Y-110840130D01*
X147572397Y-111106292D01*
X147639329Y-111231514D01*
X147883298Y-111303097D01*
X148696395Y-110490000D01*
X147883298Y-109676903D01*
X147639329Y-109748486D01*
X147518429Y-110003996D01*
X147449700Y-110278184D01*
X147435783Y-110560512D01*
X144186072Y-110560512D01*
X144186072Y-109690000D01*
X144173812Y-109565518D01*
X144153118Y-109497298D01*
X148062903Y-109497298D01*
X148876000Y-110310395D01*
X148890143Y-110296253D01*
X149069748Y-110475858D01*
X149055605Y-110490000D01*
X149069748Y-110504143D01*
X148890143Y-110683748D01*
X148876000Y-110669605D01*
X148062903Y-111482702D01*
X148134486Y-111726671D01*
X148389996Y-111847571D01*
X148664184Y-111916300D01*
X148946512Y-111930217D01*
X149226130Y-111888787D01*
X149492292Y-111793603D01*
X149614309Y-111728384D01*
X149624815Y-111741185D01*
X149721506Y-111820537D01*
X149831820Y-111879502D01*
X149951518Y-111915812D01*
X150076000Y-111928072D01*
X151676000Y-111928072D01*
X151800482Y-111915812D01*
X151920180Y-111879502D01*
X152030494Y-111820537D01*
X152127185Y-111741185D01*
X152206537Y-111644494D01*
X152265502Y-111534180D01*
X152301812Y-111414482D01*
X152314072Y-111290000D01*
X152314072Y-110560512D01*
X156071783Y-110560512D01*
X156113213Y-110840130D01*
X156208397Y-111106292D01*
X156275329Y-111231514D01*
X156519298Y-111303097D01*
X157332395Y-110490000D01*
X156519298Y-109676903D01*
X156275329Y-109748486D01*
X156154429Y-110003996D01*
X156085700Y-110278184D01*
X156071783Y-110560512D01*
X152314072Y-110560512D01*
X152314072Y-109690000D01*
X152301812Y-109565518D01*
X152281118Y-109497298D01*
X156698903Y-109497298D01*
X157512000Y-110310395D01*
X157526143Y-110296253D01*
X157705748Y-110475858D01*
X157691605Y-110490000D01*
X157705748Y-110504143D01*
X157526143Y-110683748D01*
X157512000Y-110669605D01*
X156698903Y-111482702D01*
X156770486Y-111726671D01*
X157025996Y-111847571D01*
X157300184Y-111916300D01*
X157582512Y-111930217D01*
X157862130Y-111888787D01*
X158128292Y-111793603D01*
X158250309Y-111728384D01*
X158260815Y-111741185D01*
X158357506Y-111820537D01*
X158467820Y-111879502D01*
X158587518Y-111915812D01*
X158712000Y-111928072D01*
X160312000Y-111928072D01*
X160436482Y-111915812D01*
X160556180Y-111879502D01*
X160666494Y-111820537D01*
X160763185Y-111741185D01*
X160842537Y-111644494D01*
X160901502Y-111534180D01*
X160937812Y-111414482D01*
X160950072Y-111290000D01*
X160950072Y-109690000D01*
X160937812Y-109565518D01*
X160901502Y-109445820D01*
X160842537Y-109335506D01*
X160763185Y-109238815D01*
X160666494Y-109159463D01*
X160556180Y-109100498D01*
X160436482Y-109064188D01*
X160312000Y-109051928D01*
X158712000Y-109051928D01*
X158587518Y-109064188D01*
X158467820Y-109100498D01*
X158357506Y-109159463D01*
X158260815Y-109238815D01*
X158250193Y-109251758D01*
X157998004Y-109132429D01*
X157723816Y-109063700D01*
X157441488Y-109049783D01*
X157161870Y-109091213D01*
X156895708Y-109186397D01*
X156770486Y-109253329D01*
X156698903Y-109497298D01*
X152281118Y-109497298D01*
X152265502Y-109445820D01*
X152206537Y-109335506D01*
X152127185Y-109238815D01*
X152030494Y-109159463D01*
X151920180Y-109100498D01*
X151800482Y-109064188D01*
X151676000Y-109051928D01*
X150076000Y-109051928D01*
X149951518Y-109064188D01*
X149831820Y-109100498D01*
X149721506Y-109159463D01*
X149624815Y-109238815D01*
X149614193Y-109251758D01*
X149362004Y-109132429D01*
X149087816Y-109063700D01*
X148805488Y-109049783D01*
X148525870Y-109091213D01*
X148259708Y-109186397D01*
X148134486Y-109253329D01*
X148062903Y-109497298D01*
X144153118Y-109497298D01*
X144137502Y-109445820D01*
X144078537Y-109335506D01*
X143999185Y-109238815D01*
X143902494Y-109159463D01*
X143792180Y-109100498D01*
X143672482Y-109064188D01*
X143548000Y-109051928D01*
X141948000Y-109051928D01*
X141823518Y-109064188D01*
X141703820Y-109100498D01*
X141593506Y-109159463D01*
X141496815Y-109238815D01*
X141486193Y-109251758D01*
X141234004Y-109132429D01*
X140959816Y-109063700D01*
X140677488Y-109049783D01*
X140397870Y-109091213D01*
X140131708Y-109186397D01*
X140006486Y-109253329D01*
X139934903Y-109497298D01*
X132244072Y-109497298D01*
X132244072Y-109435999D01*
X132227008Y-109262745D01*
X132176472Y-109096149D01*
X132094405Y-108942613D01*
X131983962Y-108808038D01*
X131849387Y-108697595D01*
X131695851Y-108615528D01*
X131529255Y-108564992D01*
X131356001Y-108547928D01*
X129755999Y-108547928D01*
X129582745Y-108564992D01*
X129416149Y-108615528D01*
X129262613Y-108697595D01*
X129184000Y-108762111D01*
X129184000Y-107143000D01*
X129442928Y-107143000D01*
X129455188Y-107267482D01*
X129491498Y-107387180D01*
X129550463Y-107497494D01*
X129629815Y-107594185D01*
X129726506Y-107673537D01*
X129836820Y-107732502D01*
X129956518Y-107768812D01*
X130081000Y-107781072D01*
X130270250Y-107778000D01*
X130429000Y-107619250D01*
X130429000Y-106870000D01*
X130683000Y-106870000D01*
X130683000Y-107619250D01*
X130841750Y-107778000D01*
X131031000Y-107781072D01*
X131155482Y-107768812D01*
X131275180Y-107732502D01*
X131385494Y-107673537D01*
X131482185Y-107594185D01*
X131561537Y-107497494D01*
X131620502Y-107387180D01*
X131656812Y-107267482D01*
X131669072Y-107143000D01*
X131666000Y-107028750D01*
X131507250Y-106870000D01*
X130683000Y-106870000D01*
X130429000Y-106870000D01*
X129604750Y-106870000D01*
X129446000Y-107028750D01*
X129442928Y-107143000D01*
X129184000Y-107143000D01*
X129184000Y-103327889D01*
X129262613Y-103392405D01*
X129416149Y-103474472D01*
X129582745Y-103525008D01*
X129755999Y-103542072D01*
X129796001Y-103542072D01*
X129796001Y-104212083D01*
X129688394Y-104300394D01*
X129584169Y-104427392D01*
X129506722Y-104572284D01*
X129459031Y-104729500D01*
X129442928Y-104893000D01*
X129442928Y-105293000D01*
X129459031Y-105456500D01*
X129506722Y-105613716D01*
X129584169Y-105758608D01*
X129667863Y-105860590D01*
X129629815Y-105891815D01*
X129550463Y-105988506D01*
X129491498Y-106098820D01*
X129455188Y-106218518D01*
X129442928Y-106343000D01*
X129446000Y-106457250D01*
X129604750Y-106616000D01*
X130429000Y-106616000D01*
X130429000Y-106596000D01*
X130683000Y-106596000D01*
X130683000Y-106616000D01*
X131507250Y-106616000D01*
X131666000Y-106457250D01*
X131669072Y-106343000D01*
X131656812Y-106218518D01*
X131620502Y-106098820D01*
X131561537Y-105988506D01*
X131482185Y-105891815D01*
X131444137Y-105860590D01*
X131527831Y-105758608D01*
X131605278Y-105613716D01*
X131652969Y-105456500D01*
X131669072Y-105293000D01*
X131669072Y-104893000D01*
X131652969Y-104729500D01*
X131605278Y-104572284D01*
X131527831Y-104427392D01*
X131423606Y-104300394D01*
X131316000Y-104212084D01*
X131316000Y-103542072D01*
X131356001Y-103542072D01*
X131529255Y-103525008D01*
X131695851Y-103474472D01*
X131849387Y-103392405D01*
X131983962Y-103281962D01*
X132094405Y-103147387D01*
X132176472Y-102993851D01*
X132227008Y-102827255D01*
X132244072Y-102654001D01*
X132244072Y-102360000D01*
X133655957Y-102360000D01*
X133759363Y-102514759D01*
X133959241Y-102714637D01*
X134194273Y-102871680D01*
X134455426Y-102979853D01*
X134732665Y-103035000D01*
X135015335Y-103035000D01*
X135292574Y-102979853D01*
X135553727Y-102871680D01*
X135788759Y-102714637D01*
X135871000Y-102632396D01*
X135871000Y-102717939D01*
X135910774Y-102917898D01*
X135988795Y-103106256D01*
X136102063Y-103275774D01*
X136246226Y-103419937D01*
X136415744Y-103533205D01*
X136604102Y-103611226D01*
X136654001Y-103621151D01*
X136654000Y-107246289D01*
X136610063Y-107290226D01*
X136496795Y-107459744D01*
X136418774Y-107648102D01*
X136379000Y-107848061D01*
X136379000Y-108051939D01*
X136418774Y-108251898D01*
X136496795Y-108440256D01*
X136610063Y-108609774D01*
X136754226Y-108753937D01*
X136923744Y-108867205D01*
X137112102Y-108945226D01*
X137312061Y-108985000D01*
X137515939Y-108985000D01*
X137715898Y-108945226D01*
X137904256Y-108867205D01*
X138073774Y-108753937D01*
X138217937Y-108609774D01*
X138331205Y-108440256D01*
X138409226Y-108251898D01*
X138449000Y-108051939D01*
X138449000Y-107848061D01*
X138409226Y-107648102D01*
X138331205Y-107459744D01*
X138217937Y-107290226D01*
X138174000Y-107246289D01*
X138174000Y-103161322D01*
X138177676Y-103123999D01*
X138174000Y-103086676D01*
X138174000Y-103086667D01*
X138163003Y-102975014D01*
X138119546Y-102831753D01*
X138048974Y-102699724D01*
X137954001Y-102583999D01*
X137941000Y-102573329D01*
X137941000Y-102514061D01*
X137901226Y-102314102D01*
X137823205Y-102125744D01*
X137709937Y-101956226D01*
X137565774Y-101812063D01*
X137396256Y-101698795D01*
X137207898Y-101620774D01*
X137007939Y-101581000D01*
X136804061Y-101581000D01*
X136604102Y-101620774D01*
X136415744Y-101698795D01*
X136302397Y-101774531D01*
X136309000Y-101741335D01*
X136309000Y-101458665D01*
X136253853Y-101181426D01*
X136145680Y-100920273D01*
X135988637Y-100685241D01*
X135788759Y-100485363D01*
X135553727Y-100328320D01*
X135292574Y-100220147D01*
X135233333Y-100208363D01*
X140243000Y-100208363D01*
X140243000Y-100451637D01*
X140290460Y-100690236D01*
X140383557Y-100914992D01*
X140518713Y-101117267D01*
X140593000Y-101191554D01*
X140593001Y-104096521D01*
X140588719Y-104140000D01*
X140605805Y-104313490D01*
X140656412Y-104480313D01*
X140738590Y-104634059D01*
X140821468Y-104735046D01*
X140821471Y-104735049D01*
X140849184Y-104768817D01*
X140882952Y-104796530D01*
X141101000Y-105014578D01*
X141101000Y-105056446D01*
X141026713Y-105130733D01*
X140891557Y-105333008D01*
X140798460Y-105557764D01*
X140751000Y-105796363D01*
X140751000Y-106039637D01*
X140798460Y-106278236D01*
X140891557Y-106502992D01*
X141026713Y-106705267D01*
X141198733Y-106877287D01*
X141401008Y-107012443D01*
X141625764Y-107105540D01*
X141864363Y-107153000D01*
X142107637Y-107153000D01*
X142346236Y-107105540D01*
X142570992Y-107012443D01*
X142773267Y-106877287D01*
X142945287Y-106705267D01*
X143080443Y-106502992D01*
X143173540Y-106278236D01*
X143221000Y-106039637D01*
X143221000Y-105796363D01*
X143173540Y-105557764D01*
X143080443Y-105333008D01*
X142945287Y-105130733D01*
X142871000Y-105056446D01*
X142871000Y-104691465D01*
X142875281Y-104647999D01*
X142871000Y-104604533D01*
X142871000Y-104604523D01*
X142858195Y-104474510D01*
X142807589Y-104307687D01*
X142725411Y-104153941D01*
X142614817Y-104019183D01*
X142581045Y-103991467D01*
X142363000Y-103773422D01*
X142363000Y-102260061D01*
X148571000Y-102260061D01*
X148571000Y-102463939D01*
X148610774Y-102663898D01*
X148688795Y-102852256D01*
X148785510Y-102997000D01*
X148688795Y-103141744D01*
X148610774Y-103330102D01*
X148571000Y-103530061D01*
X148571000Y-103733939D01*
X148610774Y-103933898D01*
X148688795Y-104122256D01*
X148802063Y-104291774D01*
X148946226Y-104435937D01*
X149115744Y-104549205D01*
X149304102Y-104627226D01*
X149504061Y-104667000D01*
X149707939Y-104667000D01*
X149907898Y-104627226D01*
X150096256Y-104549205D01*
X150265774Y-104435937D01*
X150309711Y-104392000D01*
X150330678Y-104392000D01*
X150368000Y-104395676D01*
X150405322Y-104392000D01*
X150405333Y-104392000D01*
X150516986Y-104381003D01*
X150660247Y-104337546D01*
X150792276Y-104266974D01*
X150908001Y-104172001D01*
X150931804Y-104142997D01*
X150936801Y-104138000D01*
X151215415Y-104138000D01*
X151297716Y-104238284D01*
X151428503Y-104345618D01*
X151577717Y-104425375D01*
X151739623Y-104474488D01*
X151908000Y-104491072D01*
X152358000Y-104491072D01*
X152526377Y-104474488D01*
X152688283Y-104425375D01*
X152837497Y-104345618D01*
X152908000Y-104287758D01*
X152978503Y-104345618D01*
X153127717Y-104425375D01*
X153289623Y-104474488D01*
X153458000Y-104491072D01*
X153908000Y-104491072D01*
X154076377Y-104474488D01*
X154238283Y-104425375D01*
X154387497Y-104345618D01*
X154518284Y-104238284D01*
X154600585Y-104138000D01*
X154657984Y-104138000D01*
X154695306Y-104141676D01*
X154732628Y-104138000D01*
X154732639Y-104138000D01*
X154844292Y-104127003D01*
X154987553Y-104083546D01*
X155119582Y-104012974D01*
X155235307Y-103918001D01*
X155242158Y-103909653D01*
X155300592Y-103909653D01*
X155500551Y-103869879D01*
X155688909Y-103791858D01*
X155858427Y-103678590D01*
X156002590Y-103534427D01*
X156115858Y-103364909D01*
X156193879Y-103176551D01*
X156233653Y-102976592D01*
X156233653Y-102772714D01*
X156193879Y-102572755D01*
X156115858Y-102384397D01*
X156002590Y-102214879D01*
X155858427Y-102070716D01*
X155688909Y-101957448D01*
X155500551Y-101879427D01*
X155300592Y-101839653D01*
X155096714Y-101839653D01*
X154896755Y-101879427D01*
X154765272Y-101933889D01*
X154771072Y-101875000D01*
X154771072Y-101325000D01*
X154754969Y-101161500D01*
X154707278Y-101004284D01*
X154678618Y-100950665D01*
X159601000Y-100950665D01*
X159601000Y-101233335D01*
X159656147Y-101510574D01*
X159764320Y-101771727D01*
X159921363Y-102006759D01*
X160121241Y-102206637D01*
X160356273Y-102363680D01*
X160617426Y-102471853D01*
X160894665Y-102527000D01*
X161177335Y-102527000D01*
X161454574Y-102471853D01*
X161715727Y-102363680D01*
X161950759Y-102206637D01*
X162150637Y-102006759D01*
X162307680Y-101771727D01*
X162415853Y-101510574D01*
X162471000Y-101233335D01*
X162471000Y-100950665D01*
X162415853Y-100673426D01*
X162307680Y-100412273D01*
X162150637Y-100177241D01*
X161950759Y-99977363D01*
X161715727Y-99820320D01*
X161454574Y-99712147D01*
X161368704Y-99695066D01*
X168680539Y-99695066D01*
X168782339Y-99964579D01*
X169080477Y-100110463D01*
X169401346Y-100195380D01*
X169732617Y-100216066D01*
X170061557Y-100171728D01*
X170375527Y-100064069D01*
X170561661Y-99964579D01*
X170663461Y-99695066D01*
X169672000Y-98703605D01*
X168680539Y-99695066D01*
X161368704Y-99695066D01*
X161177335Y-99657000D01*
X160894665Y-99657000D01*
X160617426Y-99712147D01*
X160356273Y-99820320D01*
X160121241Y-99977363D01*
X159921363Y-100177241D01*
X159764320Y-100412273D01*
X159656147Y-100673426D01*
X159601000Y-100950665D01*
X154678618Y-100950665D01*
X154629831Y-100859392D01*
X154525606Y-100732394D01*
X154398608Y-100628169D01*
X154253716Y-100550722D01*
X154096500Y-100503031D01*
X153933000Y-100486928D01*
X153533000Y-100486928D01*
X153369500Y-100503031D01*
X153212284Y-100550722D01*
X153067392Y-100628169D01*
X152940394Y-100732394D01*
X152908000Y-100771866D01*
X152875606Y-100732394D01*
X152748608Y-100628169D01*
X152603716Y-100550722D01*
X152446500Y-100503031D01*
X152283000Y-100486928D01*
X151883000Y-100486928D01*
X151719500Y-100503031D01*
X151562284Y-100550722D01*
X151417392Y-100628169D01*
X151290394Y-100732394D01*
X151202084Y-100840000D01*
X150405325Y-100840000D01*
X150368000Y-100836324D01*
X150330675Y-100840000D01*
X150330667Y-100840000D01*
X150219014Y-100850997D01*
X150075753Y-100894454D01*
X149943724Y-100965026D01*
X149827999Y-101059999D01*
X149804201Y-101088998D01*
X149566198Y-101327000D01*
X149504061Y-101327000D01*
X149304102Y-101366774D01*
X149115744Y-101444795D01*
X148946226Y-101558063D01*
X148802063Y-101702226D01*
X148688795Y-101871744D01*
X148610774Y-102060102D01*
X148571000Y-102260061D01*
X142363000Y-102260061D01*
X142363000Y-101191554D01*
X142437287Y-101117267D01*
X142572443Y-100914992D01*
X142665540Y-100690236D01*
X142713000Y-100451637D01*
X142713000Y-100208363D01*
X142665540Y-99969764D01*
X142572443Y-99745008D01*
X142437287Y-99542733D01*
X142265267Y-99370713D01*
X142062992Y-99235557D01*
X141838236Y-99142460D01*
X141599637Y-99095000D01*
X141356363Y-99095000D01*
X141117764Y-99142460D01*
X140893008Y-99235557D01*
X140690733Y-99370713D01*
X140518713Y-99542733D01*
X140383557Y-99745008D01*
X140290460Y-99969764D01*
X140243000Y-100208363D01*
X135233333Y-100208363D01*
X135015335Y-100165000D01*
X134732665Y-100165000D01*
X134455426Y-100220147D01*
X134194273Y-100328320D01*
X133959241Y-100485363D01*
X133759363Y-100685241D01*
X133655957Y-100840000D01*
X132214648Y-100840000D01*
X132176472Y-100714149D01*
X132094405Y-100560613D01*
X131983962Y-100426038D01*
X131849387Y-100315595D01*
X131695851Y-100233528D01*
X131529255Y-100182992D01*
X131356001Y-100165928D01*
X129755999Y-100165928D01*
X129582745Y-100182992D01*
X129416149Y-100233528D01*
X129262613Y-100315595D01*
X129184000Y-100380111D01*
X129184000Y-98425066D01*
X129564539Y-98425066D01*
X129666339Y-98694579D01*
X129964477Y-98840463D01*
X130285346Y-98925380D01*
X130616617Y-98946066D01*
X130945557Y-98901728D01*
X131259527Y-98794069D01*
X131445661Y-98694579D01*
X131547461Y-98425066D01*
X130556000Y-97433605D01*
X129564539Y-98425066D01*
X129184000Y-98425066D01*
X129184000Y-98169565D01*
X129384934Y-98245461D01*
X130376395Y-97254000D01*
X130735605Y-97254000D01*
X131727066Y-98245461D01*
X131996579Y-98143661D01*
X132142463Y-97845523D01*
X132227380Y-97524654D01*
X132248066Y-97193383D01*
X132203728Y-96864443D01*
X132096069Y-96550473D01*
X132046997Y-96458665D01*
X133439000Y-96458665D01*
X133439000Y-96741335D01*
X133494147Y-97018574D01*
X133602320Y-97279727D01*
X133759363Y-97514759D01*
X133959241Y-97714637D01*
X134194273Y-97871680D01*
X134455426Y-97979853D01*
X134732665Y-98035000D01*
X135015335Y-98035000D01*
X135292574Y-97979853D01*
X135465796Y-97908102D01*
X138952959Y-97908102D01*
X138952959Y-98111980D01*
X138992733Y-98311939D01*
X139070754Y-98500297D01*
X139184022Y-98669815D01*
X139328185Y-98813978D01*
X139497703Y-98927246D01*
X139686061Y-99005267D01*
X139886020Y-99045041D01*
X140089898Y-99045041D01*
X140289857Y-99005267D01*
X140478215Y-98927246D01*
X140647733Y-98813978D01*
X140791896Y-98669815D01*
X140848823Y-98584617D01*
X167979934Y-98584617D01*
X168024272Y-98913557D01*
X168131931Y-99227527D01*
X168231421Y-99413661D01*
X168500934Y-99515461D01*
X169492395Y-98524000D01*
X168500934Y-97532539D01*
X168231421Y-97634339D01*
X168085537Y-97932477D01*
X168000620Y-98253346D01*
X167979934Y-98584617D01*
X140848823Y-98584617D01*
X140905164Y-98500297D01*
X140983185Y-98311939D01*
X141022959Y-98111980D01*
X141022959Y-98049842D01*
X141229843Y-97842959D01*
X141291980Y-97842959D01*
X141491939Y-97803185D01*
X141680297Y-97725164D01*
X141849815Y-97611896D01*
X141993978Y-97467733D01*
X142107246Y-97298215D01*
X142185267Y-97109857D01*
X142225041Y-96909898D01*
X142225041Y-96706020D01*
X142185267Y-96506061D01*
X142107246Y-96317703D01*
X141993978Y-96148185D01*
X141849815Y-96004022D01*
X141769961Y-95950665D01*
X159601000Y-95950665D01*
X159601000Y-96233335D01*
X159656147Y-96510574D01*
X159764320Y-96771727D01*
X159921363Y-97006759D01*
X160121241Y-97206637D01*
X160356273Y-97363680D01*
X160617426Y-97471853D01*
X160894665Y-97527000D01*
X161177335Y-97527000D01*
X161454574Y-97471853D01*
X161715727Y-97363680D01*
X161731809Y-97352934D01*
X168680539Y-97352934D01*
X169672000Y-98344395D01*
X170663461Y-97352934D01*
X170561661Y-97083421D01*
X170263523Y-96937537D01*
X169942654Y-96852620D01*
X169611383Y-96831934D01*
X169282443Y-96876272D01*
X168968473Y-96983931D01*
X168782339Y-97083421D01*
X168680539Y-97352934D01*
X161731809Y-97352934D01*
X161950759Y-97206637D01*
X162150637Y-97006759D01*
X162307680Y-96771727D01*
X162415853Y-96510574D01*
X162471000Y-96233335D01*
X162471000Y-95950665D01*
X162415853Y-95673426D01*
X162307680Y-95412273D01*
X162150637Y-95177241D01*
X161950759Y-94977363D01*
X161715727Y-94820320D01*
X161454574Y-94712147D01*
X161177335Y-94657000D01*
X160894665Y-94657000D01*
X160617426Y-94712147D01*
X160356273Y-94820320D01*
X160121241Y-94977363D01*
X159921363Y-95177241D01*
X159764320Y-95412273D01*
X159656147Y-95673426D01*
X159601000Y-95950665D01*
X141769961Y-95950665D01*
X141680297Y-95890754D01*
X141491939Y-95812733D01*
X141291980Y-95772959D01*
X141088102Y-95772959D01*
X140888143Y-95812733D01*
X140699785Y-95890754D01*
X140530267Y-96004022D01*
X140386104Y-96148185D01*
X140272836Y-96317703D01*
X140194815Y-96506061D01*
X140155041Y-96706020D01*
X140155041Y-96768157D01*
X139948158Y-96975041D01*
X139886020Y-96975041D01*
X139686061Y-97014815D01*
X139497703Y-97092836D01*
X139328185Y-97206104D01*
X139184022Y-97350267D01*
X139070754Y-97519785D01*
X138992733Y-97708143D01*
X138952959Y-97908102D01*
X135465796Y-97908102D01*
X135553727Y-97871680D01*
X135788759Y-97714637D01*
X135988637Y-97514759D01*
X136145680Y-97279727D01*
X136253853Y-97018574D01*
X136309000Y-96741335D01*
X136309000Y-96458665D01*
X136253853Y-96181426D01*
X136145680Y-95920273D01*
X135988637Y-95685241D01*
X135788759Y-95485363D01*
X135553727Y-95328320D01*
X135292574Y-95220147D01*
X135015335Y-95165000D01*
X134732665Y-95165000D01*
X134455426Y-95220147D01*
X134194273Y-95328320D01*
X133959241Y-95485363D01*
X133759363Y-95685241D01*
X133602320Y-95920273D01*
X133494147Y-96181426D01*
X133439000Y-96458665D01*
X132046997Y-96458665D01*
X131996579Y-96364339D01*
X131727066Y-96262539D01*
X130735605Y-97254000D01*
X130376395Y-97254000D01*
X129384934Y-96262539D01*
X129184000Y-96338435D01*
X129184000Y-96082934D01*
X129564539Y-96082934D01*
X130556000Y-97074395D01*
X131547461Y-96082934D01*
X131445661Y-95813421D01*
X131147523Y-95667537D01*
X130826654Y-95582620D01*
X130495383Y-95561934D01*
X130166443Y-95606272D01*
X129852473Y-95713931D01*
X129666339Y-95813421D01*
X129564539Y-96082934D01*
X129184000Y-96082934D01*
X129184000Y-94417066D01*
X129564539Y-94417066D01*
X129666339Y-94686579D01*
X129964477Y-94832463D01*
X130285346Y-94917380D01*
X130616617Y-94938066D01*
X130945557Y-94893728D01*
X131259527Y-94786069D01*
X131445661Y-94686579D01*
X131547461Y-94417066D01*
X130556000Y-93425605D01*
X129564539Y-94417066D01*
X129184000Y-94417066D01*
X129184000Y-94161565D01*
X129384934Y-94237461D01*
X130376395Y-93246000D01*
X130735605Y-93246000D01*
X131727066Y-94237461D01*
X131996579Y-94135661D01*
X132142463Y-93837523D01*
X132227380Y-93516654D01*
X132248066Y-93185383D01*
X132203728Y-92856443D01*
X132096069Y-92542473D01*
X131996579Y-92356339D01*
X131727066Y-92254539D01*
X130735605Y-93246000D01*
X130376395Y-93246000D01*
X129384934Y-92254539D01*
X129184000Y-92330435D01*
X129184000Y-92074934D01*
X129564539Y-92074934D01*
X130556000Y-93066395D01*
X131547461Y-92074934D01*
X131445661Y-91805421D01*
X131147523Y-91659537D01*
X130826654Y-91574620D01*
X130495383Y-91553934D01*
X130166443Y-91598272D01*
X129852473Y-91705931D01*
X129666339Y-91805421D01*
X129564539Y-92074934D01*
X129184000Y-92074934D01*
X129184000Y-90119889D01*
X129262613Y-90184405D01*
X129416149Y-90266472D01*
X129582745Y-90317008D01*
X129755999Y-90334072D01*
X131356001Y-90334072D01*
X131529255Y-90317008D01*
X131695851Y-90266472D01*
X131849387Y-90184405D01*
X131983962Y-90073962D01*
X132094405Y-89939387D01*
X132176472Y-89785851D01*
X132227008Y-89619255D01*
X132244072Y-89446001D01*
X132244072Y-87845999D01*
X132227008Y-87672745D01*
X132176472Y-87506149D01*
X132159482Y-87474363D01*
X132369000Y-87474363D01*
X132369000Y-87717637D01*
X132416460Y-87956236D01*
X132509557Y-88180992D01*
X132644713Y-88383267D01*
X132719000Y-88457554D01*
X132719001Y-88834445D01*
X132644713Y-88908733D01*
X132509557Y-89111008D01*
X132416460Y-89335764D01*
X132369000Y-89574363D01*
X132369000Y-89817637D01*
X132416460Y-90056236D01*
X132509557Y-90280992D01*
X132644713Y-90483267D01*
X132816733Y-90655287D01*
X133019008Y-90790443D01*
X133243764Y-90883540D01*
X133482363Y-90931000D01*
X133725637Y-90931000D01*
X133964236Y-90883540D01*
X134188992Y-90790443D01*
X134391267Y-90655287D01*
X134563287Y-90483267D01*
X134698443Y-90280992D01*
X134791540Y-90056236D01*
X134799043Y-90018512D01*
X144355783Y-90018512D01*
X144397213Y-90298130D01*
X144492397Y-90564292D01*
X144557616Y-90686309D01*
X144544815Y-90696815D01*
X144465463Y-90793506D01*
X144406498Y-90903820D01*
X144370188Y-91023518D01*
X144357928Y-91148000D01*
X144357928Y-92748000D01*
X144370188Y-92872482D01*
X144406498Y-92992180D01*
X144465463Y-93102494D01*
X144544815Y-93199185D01*
X144641506Y-93278537D01*
X144751820Y-93337502D01*
X144871518Y-93373812D01*
X144996000Y-93386072D01*
X146596000Y-93386072D01*
X146720482Y-93373812D01*
X146840180Y-93337502D01*
X146950494Y-93278537D01*
X147047185Y-93199185D01*
X147126537Y-93102494D01*
X147185502Y-92992180D01*
X147221812Y-92872482D01*
X147234072Y-92748000D01*
X147234072Y-92608061D01*
X150323000Y-92608061D01*
X150323000Y-92811939D01*
X150362774Y-93011898D01*
X150440795Y-93200256D01*
X150554063Y-93369774D01*
X150698226Y-93513937D01*
X150867744Y-93627205D01*
X151056102Y-93705226D01*
X151256061Y-93745000D01*
X151459939Y-93745000D01*
X151659898Y-93705226D01*
X151848256Y-93627205D01*
X152017774Y-93513937D01*
X152061711Y-93470000D01*
X152204289Y-93470000D01*
X152248226Y-93513937D01*
X152417744Y-93627205D01*
X152606102Y-93705226D01*
X152806061Y-93745000D01*
X153009939Y-93745000D01*
X153209898Y-93705226D01*
X153398256Y-93627205D01*
X153567774Y-93513937D01*
X153711937Y-93369774D01*
X153825205Y-93200256D01*
X153903226Y-93011898D01*
X153943000Y-92811939D01*
X153943000Y-92608061D01*
X153903226Y-92408102D01*
X153825205Y-92219744D01*
X153711937Y-92050226D01*
X153567774Y-91906063D01*
X153398256Y-91792795D01*
X153209898Y-91714774D01*
X153009939Y-91675000D01*
X152806061Y-91675000D01*
X152606102Y-91714774D01*
X152417744Y-91792795D01*
X152248226Y-91906063D01*
X152204289Y-91950000D01*
X152061711Y-91950000D01*
X152017774Y-91906063D01*
X151848256Y-91792795D01*
X151659898Y-91714774D01*
X151459939Y-91675000D01*
X151256061Y-91675000D01*
X151056102Y-91714774D01*
X150867744Y-91792795D01*
X150698226Y-91906063D01*
X150554063Y-92050226D01*
X150440795Y-92219744D01*
X150362774Y-92408102D01*
X150323000Y-92608061D01*
X147234072Y-92608061D01*
X147234072Y-91148000D01*
X147221812Y-91023518D01*
X147185502Y-90903820D01*
X147126537Y-90793506D01*
X147047185Y-90696815D01*
X147034242Y-90686193D01*
X147153571Y-90434004D01*
X147222300Y-90159816D01*
X147236217Y-89877488D01*
X147214894Y-89733576D01*
X147333091Y-89812552D01*
X147521449Y-89890573D01*
X147721408Y-89930347D01*
X147783546Y-89930347D01*
X147813653Y-89960455D01*
X147813653Y-90022592D01*
X147853427Y-90222551D01*
X147931448Y-90410909D01*
X148044716Y-90580427D01*
X148188879Y-90724590D01*
X148358397Y-90837858D01*
X148546755Y-90915879D01*
X148746714Y-90955653D01*
X148950592Y-90955653D01*
X149150551Y-90915879D01*
X149338909Y-90837858D01*
X149508427Y-90724590D01*
X149652590Y-90580427D01*
X149765858Y-90410909D01*
X149843879Y-90222551D01*
X149883653Y-90022592D01*
X149883653Y-89818714D01*
X149843879Y-89618755D01*
X149765858Y-89430397D01*
X149652590Y-89260879D01*
X149508427Y-89116716D01*
X149338909Y-89003448D01*
X149150551Y-88925427D01*
X148950592Y-88885653D01*
X148888455Y-88885653D01*
X148858347Y-88855546D01*
X148858347Y-88793408D01*
X148818573Y-88593449D01*
X148740552Y-88405091D01*
X148627284Y-88235573D01*
X148483121Y-88091410D01*
X148313603Y-87978142D01*
X148125245Y-87900121D01*
X147925286Y-87860347D01*
X147721408Y-87860347D01*
X147521449Y-87900121D01*
X147333091Y-87978142D01*
X147163573Y-88091410D01*
X147019410Y-88235573D01*
X146906142Y-88405091D01*
X146828121Y-88593449D01*
X146788347Y-88793408D01*
X146788347Y-88902000D01*
X146725370Y-88839023D01*
X146609097Y-88955296D01*
X146537514Y-88711329D01*
X146282004Y-88590429D01*
X146007816Y-88521700D01*
X145725488Y-88507783D01*
X145445870Y-88549213D01*
X145179708Y-88644397D01*
X145054486Y-88711329D01*
X144982903Y-88955298D01*
X145796000Y-89768395D01*
X145810143Y-89754253D01*
X145989748Y-89933858D01*
X145975605Y-89948000D01*
X145989748Y-89962143D01*
X145810143Y-90141748D01*
X145796000Y-90127605D01*
X145781858Y-90141748D01*
X145602253Y-89962143D01*
X145616395Y-89948000D01*
X144803298Y-89134903D01*
X144559329Y-89206486D01*
X144438429Y-89461996D01*
X144369700Y-89736184D01*
X144355783Y-90018512D01*
X134799043Y-90018512D01*
X134839000Y-89817637D01*
X134839000Y-89574363D01*
X134791540Y-89335764D01*
X134698443Y-89111008D01*
X134563287Y-88908733D01*
X134489000Y-88834446D01*
X134489000Y-88457554D01*
X134563287Y-88383267D01*
X134698443Y-88180992D01*
X134791540Y-87956236D01*
X134839000Y-87717637D01*
X134839000Y-87474363D01*
X134791540Y-87235764D01*
X134698443Y-87011008D01*
X134563287Y-86808733D01*
X134391267Y-86636713D01*
X134188992Y-86501557D01*
X133964236Y-86408460D01*
X133725637Y-86361000D01*
X133482363Y-86361000D01*
X133243764Y-86408460D01*
X133019008Y-86501557D01*
X132816733Y-86636713D01*
X132644713Y-86808733D01*
X132509557Y-87011008D01*
X132416460Y-87235764D01*
X132369000Y-87474363D01*
X132159482Y-87474363D01*
X132094405Y-87352613D01*
X131983962Y-87218038D01*
X131849387Y-87107595D01*
X131695851Y-87025528D01*
X131529255Y-86974992D01*
X131356001Y-86957928D01*
X129755999Y-86957928D01*
X129582745Y-86974992D01*
X129416149Y-87025528D01*
X129262613Y-87107595D01*
X129184000Y-87172111D01*
X129184000Y-83685413D01*
X130950192Y-83685413D01*
X131045956Y-83949814D01*
X131335571Y-84090704D01*
X131647108Y-84172384D01*
X131968595Y-84191718D01*
X132287675Y-84147961D01*
X132592088Y-84042795D01*
X132766044Y-83949814D01*
X132861808Y-83685413D01*
X131906000Y-82729605D01*
X130950192Y-83685413D01*
X129184000Y-83685413D01*
X129184000Y-82612595D01*
X130264282Y-82612595D01*
X130308039Y-82931675D01*
X130413205Y-83236088D01*
X130506186Y-83410044D01*
X130770587Y-83505808D01*
X131726395Y-82550000D01*
X132085605Y-82550000D01*
X133041413Y-83505808D01*
X133305814Y-83410044D01*
X133446704Y-83120429D01*
X133528384Y-82808892D01*
X133547718Y-82487405D01*
X133503961Y-82168325D01*
X133398795Y-81863912D01*
X133305814Y-81689956D01*
X133041413Y-81594192D01*
X132085605Y-82550000D01*
X131726395Y-82550000D01*
X130770587Y-81594192D01*
X130506186Y-81689956D01*
X130365296Y-81979571D01*
X130283616Y-82291108D01*
X130264282Y-82612595D01*
X129184000Y-82612595D01*
X129184000Y-81414587D01*
X130950192Y-81414587D01*
X131906000Y-82370395D01*
X132726395Y-81550000D01*
X135267928Y-81550000D01*
X135267928Y-83550000D01*
X135280188Y-83674482D01*
X135316498Y-83794180D01*
X135375463Y-83904494D01*
X135454815Y-84001185D01*
X135551506Y-84080537D01*
X135661820Y-84139502D01*
X135781518Y-84175812D01*
X135906000Y-84188072D01*
X137906000Y-84188072D01*
X138030482Y-84175812D01*
X138150180Y-84139502D01*
X138260494Y-84080537D01*
X138357185Y-84001185D01*
X138436537Y-83904494D01*
X138495502Y-83794180D01*
X138531812Y-83674482D01*
X138544072Y-83550000D01*
X138544072Y-82351298D01*
X141934903Y-82351298D01*
X142748000Y-83164395D01*
X143561097Y-82351298D01*
X143489514Y-82107329D01*
X143234004Y-81986429D01*
X142959816Y-81917700D01*
X142677488Y-81903783D01*
X142397870Y-81945213D01*
X142131708Y-82040397D01*
X142006486Y-82107329D01*
X141934903Y-82351298D01*
X138544072Y-82351298D01*
X138544072Y-81550000D01*
X138531812Y-81425518D01*
X138495502Y-81305820D01*
X138436537Y-81195506D01*
X138357185Y-81098815D01*
X138260494Y-81019463D01*
X138150180Y-80960498D01*
X138030482Y-80924188D01*
X137906000Y-80911928D01*
X135906000Y-80911928D01*
X135781518Y-80924188D01*
X135661820Y-80960498D01*
X135551506Y-81019463D01*
X135454815Y-81098815D01*
X135375463Y-81195506D01*
X135316498Y-81305820D01*
X135280188Y-81425518D01*
X135267928Y-81550000D01*
X132726395Y-81550000D01*
X132861808Y-81414587D01*
X132766044Y-81150186D01*
X132476429Y-81009296D01*
X132164892Y-80927616D01*
X131843405Y-80908282D01*
X131524325Y-80952039D01*
X131219912Y-81057205D01*
X131045956Y-81150186D01*
X130950192Y-81414587D01*
X129184000Y-81414587D01*
X129184000Y-75991095D01*
X129219534Y-76076882D01*
X129425825Y-76385618D01*
X129688382Y-76648175D01*
X129997118Y-76854466D01*
X130340166Y-76996561D01*
X130704344Y-77069000D01*
X131075656Y-77069000D01*
X131439834Y-76996561D01*
X131782882Y-76854466D01*
X132091618Y-76648175D01*
X132354175Y-76385618D01*
X132560466Y-76076882D01*
X132702561Y-75733834D01*
X132775000Y-75369656D01*
X132775000Y-74998344D01*
X132702561Y-74634166D01*
X132560466Y-74291118D01*
X132354175Y-73982382D01*
X132091618Y-73719825D01*
X131849430Y-73558000D01*
X134930570Y-73558000D01*
X134688382Y-73719825D01*
G37*
%TD.AperFunction*%
%TD*%
M02*
