%TF.GenerationSoftware,KiCad,Pcbnew,5.1.9*%
%TF.CreationDate,2021-04-12T02:58:06-04:00*%
%TF.ProjectId,rog_tri-vibe,726f675f-7472-4692-9d76-6962652e6b69,rev?*%
%TF.SameCoordinates,Original*%
%TF.FileFunction,Soldermask,Bot*%
%TF.FilePolarity,Negative*%
%FSLAX46Y46*%
G04 Gerber Fmt 4.6, Leading zero omitted, Abs format (unit mm)*
G04 Created by KiCad (PCBNEW 5.1.9) date 2021-04-12 02:58:06*
%MOMM*%
%LPD*%
G01*
G04 APERTURE LIST*
%ADD10C,1.600000*%
%ADD11R,1.600000X1.600000*%
%ADD12C,2.500000*%
%ADD13C,2.100000*%
%ADD14R,2.000000X2.000000*%
%ADD15C,2.000000*%
G04 APERTURE END LIST*
D10*
%TO.C,C16*%
X157512000Y-110490000D03*
D11*
X159512000Y-110490000D03*
%TD*%
%TO.C,RV2*%
G36*
G01*
X168088000Y-76059000D02*
X168088000Y-74309000D01*
G75*
G02*
X168463000Y-73934000I375000J0D01*
G01*
X170213000Y-73934000D01*
G75*
G02*
X170588000Y-74309000I0J-375000D01*
G01*
X170588000Y-76059000D01*
G75*
G02*
X170213000Y-76434000I-375000J0D01*
G01*
X168463000Y-76434000D01*
G75*
G02*
X168088000Y-76059000I0J375000D01*
G01*
G37*
D12*
X159338000Y-75184000D03*
X164338000Y-75184000D03*
%TD*%
%TO.C,RV1*%
G36*
G01*
X139640000Y-76059000D02*
X139640000Y-74309000D01*
G75*
G02*
X140015000Y-73934000I375000J0D01*
G01*
X141765000Y-73934000D01*
G75*
G02*
X142140000Y-74309000I0J-375000D01*
G01*
X142140000Y-76059000D01*
G75*
G02*
X141765000Y-76434000I-375000J0D01*
G01*
X140015000Y-76434000D01*
G75*
G02*
X139640000Y-76059000I0J375000D01*
G01*
G37*
X130890000Y-75184000D03*
X135890000Y-75184000D03*
%TD*%
%TO.C,R41*%
G36*
G01*
X130281000Y-106343000D02*
X130831000Y-106343000D01*
G75*
G02*
X131031000Y-106543000I0J-200000D01*
G01*
X131031000Y-106943000D01*
G75*
G02*
X130831000Y-107143000I-200000J0D01*
G01*
X130281000Y-107143000D01*
G75*
G02*
X130081000Y-106943000I0J200000D01*
G01*
X130081000Y-106543000D01*
G75*
G02*
X130281000Y-106343000I200000J0D01*
G01*
G37*
G36*
G01*
X130281000Y-104693000D02*
X130831000Y-104693000D01*
G75*
G02*
X131031000Y-104893000I0J-200000D01*
G01*
X131031000Y-105293000D01*
G75*
G02*
X130831000Y-105493000I-200000J0D01*
G01*
X130281000Y-105493000D01*
G75*
G02*
X130081000Y-105293000I0J200000D01*
G01*
X130081000Y-104893000D01*
G75*
G02*
X130281000Y-104693000I200000J0D01*
G01*
G37*
%TD*%
%TO.C,R22*%
G36*
G01*
X153333000Y-101875000D02*
X153333000Y-101325000D01*
G75*
G02*
X153533000Y-101125000I200000J0D01*
G01*
X153933000Y-101125000D01*
G75*
G02*
X154133000Y-101325000I0J-200000D01*
G01*
X154133000Y-101875000D01*
G75*
G02*
X153933000Y-102075000I-200000J0D01*
G01*
X153533000Y-102075000D01*
G75*
G02*
X153333000Y-101875000I0J200000D01*
G01*
G37*
G36*
G01*
X151683000Y-101875000D02*
X151683000Y-101325000D01*
G75*
G02*
X151883000Y-101125000I200000J0D01*
G01*
X152283000Y-101125000D01*
G75*
G02*
X152483000Y-101325000I0J-200000D01*
G01*
X152483000Y-101875000D01*
G75*
G02*
X152283000Y-102075000I-200000J0D01*
G01*
X151883000Y-102075000D01*
G75*
G02*
X151683000Y-101875000I0J200000D01*
G01*
G37*
%TD*%
%TO.C,J5*%
G36*
G01*
X131356001Y-102904000D02*
X129755999Y-102904000D01*
G75*
G02*
X129506000Y-102654001I0J249999D01*
G01*
X129506000Y-101053999D01*
G75*
G02*
X129755999Y-100804000I249999J0D01*
G01*
X131356001Y-100804000D01*
G75*
G02*
X131606000Y-101053999I0J-249999D01*
G01*
X131606000Y-102654001D01*
G75*
G02*
X131356001Y-102904000I-249999J0D01*
G01*
G37*
D13*
X130556000Y-97254000D03*
%TD*%
%TO.C,J4*%
G36*
G01*
X131356001Y-111286000D02*
X129755999Y-111286000D01*
G75*
G02*
X129506000Y-111036001I0J249999D01*
G01*
X129506000Y-109435999D01*
G75*
G02*
X129755999Y-109186000I249999J0D01*
G01*
X131356001Y-109186000D01*
G75*
G02*
X131606000Y-109435999I0J-249999D01*
G01*
X131606000Y-111036001D01*
G75*
G02*
X131356001Y-111286000I-249999J0D01*
G01*
G37*
%TD*%
%TO.C,J3*%
G36*
G01*
X170472001Y-95538000D02*
X168871999Y-95538000D01*
G75*
G02*
X168622000Y-95288001I0J249999D01*
G01*
X168622000Y-93687999D01*
G75*
G02*
X168871999Y-93438000I249999J0D01*
G01*
X170472001Y-93438000D01*
G75*
G02*
X170722000Y-93687999I0J-249999D01*
G01*
X170722000Y-95288001D01*
G75*
G02*
X170472001Y-95538000I-249999J0D01*
G01*
G37*
X169672000Y-89888000D03*
%TD*%
%TO.C,J2*%
X130556000Y-93246000D03*
G36*
G01*
X129755999Y-87596000D02*
X131356001Y-87596000D01*
G75*
G02*
X131606000Y-87845999I0J-249999D01*
G01*
X131606000Y-89446001D01*
G75*
G02*
X131356001Y-89696000I-249999J0D01*
G01*
X129755999Y-89696000D01*
G75*
G02*
X129506000Y-89446001I0J249999D01*
G01*
X129506000Y-87845999D01*
G75*
G02*
X129755999Y-87596000I249999J0D01*
G01*
G37*
%TD*%
%TO.C,J1*%
X169672000Y-98524000D03*
G36*
G01*
X170472001Y-104174000D02*
X168871999Y-104174000D01*
G75*
G02*
X168622000Y-103924001I0J249999D01*
G01*
X168622000Y-102323999D01*
G75*
G02*
X168871999Y-102074000I249999J0D01*
G01*
X170472001Y-102074000D01*
G75*
G02*
X170722000Y-102323999I0J-249999D01*
G01*
X170722000Y-103924001D01*
G75*
G02*
X170472001Y-104174000I-249999J0D01*
G01*
G37*
%TD*%
D10*
%TO.C,C15*%
X134874000Y-101600000D03*
X134874000Y-96600000D03*
%TD*%
%TO.C,C12*%
G36*
G01*
X153233000Y-103628000D02*
X153233000Y-103128000D01*
G75*
G02*
X153458000Y-102903000I225000J0D01*
G01*
X153908000Y-102903000D01*
G75*
G02*
X154133000Y-103128000I0J-225000D01*
G01*
X154133000Y-103628000D01*
G75*
G02*
X153908000Y-103853000I-225000J0D01*
G01*
X153458000Y-103853000D01*
G75*
G02*
X153233000Y-103628000I0J225000D01*
G01*
G37*
G36*
G01*
X151683000Y-103628000D02*
X151683000Y-103128000D01*
G75*
G02*
X151908000Y-102903000I225000J0D01*
G01*
X152358000Y-102903000D01*
G75*
G02*
X152583000Y-103128000I0J-225000D01*
G01*
X152583000Y-103628000D01*
G75*
G02*
X152358000Y-103853000I-225000J0D01*
G01*
X151908000Y-103853000D01*
G75*
G02*
X151683000Y-103628000I0J225000D01*
G01*
G37*
%TD*%
%TO.C,C11*%
X155988000Y-81788000D03*
X157988000Y-81788000D03*
%TD*%
%TO.C,C10*%
X148876000Y-110490000D03*
D11*
X150876000Y-110490000D03*
%TD*%
D10*
%TO.C,C8*%
X142748000Y-83344000D03*
D11*
X142748000Y-85344000D03*
%TD*%
D10*
%TO.C,C7*%
X161036000Y-101092000D03*
X161036000Y-96092000D03*
%TD*%
%TO.C,C6*%
X140748000Y-110490000D03*
D11*
X142748000Y-110490000D03*
%TD*%
D14*
%TO.C,C5*%
X136906000Y-82550000D03*
D15*
X131906000Y-82550000D03*
%TD*%
D10*
%TO.C,C3*%
X169672000Y-106760000D03*
X169672000Y-111760000D03*
%TD*%
%TO.C,C1*%
X145796000Y-89948000D03*
D11*
X145796000Y-91948000D03*
%TD*%
M02*
