%TF.GenerationSoftware,KiCad,Pcbnew,5.1.9*%
%TF.CreationDate,2021-04-12T02:58:06-04:00*%
%TF.ProjectId,rog_tri-vibe,726f675f-7472-4692-9d76-6962652e6b69,rev?*%
%TF.SameCoordinates,Original*%
%TF.FileFunction,Legend,Bot*%
%TF.FilePolarity,Positive*%
%FSLAX46Y46*%
G04 Gerber Fmt 4.6, Leading zero omitted, Abs format (unit mm)*
G04 Created by KiCad (PCBNEW 5.1.9) date 2021-04-12 02:58:06*
%MOMM*%
%LPD*%
G01*
G04 APERTURE LIST*
%ADD10C,0.150000*%
%ADD11C,0.250000*%
%ADD12C,0.120000*%
G04 APERTURE END LIST*
D10*
X166742190Y-90909142D02*
X166789809Y-90956761D01*
X166932666Y-91004380D01*
X167027904Y-91004380D01*
X167170761Y-90956761D01*
X167266000Y-90861523D01*
X167313619Y-90766285D01*
X167361238Y-90575809D01*
X167361238Y-90432952D01*
X167313619Y-90242476D01*
X167266000Y-90147238D01*
X167170761Y-90052000D01*
X167027904Y-90004380D01*
X166932666Y-90004380D01*
X166789809Y-90052000D01*
X166742190Y-90099619D01*
X166313619Y-91004380D02*
X166313619Y-90337714D01*
X166313619Y-90004380D02*
X166361238Y-90052000D01*
X166313619Y-90099619D01*
X166266000Y-90052000D01*
X166313619Y-90004380D01*
X166313619Y-90099619D01*
X165837428Y-91004380D02*
X165837428Y-90337714D01*
X165837428Y-90528190D02*
X165789809Y-90432952D01*
X165742190Y-90385333D01*
X165646952Y-90337714D01*
X165551714Y-90337714D01*
X164789809Y-90956761D02*
X164885047Y-91004380D01*
X165075523Y-91004380D01*
X165170761Y-90956761D01*
X165218380Y-90909142D01*
X165266000Y-90813904D01*
X165266000Y-90528190D01*
X165218380Y-90432952D01*
X165170761Y-90385333D01*
X165075523Y-90337714D01*
X164885047Y-90337714D01*
X164789809Y-90385333D01*
X163932666Y-90337714D02*
X163932666Y-91004380D01*
X164361238Y-90337714D02*
X164361238Y-90861523D01*
X164313619Y-90956761D01*
X164218380Y-91004380D01*
X164075523Y-91004380D01*
X163980285Y-90956761D01*
X163932666Y-90909142D01*
X163456476Y-91004380D02*
X163456476Y-90337714D01*
X163456476Y-90004380D02*
X163504095Y-90052000D01*
X163456476Y-90099619D01*
X163408857Y-90052000D01*
X163456476Y-90004380D01*
X163456476Y-90099619D01*
X163123142Y-90337714D02*
X162742190Y-90337714D01*
X162980285Y-90004380D02*
X162980285Y-90861523D01*
X162932666Y-90956761D01*
X162837428Y-91004380D01*
X162742190Y-91004380D01*
X161646952Y-91004380D02*
X161646952Y-90004380D01*
X161313619Y-90718666D01*
X160980285Y-90004380D01*
X160980285Y-91004380D01*
X160361238Y-91004380D02*
X160456476Y-90956761D01*
X160504095Y-90909142D01*
X160551714Y-90813904D01*
X160551714Y-90528190D01*
X160504095Y-90432952D01*
X160456476Y-90385333D01*
X160361238Y-90337714D01*
X160218380Y-90337714D01*
X160123142Y-90385333D01*
X160075523Y-90432952D01*
X160027904Y-90528190D01*
X160027904Y-90813904D01*
X160075523Y-90909142D01*
X160123142Y-90956761D01*
X160218380Y-91004380D01*
X160361238Y-91004380D01*
X159170761Y-91004380D02*
X159170761Y-90004380D01*
X159170761Y-90956761D02*
X159266000Y-91004380D01*
X159456476Y-91004380D01*
X159551714Y-90956761D01*
X159599333Y-90909142D01*
X159646952Y-90813904D01*
X159646952Y-90528190D01*
X159599333Y-90432952D01*
X159551714Y-90385333D01*
X159456476Y-90337714D01*
X159266000Y-90337714D01*
X159170761Y-90385333D01*
X158694571Y-91004380D02*
X158694571Y-90337714D01*
X158694571Y-90004380D02*
X158742190Y-90052000D01*
X158694571Y-90099619D01*
X158646952Y-90052000D01*
X158694571Y-90004380D01*
X158694571Y-90099619D01*
X158361238Y-90337714D02*
X157980285Y-90337714D01*
X158218380Y-91004380D02*
X158218380Y-90147238D01*
X158170761Y-90052000D01*
X158075523Y-90004380D01*
X157980285Y-90004380D01*
X157646952Y-91004380D02*
X157646952Y-90337714D01*
X157646952Y-90004380D02*
X157694571Y-90052000D01*
X157646952Y-90099619D01*
X157599333Y-90052000D01*
X157646952Y-90004380D01*
X157646952Y-90099619D01*
X156742190Y-90956761D02*
X156837428Y-91004380D01*
X157027904Y-91004380D01*
X157123142Y-90956761D01*
X157170761Y-90909142D01*
X157218380Y-90813904D01*
X157218380Y-90528190D01*
X157170761Y-90432952D01*
X157123142Y-90385333D01*
X157027904Y-90337714D01*
X156837428Y-90337714D01*
X156742190Y-90385333D01*
X155885047Y-91004380D02*
X155885047Y-90480571D01*
X155932666Y-90385333D01*
X156027904Y-90337714D01*
X156218380Y-90337714D01*
X156313619Y-90385333D01*
X155885047Y-90956761D02*
X155980285Y-91004380D01*
X156218380Y-91004380D01*
X156313619Y-90956761D01*
X156361238Y-90861523D01*
X156361238Y-90766285D01*
X156313619Y-90671047D01*
X156218380Y-90623428D01*
X155980285Y-90623428D01*
X155885047Y-90575809D01*
X155551714Y-90337714D02*
X155170761Y-90337714D01*
X155408857Y-90004380D02*
X155408857Y-90861523D01*
X155361238Y-90956761D01*
X155266000Y-91004380D01*
X155170761Y-91004380D01*
X154837428Y-91004380D02*
X154837428Y-90337714D01*
X154837428Y-90004380D02*
X154885047Y-90052000D01*
X154837428Y-90099619D01*
X154789809Y-90052000D01*
X154837428Y-90004380D01*
X154837428Y-90099619D01*
X154218380Y-91004380D02*
X154313619Y-90956761D01*
X154361238Y-90909142D01*
X154408857Y-90813904D01*
X154408857Y-90528190D01*
X154361238Y-90432952D01*
X154313619Y-90385333D01*
X154218380Y-90337714D01*
X154075523Y-90337714D01*
X153980285Y-90385333D01*
X153932666Y-90432952D01*
X153885047Y-90528190D01*
X153885047Y-90813904D01*
X153932666Y-90909142D01*
X153980285Y-90956761D01*
X154075523Y-91004380D01*
X154218380Y-91004380D01*
X153456476Y-90337714D02*
X153456476Y-91004380D01*
X153456476Y-90432952D02*
X153408857Y-90385333D01*
X153313619Y-90337714D01*
X153170761Y-90337714D01*
X153075523Y-90385333D01*
X153027904Y-90480571D01*
X153027904Y-91004380D01*
X152599333Y-90956761D02*
X152504095Y-91004380D01*
X152313619Y-91004380D01*
X152218380Y-90956761D01*
X152170761Y-90861523D01*
X152170761Y-90813904D01*
X152218380Y-90718666D01*
X152313619Y-90671047D01*
X152456476Y-90671047D01*
X152551714Y-90623428D01*
X152599333Y-90528190D01*
X152599333Y-90480571D01*
X152551714Y-90385333D01*
X152456476Y-90337714D01*
X152313619Y-90337714D01*
X152218380Y-90385333D01*
X166361238Y-92654380D02*
X166361238Y-92130571D01*
X166408857Y-92035333D01*
X166504095Y-91987714D01*
X166694571Y-91987714D01*
X166789809Y-92035333D01*
X166361238Y-92606761D02*
X166456476Y-92654380D01*
X166694571Y-92654380D01*
X166789809Y-92606761D01*
X166837428Y-92511523D01*
X166837428Y-92416285D01*
X166789809Y-92321047D01*
X166694571Y-92273428D01*
X166456476Y-92273428D01*
X166361238Y-92225809D01*
X165885047Y-91987714D02*
X165885047Y-92654380D01*
X165885047Y-92082952D02*
X165837428Y-92035333D01*
X165742190Y-91987714D01*
X165599333Y-91987714D01*
X165504095Y-92035333D01*
X165456476Y-92130571D01*
X165456476Y-92654380D01*
X164551714Y-92654380D02*
X164551714Y-91654380D01*
X164551714Y-92606761D02*
X164646952Y-92654380D01*
X164837428Y-92654380D01*
X164932666Y-92606761D01*
X164980285Y-92559142D01*
X165027904Y-92463904D01*
X165027904Y-92178190D01*
X164980285Y-92082952D01*
X164932666Y-92035333D01*
X164837428Y-91987714D01*
X164646952Y-91987714D01*
X164551714Y-92035333D01*
X163313619Y-92654380D02*
X163313619Y-91654380D01*
X162932666Y-91654380D01*
X162837428Y-91702000D01*
X162789809Y-91749619D01*
X162742190Y-91844857D01*
X162742190Y-91987714D01*
X162789809Y-92082952D01*
X162837428Y-92130571D01*
X162932666Y-92178190D01*
X163313619Y-92178190D01*
X161742190Y-92559142D02*
X161789809Y-92606761D01*
X161932666Y-92654380D01*
X162027904Y-92654380D01*
X162170761Y-92606761D01*
X162266000Y-92511523D01*
X162313619Y-92416285D01*
X162361238Y-92225809D01*
X162361238Y-92082952D01*
X162313619Y-91892476D01*
X162266000Y-91797238D01*
X162170761Y-91702000D01*
X162027904Y-91654380D01*
X161932666Y-91654380D01*
X161789809Y-91702000D01*
X161742190Y-91749619D01*
X160980285Y-92130571D02*
X160837428Y-92178190D01*
X160789809Y-92225809D01*
X160742190Y-92321047D01*
X160742190Y-92463904D01*
X160789809Y-92559142D01*
X160837428Y-92606761D01*
X160932666Y-92654380D01*
X161313619Y-92654380D01*
X161313619Y-91654380D01*
X160980285Y-91654380D01*
X160885047Y-91702000D01*
X160837428Y-91749619D01*
X160789809Y-91844857D01*
X160789809Y-91940095D01*
X160837428Y-92035333D01*
X160885047Y-92082952D01*
X160980285Y-92130571D01*
X161313619Y-92130571D01*
X159123142Y-92654380D02*
X159123142Y-91654380D01*
X159123142Y-92606761D02*
X159218380Y-92654380D01*
X159408857Y-92654380D01*
X159504095Y-92606761D01*
X159551714Y-92559142D01*
X159599333Y-92463904D01*
X159599333Y-92178190D01*
X159551714Y-92082952D01*
X159504095Y-92035333D01*
X159408857Y-91987714D01*
X159218380Y-91987714D01*
X159123142Y-92035333D01*
X158266000Y-92606761D02*
X158361238Y-92654380D01*
X158551714Y-92654380D01*
X158646952Y-92606761D01*
X158694571Y-92511523D01*
X158694571Y-92130571D01*
X158646952Y-92035333D01*
X158551714Y-91987714D01*
X158361238Y-91987714D01*
X158266000Y-92035333D01*
X158218380Y-92130571D01*
X158218380Y-92225809D01*
X158694571Y-92321047D01*
X157837428Y-92606761D02*
X157742190Y-92654380D01*
X157551714Y-92654380D01*
X157456476Y-92606761D01*
X157408857Y-92511523D01*
X157408857Y-92463904D01*
X157456476Y-92368666D01*
X157551714Y-92321047D01*
X157694571Y-92321047D01*
X157789809Y-92273428D01*
X157837428Y-92178190D01*
X157837428Y-92130571D01*
X157789809Y-92035333D01*
X157694571Y-91987714D01*
X157551714Y-91987714D01*
X157456476Y-92035333D01*
X156980285Y-92654380D02*
X156980285Y-91987714D01*
X156980285Y-91654380D02*
X157027904Y-91702000D01*
X156980285Y-91749619D01*
X156932666Y-91702000D01*
X156980285Y-91654380D01*
X156980285Y-91749619D01*
X156075523Y-91987714D02*
X156075523Y-92797238D01*
X156123142Y-92892476D01*
X156170761Y-92940095D01*
X156266000Y-92987714D01*
X156408857Y-92987714D01*
X156504095Y-92940095D01*
X156075523Y-92606761D02*
X156170761Y-92654380D01*
X156361238Y-92654380D01*
X156456476Y-92606761D01*
X156504095Y-92559142D01*
X156551714Y-92463904D01*
X156551714Y-92178190D01*
X156504095Y-92082952D01*
X156456476Y-92035333D01*
X156361238Y-91987714D01*
X156170761Y-91987714D01*
X156075523Y-92035333D01*
X155599333Y-91987714D02*
X155599333Y-92654380D01*
X155599333Y-92082952D02*
X155551714Y-92035333D01*
X155456476Y-91987714D01*
X155313619Y-91987714D01*
X155218380Y-92035333D01*
X155170761Y-92130571D01*
X155170761Y-92654380D01*
X153932666Y-92654380D02*
X153932666Y-91654380D01*
X153932666Y-92035333D02*
X153837428Y-91987714D01*
X153646952Y-91987714D01*
X153551714Y-92035333D01*
X153504095Y-92082952D01*
X153456476Y-92178190D01*
X153456476Y-92463904D01*
X153504095Y-92559142D01*
X153551714Y-92606761D01*
X153646952Y-92654380D01*
X153837428Y-92654380D01*
X153932666Y-92606761D01*
X153123142Y-91987714D02*
X152885047Y-92654380D01*
X152646952Y-91987714D02*
X152885047Y-92654380D01*
X152980285Y-92892476D01*
X153027904Y-92940095D01*
X153123142Y-92987714D01*
X165670761Y-94304380D02*
X165670761Y-93304380D01*
X165337428Y-94018666D01*
X165004095Y-93304380D01*
X165004095Y-94304380D01*
X164527904Y-94304380D02*
X164527904Y-93637714D01*
X164527904Y-93304380D02*
X164575523Y-93352000D01*
X164527904Y-93399619D01*
X164480285Y-93352000D01*
X164527904Y-93304380D01*
X164527904Y-93399619D01*
X163623142Y-94256761D02*
X163718380Y-94304380D01*
X163908857Y-94304380D01*
X164004095Y-94256761D01*
X164051714Y-94209142D01*
X164099333Y-94113904D01*
X164099333Y-93828190D01*
X164051714Y-93732952D01*
X164004095Y-93685333D01*
X163908857Y-93637714D01*
X163718380Y-93637714D01*
X163623142Y-93685333D01*
X163194571Y-94304380D02*
X163194571Y-93304380D01*
X162766000Y-94304380D02*
X162766000Y-93780571D01*
X162813619Y-93685333D01*
X162908857Y-93637714D01*
X163051714Y-93637714D01*
X163146952Y-93685333D01*
X163194571Y-93732952D01*
X161861238Y-94304380D02*
X161861238Y-93780571D01*
X161908857Y-93685333D01*
X162004095Y-93637714D01*
X162194571Y-93637714D01*
X162289809Y-93685333D01*
X161861238Y-94256761D02*
X161956476Y-94304380D01*
X162194571Y-94304380D01*
X162289809Y-94256761D01*
X162337428Y-94161523D01*
X162337428Y-94066285D01*
X162289809Y-93971047D01*
X162194571Y-93923428D01*
X161956476Y-93923428D01*
X161861238Y-93875809D01*
X161004095Y-94256761D02*
X161099333Y-94304380D01*
X161289809Y-94304380D01*
X161385047Y-94256761D01*
X161432666Y-94161523D01*
X161432666Y-93780571D01*
X161385047Y-93685333D01*
X161289809Y-93637714D01*
X161099333Y-93637714D01*
X161004095Y-93685333D01*
X160956476Y-93780571D01*
X160956476Y-93875809D01*
X161432666Y-93971047D01*
X160385047Y-94304380D02*
X160480285Y-94256761D01*
X160527904Y-94161523D01*
X160527904Y-93304380D01*
X158908857Y-93780571D02*
X158766000Y-93828190D01*
X158718380Y-93875809D01*
X158670761Y-93971047D01*
X158670761Y-94113904D01*
X158718380Y-94209142D01*
X158766000Y-94256761D01*
X158861238Y-94304380D01*
X159242190Y-94304380D01*
X159242190Y-93304380D01*
X158908857Y-93304380D01*
X158813619Y-93352000D01*
X158766000Y-93399619D01*
X158718380Y-93494857D01*
X158718380Y-93590095D01*
X158766000Y-93685333D01*
X158813619Y-93732952D01*
X158908857Y-93780571D01*
X159242190Y-93780571D01*
X157813619Y-94304380D02*
X157813619Y-93780571D01*
X157861238Y-93685333D01*
X157956476Y-93637714D01*
X158146952Y-93637714D01*
X158242190Y-93685333D01*
X157813619Y-94256761D02*
X157908857Y-94304380D01*
X158146952Y-94304380D01*
X158242190Y-94256761D01*
X158289809Y-94161523D01*
X158289809Y-94066285D01*
X158242190Y-93971047D01*
X158146952Y-93923428D01*
X157908857Y-93923428D01*
X157813619Y-93875809D01*
X157337428Y-94304380D02*
X157337428Y-93637714D01*
X157337428Y-93828190D02*
X157289809Y-93732952D01*
X157242190Y-93685333D01*
X157146952Y-93637714D01*
X157051714Y-93637714D01*
X156718380Y-94304380D02*
X156718380Y-93304380D01*
X156718380Y-93685333D02*
X156623142Y-93637714D01*
X156432666Y-93637714D01*
X156337428Y-93685333D01*
X156289809Y-93732952D01*
X156242190Y-93828190D01*
X156242190Y-94113904D01*
X156289809Y-94209142D01*
X156337428Y-94256761D01*
X156432666Y-94304380D01*
X156623142Y-94304380D01*
X156718380Y-94256761D01*
X155670761Y-94304380D02*
X155766000Y-94256761D01*
X155813619Y-94209142D01*
X155861238Y-94113904D01*
X155861238Y-93828190D01*
X155813619Y-93732952D01*
X155766000Y-93685333D01*
X155670761Y-93637714D01*
X155527904Y-93637714D01*
X155432666Y-93685333D01*
X155385047Y-93732952D01*
X155337428Y-93828190D01*
X155337428Y-94113904D01*
X155385047Y-94209142D01*
X155432666Y-94256761D01*
X155527904Y-94304380D01*
X155670761Y-94304380D01*
X154480285Y-93637714D02*
X154480285Y-94304380D01*
X154908857Y-93637714D02*
X154908857Y-94161523D01*
X154861238Y-94256761D01*
X154766000Y-94304380D01*
X154623142Y-94304380D01*
X154527904Y-94256761D01*
X154480285Y-94209142D01*
X154004095Y-94304380D02*
X154004095Y-93637714D01*
X154004095Y-93828190D02*
X153956476Y-93732952D01*
X153908857Y-93685333D01*
X153813619Y-93637714D01*
X153718380Y-93637714D01*
X166027904Y-88336380D02*
X166027904Y-87669714D01*
X166027904Y-87860190D02*
X165980285Y-87764952D01*
X165932666Y-87717333D01*
X165837428Y-87669714D01*
X165742190Y-87669714D01*
X164980285Y-87669714D02*
X164980285Y-88336380D01*
X165408857Y-87669714D02*
X165408857Y-88193523D01*
X165361238Y-88288761D01*
X165266000Y-88336380D01*
X165123142Y-88336380D01*
X165027904Y-88288761D01*
X164980285Y-88241142D01*
X164504095Y-87669714D02*
X164504095Y-88336380D01*
X164504095Y-87764952D02*
X164456476Y-87717333D01*
X164361238Y-87669714D01*
X164218380Y-87669714D01*
X164123142Y-87717333D01*
X164075523Y-87812571D01*
X164075523Y-88336380D01*
X163456476Y-88336380D02*
X163551714Y-88288761D01*
X163599333Y-88241142D01*
X163646952Y-88145904D01*
X163646952Y-87860190D01*
X163599333Y-87764952D01*
X163551714Y-87717333D01*
X163456476Y-87669714D01*
X163313619Y-87669714D01*
X163218380Y-87717333D01*
X163170761Y-87764952D01*
X163123142Y-87860190D01*
X163123142Y-88145904D01*
X163170761Y-88241142D01*
X163218380Y-88288761D01*
X163313619Y-88336380D01*
X163456476Y-88336380D01*
X162837428Y-87669714D02*
X162456476Y-87669714D01*
X162694571Y-88336380D02*
X162694571Y-87479238D01*
X162646952Y-87384000D01*
X162551714Y-87336380D01*
X162456476Y-87336380D01*
X162266000Y-87669714D02*
X161885047Y-87669714D01*
X162123142Y-88336380D02*
X162123142Y-87479238D01*
X162075523Y-87384000D01*
X161980285Y-87336380D01*
X161885047Y-87336380D01*
X161123142Y-87669714D02*
X161123142Y-88479238D01*
X161170761Y-88574476D01*
X161218380Y-88622095D01*
X161313619Y-88669714D01*
X161456476Y-88669714D01*
X161551714Y-88622095D01*
X161123142Y-88288761D02*
X161218380Y-88336380D01*
X161408857Y-88336380D01*
X161504095Y-88288761D01*
X161551714Y-88241142D01*
X161599333Y-88145904D01*
X161599333Y-87860190D01*
X161551714Y-87764952D01*
X161504095Y-87717333D01*
X161408857Y-87669714D01*
X161218380Y-87669714D01*
X161123142Y-87717333D01*
X160646952Y-88336380D02*
X160646952Y-87669714D01*
X160646952Y-87860190D02*
X160599333Y-87764952D01*
X160551714Y-87717333D01*
X160456476Y-87669714D01*
X160361238Y-87669714D01*
X159885047Y-88336380D02*
X159980285Y-88288761D01*
X160027904Y-88241142D01*
X160075523Y-88145904D01*
X160075523Y-87860190D01*
X160027904Y-87764952D01*
X159980285Y-87717333D01*
X159885047Y-87669714D01*
X159742190Y-87669714D01*
X159646952Y-87717333D01*
X159599333Y-87764952D01*
X159551714Y-87860190D01*
X159551714Y-88145904D01*
X159599333Y-88241142D01*
X159646952Y-88288761D01*
X159742190Y-88336380D01*
X159885047Y-88336380D01*
X158980285Y-88336380D02*
X159075523Y-88288761D01*
X159123142Y-88241142D01*
X159170761Y-88145904D01*
X159170761Y-87860190D01*
X159123142Y-87764952D01*
X159075523Y-87717333D01*
X158980285Y-87669714D01*
X158837428Y-87669714D01*
X158742190Y-87717333D01*
X158694571Y-87764952D01*
X158646952Y-87860190D01*
X158646952Y-88145904D01*
X158694571Y-88241142D01*
X158742190Y-88288761D01*
X158837428Y-88336380D01*
X158980285Y-88336380D01*
X158313619Y-87669714D02*
X158075523Y-88336380D01*
X157837428Y-87669714D01*
X157075523Y-88288761D02*
X157170761Y-88336380D01*
X157361238Y-88336380D01*
X157456476Y-88288761D01*
X157504095Y-88193523D01*
X157504095Y-87812571D01*
X157456476Y-87717333D01*
X157361238Y-87669714D01*
X157170761Y-87669714D01*
X157075523Y-87717333D01*
X157027904Y-87812571D01*
X157027904Y-87907809D01*
X157504095Y-88003047D01*
X156599333Y-88241142D02*
X156551714Y-88288761D01*
X156599333Y-88336380D01*
X156646952Y-88288761D01*
X156599333Y-88241142D01*
X156599333Y-88336380D01*
X155694571Y-88288761D02*
X155789809Y-88336380D01*
X155980285Y-88336380D01*
X156075523Y-88288761D01*
X156123142Y-88241142D01*
X156170761Y-88145904D01*
X156170761Y-87860190D01*
X156123142Y-87764952D01*
X156075523Y-87717333D01*
X155980285Y-87669714D01*
X155789809Y-87669714D01*
X155694571Y-87717333D01*
X155123142Y-88336380D02*
X155218380Y-88288761D01*
X155266000Y-88241142D01*
X155313619Y-88145904D01*
X155313619Y-87860190D01*
X155266000Y-87764952D01*
X155218380Y-87717333D01*
X155123142Y-87669714D01*
X154980285Y-87669714D01*
X154885047Y-87717333D01*
X154837428Y-87764952D01*
X154789809Y-87860190D01*
X154789809Y-88145904D01*
X154837428Y-88241142D01*
X154885047Y-88288761D01*
X154980285Y-88336380D01*
X155123142Y-88336380D01*
X154361238Y-88336380D02*
X154361238Y-87669714D01*
X154361238Y-87764952D02*
X154313619Y-87717333D01*
X154218380Y-87669714D01*
X154075523Y-87669714D01*
X153980285Y-87717333D01*
X153932666Y-87812571D01*
X153932666Y-88336380D01*
X153932666Y-87812571D02*
X153885047Y-87717333D01*
X153789809Y-87669714D01*
X153646952Y-87669714D01*
X153551714Y-87717333D01*
X153504095Y-87812571D01*
X153504095Y-88336380D01*
D11*
X164520000Y-85284571D02*
X163662857Y-85284571D01*
X164091428Y-86784571D02*
X164091428Y-85284571D01*
X163162857Y-86784571D02*
X163162857Y-85784571D01*
X163162857Y-86070285D02*
X163091428Y-85927428D01*
X163020000Y-85856000D01*
X162877142Y-85784571D01*
X162734285Y-85784571D01*
X162234285Y-86784571D02*
X162234285Y-85784571D01*
X162234285Y-85284571D02*
X162305714Y-85356000D01*
X162234285Y-85427428D01*
X162162857Y-85356000D01*
X162234285Y-85284571D01*
X162234285Y-85427428D01*
X161520000Y-86213142D02*
X160377142Y-86213142D01*
X159877142Y-85284571D02*
X159377142Y-86784571D01*
X158877142Y-85284571D01*
X158377142Y-86784571D02*
X158377142Y-85784571D01*
X158377142Y-85284571D02*
X158448571Y-85356000D01*
X158377142Y-85427428D01*
X158305714Y-85356000D01*
X158377142Y-85284571D01*
X158377142Y-85427428D01*
X157662857Y-86784571D02*
X157662857Y-85284571D01*
X157662857Y-85856000D02*
X157520000Y-85784571D01*
X157234285Y-85784571D01*
X157091428Y-85856000D01*
X157020000Y-85927428D01*
X156948571Y-86070285D01*
X156948571Y-86498857D01*
X157020000Y-86641714D01*
X157091428Y-86713142D01*
X157234285Y-86784571D01*
X157520000Y-86784571D01*
X157662857Y-86713142D01*
X155734285Y-86713142D02*
X155877142Y-86784571D01*
X156162857Y-86784571D01*
X156305714Y-86713142D01*
X156377142Y-86570285D01*
X156377142Y-85998857D01*
X156305714Y-85856000D01*
X156162857Y-85784571D01*
X155877142Y-85784571D01*
X155734285Y-85856000D01*
X155662857Y-85998857D01*
X155662857Y-86141714D01*
X156377142Y-86284571D01*
D12*
%TO.C,C16*%
X161066775Y-108765000D02*
X161066775Y-109265000D01*
X161316775Y-109015000D02*
X160816775Y-109015000D01*
X155911000Y-110206000D02*
X155911000Y-110774000D01*
X155951000Y-109972000D02*
X155951000Y-111008000D01*
X155991000Y-109813000D02*
X155991000Y-111167000D01*
X156031000Y-109685000D02*
X156031000Y-111295000D01*
X156071000Y-109575000D02*
X156071000Y-111405000D01*
X156111000Y-109479000D02*
X156111000Y-111501000D01*
X156151000Y-109392000D02*
X156151000Y-111588000D01*
X156191000Y-109312000D02*
X156191000Y-111668000D01*
X156231000Y-109239000D02*
X156231000Y-111741000D01*
X156271000Y-109171000D02*
X156271000Y-111809000D01*
X156311000Y-109107000D02*
X156311000Y-111873000D01*
X156351000Y-109047000D02*
X156351000Y-111933000D01*
X156391000Y-108990000D02*
X156391000Y-111990000D01*
X156431000Y-108936000D02*
X156431000Y-112044000D01*
X156471000Y-108885000D02*
X156471000Y-112095000D01*
X156511000Y-111530000D02*
X156511000Y-112143000D01*
X156511000Y-108837000D02*
X156511000Y-109450000D01*
X156551000Y-111530000D02*
X156551000Y-112189000D01*
X156551000Y-108791000D02*
X156551000Y-109450000D01*
X156591000Y-111530000D02*
X156591000Y-112233000D01*
X156591000Y-108747000D02*
X156591000Y-109450000D01*
X156631000Y-111530000D02*
X156631000Y-112275000D01*
X156631000Y-108705000D02*
X156631000Y-109450000D01*
X156671000Y-111530000D02*
X156671000Y-112316000D01*
X156671000Y-108664000D02*
X156671000Y-109450000D01*
X156711000Y-111530000D02*
X156711000Y-112354000D01*
X156711000Y-108626000D02*
X156711000Y-109450000D01*
X156751000Y-111530000D02*
X156751000Y-112391000D01*
X156751000Y-108589000D02*
X156751000Y-109450000D01*
X156791000Y-111530000D02*
X156791000Y-112427000D01*
X156791000Y-108553000D02*
X156791000Y-109450000D01*
X156831000Y-111530000D02*
X156831000Y-112461000D01*
X156831000Y-108519000D02*
X156831000Y-109450000D01*
X156871000Y-111530000D02*
X156871000Y-112494000D01*
X156871000Y-108486000D02*
X156871000Y-109450000D01*
X156911000Y-111530000D02*
X156911000Y-112525000D01*
X156911000Y-108455000D02*
X156911000Y-109450000D01*
X156951000Y-111530000D02*
X156951000Y-112555000D01*
X156951000Y-108425000D02*
X156951000Y-109450000D01*
X156991000Y-111530000D02*
X156991000Y-112585000D01*
X156991000Y-108395000D02*
X156991000Y-109450000D01*
X157031000Y-111530000D02*
X157031000Y-112612000D01*
X157031000Y-108368000D02*
X157031000Y-109450000D01*
X157071000Y-111530000D02*
X157071000Y-112639000D01*
X157071000Y-108341000D02*
X157071000Y-109450000D01*
X157111000Y-111530000D02*
X157111000Y-112665000D01*
X157111000Y-108315000D02*
X157111000Y-109450000D01*
X157151000Y-111530000D02*
X157151000Y-112690000D01*
X157151000Y-108290000D02*
X157151000Y-109450000D01*
X157191000Y-111530000D02*
X157191000Y-112714000D01*
X157191000Y-108266000D02*
X157191000Y-109450000D01*
X157231000Y-111530000D02*
X157231000Y-112737000D01*
X157231000Y-108243000D02*
X157231000Y-109450000D01*
X157271000Y-111530000D02*
X157271000Y-112758000D01*
X157271000Y-108222000D02*
X157271000Y-109450000D01*
X157311000Y-111530000D02*
X157311000Y-112780000D01*
X157311000Y-108200000D02*
X157311000Y-109450000D01*
X157351000Y-111530000D02*
X157351000Y-112800000D01*
X157351000Y-108180000D02*
X157351000Y-109450000D01*
X157391000Y-111530000D02*
X157391000Y-112819000D01*
X157391000Y-108161000D02*
X157391000Y-109450000D01*
X157431000Y-111530000D02*
X157431000Y-112838000D01*
X157431000Y-108142000D02*
X157431000Y-109450000D01*
X157471000Y-111530000D02*
X157471000Y-112855000D01*
X157471000Y-108125000D02*
X157471000Y-109450000D01*
X157511000Y-111530000D02*
X157511000Y-112872000D01*
X157511000Y-108108000D02*
X157511000Y-109450000D01*
X157551000Y-111530000D02*
X157551000Y-112888000D01*
X157551000Y-108092000D02*
X157551000Y-109450000D01*
X157591000Y-111530000D02*
X157591000Y-112904000D01*
X157591000Y-108076000D02*
X157591000Y-109450000D01*
X157631000Y-111530000D02*
X157631000Y-112918000D01*
X157631000Y-108062000D02*
X157631000Y-109450000D01*
X157671000Y-111530000D02*
X157671000Y-112932000D01*
X157671000Y-108048000D02*
X157671000Y-109450000D01*
X157711000Y-111530000D02*
X157711000Y-112945000D01*
X157711000Y-108035000D02*
X157711000Y-109450000D01*
X157751000Y-111530000D02*
X157751000Y-112958000D01*
X157751000Y-108022000D02*
X157751000Y-109450000D01*
X157791000Y-111530000D02*
X157791000Y-112970000D01*
X157791000Y-108010000D02*
X157791000Y-109450000D01*
X157832000Y-111530000D02*
X157832000Y-112981000D01*
X157832000Y-107999000D02*
X157832000Y-109450000D01*
X157872000Y-111530000D02*
X157872000Y-112991000D01*
X157872000Y-107989000D02*
X157872000Y-109450000D01*
X157912000Y-111530000D02*
X157912000Y-113001000D01*
X157912000Y-107979000D02*
X157912000Y-109450000D01*
X157952000Y-111530000D02*
X157952000Y-113010000D01*
X157952000Y-107970000D02*
X157952000Y-109450000D01*
X157992000Y-111530000D02*
X157992000Y-113018000D01*
X157992000Y-107962000D02*
X157992000Y-109450000D01*
X158032000Y-111530000D02*
X158032000Y-113026000D01*
X158032000Y-107954000D02*
X158032000Y-109450000D01*
X158072000Y-111530000D02*
X158072000Y-113033000D01*
X158072000Y-107947000D02*
X158072000Y-109450000D01*
X158112000Y-111530000D02*
X158112000Y-113040000D01*
X158112000Y-107940000D02*
X158112000Y-109450000D01*
X158152000Y-111530000D02*
X158152000Y-113046000D01*
X158152000Y-107934000D02*
X158152000Y-109450000D01*
X158192000Y-111530000D02*
X158192000Y-113051000D01*
X158192000Y-107929000D02*
X158192000Y-109450000D01*
X158232000Y-111530000D02*
X158232000Y-113055000D01*
X158232000Y-107925000D02*
X158232000Y-109450000D01*
X158272000Y-111530000D02*
X158272000Y-113059000D01*
X158272000Y-107921000D02*
X158272000Y-109450000D01*
X158312000Y-111530000D02*
X158312000Y-113063000D01*
X158312000Y-107917000D02*
X158312000Y-109450000D01*
X158352000Y-111530000D02*
X158352000Y-113066000D01*
X158352000Y-107914000D02*
X158352000Y-109450000D01*
X158392000Y-111530000D02*
X158392000Y-113068000D01*
X158392000Y-107912000D02*
X158392000Y-109450000D01*
X158432000Y-111530000D02*
X158432000Y-113069000D01*
X158432000Y-107911000D02*
X158432000Y-109450000D01*
X158472000Y-107910000D02*
X158472000Y-109450000D01*
X158472000Y-111530000D02*
X158472000Y-113070000D01*
X158512000Y-107910000D02*
X158512000Y-109450000D01*
X158512000Y-111530000D02*
X158512000Y-113070000D01*
X161132000Y-110490000D02*
G75*
G03*
X161132000Y-110490000I-2620000J0D01*
G01*
%TO.C,R41*%
X131078500Y-105680742D02*
X131078500Y-106155258D01*
X130033500Y-105680742D02*
X130033500Y-106155258D01*
%TO.C,R22*%
X152670742Y-101077500D02*
X153145258Y-101077500D01*
X152670742Y-102122500D02*
X153145258Y-102122500D01*
%TO.C,C15*%
X137244000Y-102820000D02*
X137244000Y-95380000D01*
X132504000Y-102820000D02*
X132504000Y-95380000D01*
X137244000Y-102820000D02*
X132504000Y-102820000D01*
X137244000Y-95380000D02*
X132504000Y-95380000D01*
%TO.C,C12*%
X152767420Y-102868000D02*
X153048580Y-102868000D01*
X152767420Y-103888000D02*
X153048580Y-103888000D01*
%TO.C,C11*%
X159608000Y-81788000D02*
G75*
G03*
X159608000Y-81788000I-2620000J0D01*
G01*
%TO.C,C10*%
X152430775Y-108765000D02*
X152430775Y-109265000D01*
X152680775Y-109015000D02*
X152180775Y-109015000D01*
X147275000Y-110206000D02*
X147275000Y-110774000D01*
X147315000Y-109972000D02*
X147315000Y-111008000D01*
X147355000Y-109813000D02*
X147355000Y-111167000D01*
X147395000Y-109685000D02*
X147395000Y-111295000D01*
X147435000Y-109575000D02*
X147435000Y-111405000D01*
X147475000Y-109479000D02*
X147475000Y-111501000D01*
X147515000Y-109392000D02*
X147515000Y-111588000D01*
X147555000Y-109312000D02*
X147555000Y-111668000D01*
X147595000Y-109239000D02*
X147595000Y-111741000D01*
X147635000Y-109171000D02*
X147635000Y-111809000D01*
X147675000Y-109107000D02*
X147675000Y-111873000D01*
X147715000Y-109047000D02*
X147715000Y-111933000D01*
X147755000Y-108990000D02*
X147755000Y-111990000D01*
X147795000Y-108936000D02*
X147795000Y-112044000D01*
X147835000Y-108885000D02*
X147835000Y-112095000D01*
X147875000Y-111530000D02*
X147875000Y-112143000D01*
X147875000Y-108837000D02*
X147875000Y-109450000D01*
X147915000Y-111530000D02*
X147915000Y-112189000D01*
X147915000Y-108791000D02*
X147915000Y-109450000D01*
X147955000Y-111530000D02*
X147955000Y-112233000D01*
X147955000Y-108747000D02*
X147955000Y-109450000D01*
X147995000Y-111530000D02*
X147995000Y-112275000D01*
X147995000Y-108705000D02*
X147995000Y-109450000D01*
X148035000Y-111530000D02*
X148035000Y-112316000D01*
X148035000Y-108664000D02*
X148035000Y-109450000D01*
X148075000Y-111530000D02*
X148075000Y-112354000D01*
X148075000Y-108626000D02*
X148075000Y-109450000D01*
X148115000Y-111530000D02*
X148115000Y-112391000D01*
X148115000Y-108589000D02*
X148115000Y-109450000D01*
X148155000Y-111530000D02*
X148155000Y-112427000D01*
X148155000Y-108553000D02*
X148155000Y-109450000D01*
X148195000Y-111530000D02*
X148195000Y-112461000D01*
X148195000Y-108519000D02*
X148195000Y-109450000D01*
X148235000Y-111530000D02*
X148235000Y-112494000D01*
X148235000Y-108486000D02*
X148235000Y-109450000D01*
X148275000Y-111530000D02*
X148275000Y-112525000D01*
X148275000Y-108455000D02*
X148275000Y-109450000D01*
X148315000Y-111530000D02*
X148315000Y-112555000D01*
X148315000Y-108425000D02*
X148315000Y-109450000D01*
X148355000Y-111530000D02*
X148355000Y-112585000D01*
X148355000Y-108395000D02*
X148355000Y-109450000D01*
X148395000Y-111530000D02*
X148395000Y-112612000D01*
X148395000Y-108368000D02*
X148395000Y-109450000D01*
X148435000Y-111530000D02*
X148435000Y-112639000D01*
X148435000Y-108341000D02*
X148435000Y-109450000D01*
X148475000Y-111530000D02*
X148475000Y-112665000D01*
X148475000Y-108315000D02*
X148475000Y-109450000D01*
X148515000Y-111530000D02*
X148515000Y-112690000D01*
X148515000Y-108290000D02*
X148515000Y-109450000D01*
X148555000Y-111530000D02*
X148555000Y-112714000D01*
X148555000Y-108266000D02*
X148555000Y-109450000D01*
X148595000Y-111530000D02*
X148595000Y-112737000D01*
X148595000Y-108243000D02*
X148595000Y-109450000D01*
X148635000Y-111530000D02*
X148635000Y-112758000D01*
X148635000Y-108222000D02*
X148635000Y-109450000D01*
X148675000Y-111530000D02*
X148675000Y-112780000D01*
X148675000Y-108200000D02*
X148675000Y-109450000D01*
X148715000Y-111530000D02*
X148715000Y-112800000D01*
X148715000Y-108180000D02*
X148715000Y-109450000D01*
X148755000Y-111530000D02*
X148755000Y-112819000D01*
X148755000Y-108161000D02*
X148755000Y-109450000D01*
X148795000Y-111530000D02*
X148795000Y-112838000D01*
X148795000Y-108142000D02*
X148795000Y-109450000D01*
X148835000Y-111530000D02*
X148835000Y-112855000D01*
X148835000Y-108125000D02*
X148835000Y-109450000D01*
X148875000Y-111530000D02*
X148875000Y-112872000D01*
X148875000Y-108108000D02*
X148875000Y-109450000D01*
X148915000Y-111530000D02*
X148915000Y-112888000D01*
X148915000Y-108092000D02*
X148915000Y-109450000D01*
X148955000Y-111530000D02*
X148955000Y-112904000D01*
X148955000Y-108076000D02*
X148955000Y-109450000D01*
X148995000Y-111530000D02*
X148995000Y-112918000D01*
X148995000Y-108062000D02*
X148995000Y-109450000D01*
X149035000Y-111530000D02*
X149035000Y-112932000D01*
X149035000Y-108048000D02*
X149035000Y-109450000D01*
X149075000Y-111530000D02*
X149075000Y-112945000D01*
X149075000Y-108035000D02*
X149075000Y-109450000D01*
X149115000Y-111530000D02*
X149115000Y-112958000D01*
X149115000Y-108022000D02*
X149115000Y-109450000D01*
X149155000Y-111530000D02*
X149155000Y-112970000D01*
X149155000Y-108010000D02*
X149155000Y-109450000D01*
X149196000Y-111530000D02*
X149196000Y-112981000D01*
X149196000Y-107999000D02*
X149196000Y-109450000D01*
X149236000Y-111530000D02*
X149236000Y-112991000D01*
X149236000Y-107989000D02*
X149236000Y-109450000D01*
X149276000Y-111530000D02*
X149276000Y-113001000D01*
X149276000Y-107979000D02*
X149276000Y-109450000D01*
X149316000Y-111530000D02*
X149316000Y-113010000D01*
X149316000Y-107970000D02*
X149316000Y-109450000D01*
X149356000Y-111530000D02*
X149356000Y-113018000D01*
X149356000Y-107962000D02*
X149356000Y-109450000D01*
X149396000Y-111530000D02*
X149396000Y-113026000D01*
X149396000Y-107954000D02*
X149396000Y-109450000D01*
X149436000Y-111530000D02*
X149436000Y-113033000D01*
X149436000Y-107947000D02*
X149436000Y-109450000D01*
X149476000Y-111530000D02*
X149476000Y-113040000D01*
X149476000Y-107940000D02*
X149476000Y-109450000D01*
X149516000Y-111530000D02*
X149516000Y-113046000D01*
X149516000Y-107934000D02*
X149516000Y-109450000D01*
X149556000Y-111530000D02*
X149556000Y-113051000D01*
X149556000Y-107929000D02*
X149556000Y-109450000D01*
X149596000Y-111530000D02*
X149596000Y-113055000D01*
X149596000Y-107925000D02*
X149596000Y-109450000D01*
X149636000Y-111530000D02*
X149636000Y-113059000D01*
X149636000Y-107921000D02*
X149636000Y-109450000D01*
X149676000Y-111530000D02*
X149676000Y-113063000D01*
X149676000Y-107917000D02*
X149676000Y-109450000D01*
X149716000Y-111530000D02*
X149716000Y-113066000D01*
X149716000Y-107914000D02*
X149716000Y-109450000D01*
X149756000Y-111530000D02*
X149756000Y-113068000D01*
X149756000Y-107912000D02*
X149756000Y-109450000D01*
X149796000Y-111530000D02*
X149796000Y-113069000D01*
X149796000Y-107911000D02*
X149796000Y-109450000D01*
X149836000Y-107910000D02*
X149836000Y-109450000D01*
X149836000Y-111530000D02*
X149836000Y-113070000D01*
X149876000Y-107910000D02*
X149876000Y-109450000D01*
X149876000Y-111530000D02*
X149876000Y-113070000D01*
X152496000Y-110490000D02*
G75*
G03*
X152496000Y-110490000I-2620000J0D01*
G01*
%TO.C,C8*%
X144473000Y-86898775D02*
X143973000Y-86898775D01*
X144223000Y-87148775D02*
X144223000Y-86648775D01*
X143032000Y-81743000D02*
X142464000Y-81743000D01*
X143266000Y-81783000D02*
X142230000Y-81783000D01*
X143425000Y-81823000D02*
X142071000Y-81823000D01*
X143553000Y-81863000D02*
X141943000Y-81863000D01*
X143663000Y-81903000D02*
X141833000Y-81903000D01*
X143759000Y-81943000D02*
X141737000Y-81943000D01*
X143846000Y-81983000D02*
X141650000Y-81983000D01*
X143926000Y-82023000D02*
X141570000Y-82023000D01*
X143999000Y-82063000D02*
X141497000Y-82063000D01*
X144067000Y-82103000D02*
X141429000Y-82103000D01*
X144131000Y-82143000D02*
X141365000Y-82143000D01*
X144191000Y-82183000D02*
X141305000Y-82183000D01*
X144248000Y-82223000D02*
X141248000Y-82223000D01*
X144302000Y-82263000D02*
X141194000Y-82263000D01*
X144353000Y-82303000D02*
X141143000Y-82303000D01*
X141708000Y-82343000D02*
X141095000Y-82343000D01*
X144401000Y-82343000D02*
X143788000Y-82343000D01*
X141708000Y-82383000D02*
X141049000Y-82383000D01*
X144447000Y-82383000D02*
X143788000Y-82383000D01*
X141708000Y-82423000D02*
X141005000Y-82423000D01*
X144491000Y-82423000D02*
X143788000Y-82423000D01*
X141708000Y-82463000D02*
X140963000Y-82463000D01*
X144533000Y-82463000D02*
X143788000Y-82463000D01*
X141708000Y-82503000D02*
X140922000Y-82503000D01*
X144574000Y-82503000D02*
X143788000Y-82503000D01*
X141708000Y-82543000D02*
X140884000Y-82543000D01*
X144612000Y-82543000D02*
X143788000Y-82543000D01*
X141708000Y-82583000D02*
X140847000Y-82583000D01*
X144649000Y-82583000D02*
X143788000Y-82583000D01*
X141708000Y-82623000D02*
X140811000Y-82623000D01*
X144685000Y-82623000D02*
X143788000Y-82623000D01*
X141708000Y-82663000D02*
X140777000Y-82663000D01*
X144719000Y-82663000D02*
X143788000Y-82663000D01*
X141708000Y-82703000D02*
X140744000Y-82703000D01*
X144752000Y-82703000D02*
X143788000Y-82703000D01*
X141708000Y-82743000D02*
X140713000Y-82743000D01*
X144783000Y-82743000D02*
X143788000Y-82743000D01*
X141708000Y-82783000D02*
X140683000Y-82783000D01*
X144813000Y-82783000D02*
X143788000Y-82783000D01*
X141708000Y-82823000D02*
X140653000Y-82823000D01*
X144843000Y-82823000D02*
X143788000Y-82823000D01*
X141708000Y-82863000D02*
X140626000Y-82863000D01*
X144870000Y-82863000D02*
X143788000Y-82863000D01*
X141708000Y-82903000D02*
X140599000Y-82903000D01*
X144897000Y-82903000D02*
X143788000Y-82903000D01*
X141708000Y-82943000D02*
X140573000Y-82943000D01*
X144923000Y-82943000D02*
X143788000Y-82943000D01*
X141708000Y-82983000D02*
X140548000Y-82983000D01*
X144948000Y-82983000D02*
X143788000Y-82983000D01*
X141708000Y-83023000D02*
X140524000Y-83023000D01*
X144972000Y-83023000D02*
X143788000Y-83023000D01*
X141708000Y-83063000D02*
X140501000Y-83063000D01*
X144995000Y-83063000D02*
X143788000Y-83063000D01*
X141708000Y-83103000D02*
X140480000Y-83103000D01*
X145016000Y-83103000D02*
X143788000Y-83103000D01*
X141708000Y-83143000D02*
X140458000Y-83143000D01*
X145038000Y-83143000D02*
X143788000Y-83143000D01*
X141708000Y-83183000D02*
X140438000Y-83183000D01*
X145058000Y-83183000D02*
X143788000Y-83183000D01*
X141708000Y-83223000D02*
X140419000Y-83223000D01*
X145077000Y-83223000D02*
X143788000Y-83223000D01*
X141708000Y-83263000D02*
X140400000Y-83263000D01*
X145096000Y-83263000D02*
X143788000Y-83263000D01*
X141708000Y-83303000D02*
X140383000Y-83303000D01*
X145113000Y-83303000D02*
X143788000Y-83303000D01*
X141708000Y-83343000D02*
X140366000Y-83343000D01*
X145130000Y-83343000D02*
X143788000Y-83343000D01*
X141708000Y-83383000D02*
X140350000Y-83383000D01*
X145146000Y-83383000D02*
X143788000Y-83383000D01*
X141708000Y-83423000D02*
X140334000Y-83423000D01*
X145162000Y-83423000D02*
X143788000Y-83423000D01*
X141708000Y-83463000D02*
X140320000Y-83463000D01*
X145176000Y-83463000D02*
X143788000Y-83463000D01*
X141708000Y-83503000D02*
X140306000Y-83503000D01*
X145190000Y-83503000D02*
X143788000Y-83503000D01*
X141708000Y-83543000D02*
X140293000Y-83543000D01*
X145203000Y-83543000D02*
X143788000Y-83543000D01*
X141708000Y-83583000D02*
X140280000Y-83583000D01*
X145216000Y-83583000D02*
X143788000Y-83583000D01*
X141708000Y-83623000D02*
X140268000Y-83623000D01*
X145228000Y-83623000D02*
X143788000Y-83623000D01*
X141708000Y-83664000D02*
X140257000Y-83664000D01*
X145239000Y-83664000D02*
X143788000Y-83664000D01*
X141708000Y-83704000D02*
X140247000Y-83704000D01*
X145249000Y-83704000D02*
X143788000Y-83704000D01*
X141708000Y-83744000D02*
X140237000Y-83744000D01*
X145259000Y-83744000D02*
X143788000Y-83744000D01*
X141708000Y-83784000D02*
X140228000Y-83784000D01*
X145268000Y-83784000D02*
X143788000Y-83784000D01*
X141708000Y-83824000D02*
X140220000Y-83824000D01*
X145276000Y-83824000D02*
X143788000Y-83824000D01*
X141708000Y-83864000D02*
X140212000Y-83864000D01*
X145284000Y-83864000D02*
X143788000Y-83864000D01*
X141708000Y-83904000D02*
X140205000Y-83904000D01*
X145291000Y-83904000D02*
X143788000Y-83904000D01*
X141708000Y-83944000D02*
X140198000Y-83944000D01*
X145298000Y-83944000D02*
X143788000Y-83944000D01*
X141708000Y-83984000D02*
X140192000Y-83984000D01*
X145304000Y-83984000D02*
X143788000Y-83984000D01*
X141708000Y-84024000D02*
X140187000Y-84024000D01*
X145309000Y-84024000D02*
X143788000Y-84024000D01*
X141708000Y-84064000D02*
X140183000Y-84064000D01*
X145313000Y-84064000D02*
X143788000Y-84064000D01*
X141708000Y-84104000D02*
X140179000Y-84104000D01*
X145317000Y-84104000D02*
X143788000Y-84104000D01*
X141708000Y-84144000D02*
X140175000Y-84144000D01*
X145321000Y-84144000D02*
X143788000Y-84144000D01*
X141708000Y-84184000D02*
X140172000Y-84184000D01*
X145324000Y-84184000D02*
X143788000Y-84184000D01*
X141708000Y-84224000D02*
X140170000Y-84224000D01*
X145326000Y-84224000D02*
X143788000Y-84224000D01*
X141708000Y-84264000D02*
X140169000Y-84264000D01*
X145327000Y-84264000D02*
X143788000Y-84264000D01*
X145328000Y-84304000D02*
X143788000Y-84304000D01*
X141708000Y-84304000D02*
X140168000Y-84304000D01*
X145328000Y-84344000D02*
X143788000Y-84344000D01*
X141708000Y-84344000D02*
X140168000Y-84344000D01*
X145368000Y-84344000D02*
G75*
G03*
X145368000Y-84344000I-2620000J0D01*
G01*
%TO.C,C7*%
X162406000Y-102312000D02*
X162406000Y-94872000D01*
X159666000Y-102312000D02*
X159666000Y-94872000D01*
X162406000Y-102312000D02*
X159666000Y-102312000D01*
X162406000Y-94872000D02*
X159666000Y-94872000D01*
%TO.C,C6*%
X144302775Y-108765000D02*
X144302775Y-109265000D01*
X144552775Y-109015000D02*
X144052775Y-109015000D01*
X139147000Y-110206000D02*
X139147000Y-110774000D01*
X139187000Y-109972000D02*
X139187000Y-111008000D01*
X139227000Y-109813000D02*
X139227000Y-111167000D01*
X139267000Y-109685000D02*
X139267000Y-111295000D01*
X139307000Y-109575000D02*
X139307000Y-111405000D01*
X139347000Y-109479000D02*
X139347000Y-111501000D01*
X139387000Y-109392000D02*
X139387000Y-111588000D01*
X139427000Y-109312000D02*
X139427000Y-111668000D01*
X139467000Y-109239000D02*
X139467000Y-111741000D01*
X139507000Y-109171000D02*
X139507000Y-111809000D01*
X139547000Y-109107000D02*
X139547000Y-111873000D01*
X139587000Y-109047000D02*
X139587000Y-111933000D01*
X139627000Y-108990000D02*
X139627000Y-111990000D01*
X139667000Y-108936000D02*
X139667000Y-112044000D01*
X139707000Y-108885000D02*
X139707000Y-112095000D01*
X139747000Y-111530000D02*
X139747000Y-112143000D01*
X139747000Y-108837000D02*
X139747000Y-109450000D01*
X139787000Y-111530000D02*
X139787000Y-112189000D01*
X139787000Y-108791000D02*
X139787000Y-109450000D01*
X139827000Y-111530000D02*
X139827000Y-112233000D01*
X139827000Y-108747000D02*
X139827000Y-109450000D01*
X139867000Y-111530000D02*
X139867000Y-112275000D01*
X139867000Y-108705000D02*
X139867000Y-109450000D01*
X139907000Y-111530000D02*
X139907000Y-112316000D01*
X139907000Y-108664000D02*
X139907000Y-109450000D01*
X139947000Y-111530000D02*
X139947000Y-112354000D01*
X139947000Y-108626000D02*
X139947000Y-109450000D01*
X139987000Y-111530000D02*
X139987000Y-112391000D01*
X139987000Y-108589000D02*
X139987000Y-109450000D01*
X140027000Y-111530000D02*
X140027000Y-112427000D01*
X140027000Y-108553000D02*
X140027000Y-109450000D01*
X140067000Y-111530000D02*
X140067000Y-112461000D01*
X140067000Y-108519000D02*
X140067000Y-109450000D01*
X140107000Y-111530000D02*
X140107000Y-112494000D01*
X140107000Y-108486000D02*
X140107000Y-109450000D01*
X140147000Y-111530000D02*
X140147000Y-112525000D01*
X140147000Y-108455000D02*
X140147000Y-109450000D01*
X140187000Y-111530000D02*
X140187000Y-112555000D01*
X140187000Y-108425000D02*
X140187000Y-109450000D01*
X140227000Y-111530000D02*
X140227000Y-112585000D01*
X140227000Y-108395000D02*
X140227000Y-109450000D01*
X140267000Y-111530000D02*
X140267000Y-112612000D01*
X140267000Y-108368000D02*
X140267000Y-109450000D01*
X140307000Y-111530000D02*
X140307000Y-112639000D01*
X140307000Y-108341000D02*
X140307000Y-109450000D01*
X140347000Y-111530000D02*
X140347000Y-112665000D01*
X140347000Y-108315000D02*
X140347000Y-109450000D01*
X140387000Y-111530000D02*
X140387000Y-112690000D01*
X140387000Y-108290000D02*
X140387000Y-109450000D01*
X140427000Y-111530000D02*
X140427000Y-112714000D01*
X140427000Y-108266000D02*
X140427000Y-109450000D01*
X140467000Y-111530000D02*
X140467000Y-112737000D01*
X140467000Y-108243000D02*
X140467000Y-109450000D01*
X140507000Y-111530000D02*
X140507000Y-112758000D01*
X140507000Y-108222000D02*
X140507000Y-109450000D01*
X140547000Y-111530000D02*
X140547000Y-112780000D01*
X140547000Y-108200000D02*
X140547000Y-109450000D01*
X140587000Y-111530000D02*
X140587000Y-112800000D01*
X140587000Y-108180000D02*
X140587000Y-109450000D01*
X140627000Y-111530000D02*
X140627000Y-112819000D01*
X140627000Y-108161000D02*
X140627000Y-109450000D01*
X140667000Y-111530000D02*
X140667000Y-112838000D01*
X140667000Y-108142000D02*
X140667000Y-109450000D01*
X140707000Y-111530000D02*
X140707000Y-112855000D01*
X140707000Y-108125000D02*
X140707000Y-109450000D01*
X140747000Y-111530000D02*
X140747000Y-112872000D01*
X140747000Y-108108000D02*
X140747000Y-109450000D01*
X140787000Y-111530000D02*
X140787000Y-112888000D01*
X140787000Y-108092000D02*
X140787000Y-109450000D01*
X140827000Y-111530000D02*
X140827000Y-112904000D01*
X140827000Y-108076000D02*
X140827000Y-109450000D01*
X140867000Y-111530000D02*
X140867000Y-112918000D01*
X140867000Y-108062000D02*
X140867000Y-109450000D01*
X140907000Y-111530000D02*
X140907000Y-112932000D01*
X140907000Y-108048000D02*
X140907000Y-109450000D01*
X140947000Y-111530000D02*
X140947000Y-112945000D01*
X140947000Y-108035000D02*
X140947000Y-109450000D01*
X140987000Y-111530000D02*
X140987000Y-112958000D01*
X140987000Y-108022000D02*
X140987000Y-109450000D01*
X141027000Y-111530000D02*
X141027000Y-112970000D01*
X141027000Y-108010000D02*
X141027000Y-109450000D01*
X141068000Y-111530000D02*
X141068000Y-112981000D01*
X141068000Y-107999000D02*
X141068000Y-109450000D01*
X141108000Y-111530000D02*
X141108000Y-112991000D01*
X141108000Y-107989000D02*
X141108000Y-109450000D01*
X141148000Y-111530000D02*
X141148000Y-113001000D01*
X141148000Y-107979000D02*
X141148000Y-109450000D01*
X141188000Y-111530000D02*
X141188000Y-113010000D01*
X141188000Y-107970000D02*
X141188000Y-109450000D01*
X141228000Y-111530000D02*
X141228000Y-113018000D01*
X141228000Y-107962000D02*
X141228000Y-109450000D01*
X141268000Y-111530000D02*
X141268000Y-113026000D01*
X141268000Y-107954000D02*
X141268000Y-109450000D01*
X141308000Y-111530000D02*
X141308000Y-113033000D01*
X141308000Y-107947000D02*
X141308000Y-109450000D01*
X141348000Y-111530000D02*
X141348000Y-113040000D01*
X141348000Y-107940000D02*
X141348000Y-109450000D01*
X141388000Y-111530000D02*
X141388000Y-113046000D01*
X141388000Y-107934000D02*
X141388000Y-109450000D01*
X141428000Y-111530000D02*
X141428000Y-113051000D01*
X141428000Y-107929000D02*
X141428000Y-109450000D01*
X141468000Y-111530000D02*
X141468000Y-113055000D01*
X141468000Y-107925000D02*
X141468000Y-109450000D01*
X141508000Y-111530000D02*
X141508000Y-113059000D01*
X141508000Y-107921000D02*
X141508000Y-109450000D01*
X141548000Y-111530000D02*
X141548000Y-113063000D01*
X141548000Y-107917000D02*
X141548000Y-109450000D01*
X141588000Y-111530000D02*
X141588000Y-113066000D01*
X141588000Y-107914000D02*
X141588000Y-109450000D01*
X141628000Y-111530000D02*
X141628000Y-113068000D01*
X141628000Y-107912000D02*
X141628000Y-109450000D01*
X141668000Y-111530000D02*
X141668000Y-113069000D01*
X141668000Y-107911000D02*
X141668000Y-109450000D01*
X141708000Y-107910000D02*
X141708000Y-109450000D01*
X141708000Y-111530000D02*
X141708000Y-113070000D01*
X141748000Y-107910000D02*
X141748000Y-109450000D01*
X141748000Y-111530000D02*
X141748000Y-113070000D01*
X144368000Y-110490000D02*
G75*
G03*
X144368000Y-110490000I-2620000J0D01*
G01*
%TO.C,C5*%
X139526000Y-82550000D02*
G75*
G03*
X139526000Y-82550000I-5120000J0D01*
G01*
X134406000Y-77470000D02*
X134406000Y-87630000D01*
X134366000Y-77470000D02*
X134366000Y-87630000D01*
X134326000Y-77470000D02*
X134326000Y-87630000D01*
X134286000Y-77471000D02*
X134286000Y-87629000D01*
X134246000Y-77472000D02*
X134246000Y-87628000D01*
X134206000Y-77473000D02*
X134206000Y-87627000D01*
X134166000Y-77475000D02*
X134166000Y-87625000D01*
X134126000Y-77477000D02*
X134126000Y-87623000D01*
X134086000Y-77480000D02*
X134086000Y-87620000D01*
X134046000Y-77482000D02*
X134046000Y-87618000D01*
X134006000Y-77485000D02*
X134006000Y-87615000D01*
X133966000Y-77488000D02*
X133966000Y-87612000D01*
X133926000Y-77492000D02*
X133926000Y-87608000D01*
X133886000Y-77496000D02*
X133886000Y-87604000D01*
X133846000Y-77500000D02*
X133846000Y-87600000D01*
X133806000Y-77505000D02*
X133806000Y-87595000D01*
X133766000Y-77510000D02*
X133766000Y-87590000D01*
X133726000Y-77515000D02*
X133726000Y-87585000D01*
X133685000Y-77520000D02*
X133685000Y-87580000D01*
X133645000Y-77526000D02*
X133645000Y-87574000D01*
X133605000Y-77532000D02*
X133605000Y-87568000D01*
X133565000Y-77539000D02*
X133565000Y-87561000D01*
X133525000Y-77546000D02*
X133525000Y-87554000D01*
X133485000Y-77553000D02*
X133485000Y-87547000D01*
X133445000Y-77560000D02*
X133445000Y-87540000D01*
X133405000Y-77568000D02*
X133405000Y-87532000D01*
X133365000Y-77576000D02*
X133365000Y-87524000D01*
X133325000Y-77585000D02*
X133325000Y-87515000D01*
X133285000Y-77594000D02*
X133285000Y-87506000D01*
X133245000Y-77603000D02*
X133245000Y-87497000D01*
X133205000Y-77612000D02*
X133205000Y-87488000D01*
X133165000Y-77622000D02*
X133165000Y-87478000D01*
X133125000Y-77632000D02*
X133125000Y-81309000D01*
X133125000Y-83791000D02*
X133125000Y-87468000D01*
X133085000Y-77643000D02*
X133085000Y-81309000D01*
X133085000Y-83791000D02*
X133085000Y-87457000D01*
X133045000Y-77653000D02*
X133045000Y-81309000D01*
X133045000Y-83791000D02*
X133045000Y-87447000D01*
X133005000Y-77665000D02*
X133005000Y-81309000D01*
X133005000Y-83791000D02*
X133005000Y-87435000D01*
X132965000Y-77676000D02*
X132965000Y-81309000D01*
X132965000Y-83791000D02*
X132965000Y-87424000D01*
X132925000Y-77688000D02*
X132925000Y-81309000D01*
X132925000Y-83791000D02*
X132925000Y-87412000D01*
X132885000Y-77700000D02*
X132885000Y-81309000D01*
X132885000Y-83791000D02*
X132885000Y-87400000D01*
X132845000Y-77713000D02*
X132845000Y-81309000D01*
X132845000Y-83791000D02*
X132845000Y-87387000D01*
X132805000Y-77726000D02*
X132805000Y-81309000D01*
X132805000Y-83791000D02*
X132805000Y-87374000D01*
X132765000Y-77739000D02*
X132765000Y-81309000D01*
X132765000Y-83791000D02*
X132765000Y-87361000D01*
X132725000Y-77753000D02*
X132725000Y-81309000D01*
X132725000Y-83791000D02*
X132725000Y-87347000D01*
X132685000Y-77767000D02*
X132685000Y-81309000D01*
X132685000Y-83791000D02*
X132685000Y-87333000D01*
X132645000Y-77782000D02*
X132645000Y-81309000D01*
X132645000Y-83791000D02*
X132645000Y-87318000D01*
X132605000Y-77796000D02*
X132605000Y-81309000D01*
X132605000Y-83791000D02*
X132605000Y-87304000D01*
X132565000Y-77812000D02*
X132565000Y-81309000D01*
X132565000Y-83791000D02*
X132565000Y-87288000D01*
X132525000Y-77827000D02*
X132525000Y-81309000D01*
X132525000Y-83791000D02*
X132525000Y-87273000D01*
X132485000Y-77843000D02*
X132485000Y-81309000D01*
X132485000Y-83791000D02*
X132485000Y-87257000D01*
X132445000Y-77860000D02*
X132445000Y-81309000D01*
X132445000Y-83791000D02*
X132445000Y-87240000D01*
X132405000Y-77876000D02*
X132405000Y-81309000D01*
X132405000Y-83791000D02*
X132405000Y-87224000D01*
X132365000Y-77893000D02*
X132365000Y-81309000D01*
X132365000Y-83791000D02*
X132365000Y-87207000D01*
X132325000Y-77911000D02*
X132325000Y-81309000D01*
X132325000Y-83791000D02*
X132325000Y-87189000D01*
X132285000Y-77929000D02*
X132285000Y-81309000D01*
X132285000Y-83791000D02*
X132285000Y-87171000D01*
X132245000Y-77947000D02*
X132245000Y-81309000D01*
X132245000Y-83791000D02*
X132245000Y-87153000D01*
X132205000Y-77966000D02*
X132205000Y-81309000D01*
X132205000Y-83791000D02*
X132205000Y-87134000D01*
X132165000Y-77986000D02*
X132165000Y-81309000D01*
X132165000Y-83791000D02*
X132165000Y-87114000D01*
X132125000Y-78005000D02*
X132125000Y-81309000D01*
X132125000Y-83791000D02*
X132125000Y-87095000D01*
X132085000Y-78025000D02*
X132085000Y-81309000D01*
X132085000Y-83791000D02*
X132085000Y-87075000D01*
X132045000Y-78046000D02*
X132045000Y-81309000D01*
X132045000Y-83791000D02*
X132045000Y-87054000D01*
X132005000Y-78067000D02*
X132005000Y-81309000D01*
X132005000Y-83791000D02*
X132005000Y-87033000D01*
X131965000Y-78088000D02*
X131965000Y-81309000D01*
X131965000Y-83791000D02*
X131965000Y-87012000D01*
X131925000Y-78110000D02*
X131925000Y-81309000D01*
X131925000Y-83791000D02*
X131925000Y-86990000D01*
X131885000Y-78133000D02*
X131885000Y-81309000D01*
X131885000Y-83791000D02*
X131885000Y-86967000D01*
X131845000Y-78155000D02*
X131845000Y-81309000D01*
X131845000Y-83791000D02*
X131845000Y-86945000D01*
X131805000Y-78179000D02*
X131805000Y-81309000D01*
X131805000Y-83791000D02*
X131805000Y-86921000D01*
X131765000Y-78203000D02*
X131765000Y-81309000D01*
X131765000Y-83791000D02*
X131765000Y-86897000D01*
X131725000Y-78227000D02*
X131725000Y-81309000D01*
X131725000Y-83791000D02*
X131725000Y-86873000D01*
X131685000Y-78252000D02*
X131685000Y-81309000D01*
X131685000Y-83791000D02*
X131685000Y-86848000D01*
X131645000Y-78277000D02*
X131645000Y-81309000D01*
X131645000Y-83791000D02*
X131645000Y-86823000D01*
X131605000Y-78303000D02*
X131605000Y-81309000D01*
X131605000Y-83791000D02*
X131605000Y-86797000D01*
X131565000Y-78329000D02*
X131565000Y-81309000D01*
X131565000Y-83791000D02*
X131565000Y-86771000D01*
X131525000Y-78356000D02*
X131525000Y-81309000D01*
X131525000Y-83791000D02*
X131525000Y-86744000D01*
X131485000Y-78384000D02*
X131485000Y-81309000D01*
X131485000Y-83791000D02*
X131485000Y-86716000D01*
X131445000Y-78412000D02*
X131445000Y-81309000D01*
X131445000Y-83791000D02*
X131445000Y-86688000D01*
X131405000Y-78440000D02*
X131405000Y-81309000D01*
X131405000Y-83791000D02*
X131405000Y-86660000D01*
X131365000Y-78470000D02*
X131365000Y-81309000D01*
X131365000Y-83791000D02*
X131365000Y-86630000D01*
X131325000Y-78500000D02*
X131325000Y-81309000D01*
X131325000Y-83791000D02*
X131325000Y-86600000D01*
X131285000Y-78530000D02*
X131285000Y-81309000D01*
X131285000Y-83791000D02*
X131285000Y-86570000D01*
X131245000Y-78561000D02*
X131245000Y-81309000D01*
X131245000Y-83791000D02*
X131245000Y-86539000D01*
X131205000Y-78593000D02*
X131205000Y-81309000D01*
X131205000Y-83791000D02*
X131205000Y-86507000D01*
X131165000Y-78625000D02*
X131165000Y-81309000D01*
X131165000Y-83791000D02*
X131165000Y-86475000D01*
X131125000Y-78658000D02*
X131125000Y-81309000D01*
X131125000Y-83791000D02*
X131125000Y-86442000D01*
X131085000Y-78692000D02*
X131085000Y-81309000D01*
X131085000Y-83791000D02*
X131085000Y-86408000D01*
X131045000Y-78726000D02*
X131045000Y-81309000D01*
X131045000Y-83791000D02*
X131045000Y-86374000D01*
X131005000Y-78761000D02*
X131005000Y-81309000D01*
X131005000Y-83791000D02*
X131005000Y-86339000D01*
X130965000Y-78797000D02*
X130965000Y-81309000D01*
X130965000Y-83791000D02*
X130965000Y-86303000D01*
X130925000Y-78834000D02*
X130925000Y-81309000D01*
X130925000Y-83791000D02*
X130925000Y-86266000D01*
X130885000Y-78871000D02*
X130885000Y-81309000D01*
X130885000Y-83791000D02*
X130885000Y-86229000D01*
X130845000Y-78910000D02*
X130845000Y-81309000D01*
X130845000Y-83791000D02*
X130845000Y-86190000D01*
X130805000Y-78949000D02*
X130805000Y-81309000D01*
X130805000Y-83791000D02*
X130805000Y-86151000D01*
X130765000Y-78989000D02*
X130765000Y-81309000D01*
X130765000Y-83791000D02*
X130765000Y-86111000D01*
X130725000Y-79030000D02*
X130725000Y-81309000D01*
X130725000Y-83791000D02*
X130725000Y-86070000D01*
X130685000Y-79072000D02*
X130685000Y-81309000D01*
X130685000Y-83791000D02*
X130685000Y-86028000D01*
X130645000Y-79114000D02*
X130645000Y-85986000D01*
X130605000Y-79158000D02*
X130605000Y-85942000D01*
X130565000Y-79203000D02*
X130565000Y-85897000D01*
X130525000Y-79249000D02*
X130525000Y-85851000D01*
X130485000Y-79296000D02*
X130485000Y-85804000D01*
X130445000Y-79344000D02*
X130445000Y-85756000D01*
X130405000Y-79394000D02*
X130405000Y-85706000D01*
X130365000Y-79444000D02*
X130365000Y-85656000D01*
X130325000Y-79496000D02*
X130325000Y-85604000D01*
X130285000Y-79550000D02*
X130285000Y-85550000D01*
X130245000Y-79605000D02*
X130245000Y-85495000D01*
X130205000Y-79661000D02*
X130205000Y-85439000D01*
X130165000Y-79720000D02*
X130165000Y-85380000D01*
X130125000Y-79780000D02*
X130125000Y-85320000D01*
X130085000Y-79841000D02*
X130085000Y-85259000D01*
X130045000Y-79905000D02*
X130045000Y-85195000D01*
X130005000Y-79971000D02*
X130005000Y-85129000D01*
X129965000Y-80040000D02*
X129965000Y-85060000D01*
X129925000Y-80111000D02*
X129925000Y-84989000D01*
X129885000Y-80185000D02*
X129885000Y-84915000D01*
X129845000Y-80261000D02*
X129845000Y-84839000D01*
X129805000Y-80341000D02*
X129805000Y-84759000D01*
X129765000Y-80425000D02*
X129765000Y-84675000D01*
X129725000Y-80513000D02*
X129725000Y-84587000D01*
X129685000Y-80606000D02*
X129685000Y-84494000D01*
X129645000Y-80704000D02*
X129645000Y-84396000D01*
X129605000Y-80808000D02*
X129605000Y-84292000D01*
X129565000Y-80920000D02*
X129565000Y-84180000D01*
X129525000Y-81040000D02*
X129525000Y-84060000D01*
X129485000Y-81172000D02*
X129485000Y-83928000D01*
X129445000Y-81320000D02*
X129445000Y-83780000D01*
X129405000Y-81488000D02*
X129405000Y-83612000D01*
X129365000Y-81688000D02*
X129365000Y-83412000D01*
X129325000Y-81951000D02*
X129325000Y-83149000D01*
X139885646Y-79675000D02*
X138885646Y-79675000D01*
X139385646Y-79175000D02*
X139385646Y-80175000D01*
%TO.C,C3*%
X171042000Y-105540000D02*
X168302000Y-105540000D01*
X171042000Y-112980000D02*
X168302000Y-112980000D01*
X168302000Y-112980000D02*
X168302000Y-105540000D01*
X171042000Y-112980000D02*
X171042000Y-105540000D01*
%TO.C,C1*%
X147521000Y-93502775D02*
X147021000Y-93502775D01*
X147271000Y-93752775D02*
X147271000Y-93252775D01*
X146080000Y-88347000D02*
X145512000Y-88347000D01*
X146314000Y-88387000D02*
X145278000Y-88387000D01*
X146473000Y-88427000D02*
X145119000Y-88427000D01*
X146601000Y-88467000D02*
X144991000Y-88467000D01*
X146711000Y-88507000D02*
X144881000Y-88507000D01*
X146807000Y-88547000D02*
X144785000Y-88547000D01*
X146894000Y-88587000D02*
X144698000Y-88587000D01*
X146974000Y-88627000D02*
X144618000Y-88627000D01*
X147047000Y-88667000D02*
X144545000Y-88667000D01*
X147115000Y-88707000D02*
X144477000Y-88707000D01*
X147179000Y-88747000D02*
X144413000Y-88747000D01*
X147239000Y-88787000D02*
X144353000Y-88787000D01*
X147296000Y-88827000D02*
X144296000Y-88827000D01*
X147350000Y-88867000D02*
X144242000Y-88867000D01*
X147401000Y-88907000D02*
X144191000Y-88907000D01*
X144756000Y-88947000D02*
X144143000Y-88947000D01*
X147449000Y-88947000D02*
X146836000Y-88947000D01*
X144756000Y-88987000D02*
X144097000Y-88987000D01*
X147495000Y-88987000D02*
X146836000Y-88987000D01*
X144756000Y-89027000D02*
X144053000Y-89027000D01*
X147539000Y-89027000D02*
X146836000Y-89027000D01*
X144756000Y-89067000D02*
X144011000Y-89067000D01*
X147581000Y-89067000D02*
X146836000Y-89067000D01*
X144756000Y-89107000D02*
X143970000Y-89107000D01*
X147622000Y-89107000D02*
X146836000Y-89107000D01*
X144756000Y-89147000D02*
X143932000Y-89147000D01*
X147660000Y-89147000D02*
X146836000Y-89147000D01*
X144756000Y-89187000D02*
X143895000Y-89187000D01*
X147697000Y-89187000D02*
X146836000Y-89187000D01*
X144756000Y-89227000D02*
X143859000Y-89227000D01*
X147733000Y-89227000D02*
X146836000Y-89227000D01*
X144756000Y-89267000D02*
X143825000Y-89267000D01*
X147767000Y-89267000D02*
X146836000Y-89267000D01*
X144756000Y-89307000D02*
X143792000Y-89307000D01*
X147800000Y-89307000D02*
X146836000Y-89307000D01*
X144756000Y-89347000D02*
X143761000Y-89347000D01*
X147831000Y-89347000D02*
X146836000Y-89347000D01*
X144756000Y-89387000D02*
X143731000Y-89387000D01*
X147861000Y-89387000D02*
X146836000Y-89387000D01*
X144756000Y-89427000D02*
X143701000Y-89427000D01*
X147891000Y-89427000D02*
X146836000Y-89427000D01*
X144756000Y-89467000D02*
X143674000Y-89467000D01*
X147918000Y-89467000D02*
X146836000Y-89467000D01*
X144756000Y-89507000D02*
X143647000Y-89507000D01*
X147945000Y-89507000D02*
X146836000Y-89507000D01*
X144756000Y-89547000D02*
X143621000Y-89547000D01*
X147971000Y-89547000D02*
X146836000Y-89547000D01*
X144756000Y-89587000D02*
X143596000Y-89587000D01*
X147996000Y-89587000D02*
X146836000Y-89587000D01*
X144756000Y-89627000D02*
X143572000Y-89627000D01*
X148020000Y-89627000D02*
X146836000Y-89627000D01*
X144756000Y-89667000D02*
X143549000Y-89667000D01*
X148043000Y-89667000D02*
X146836000Y-89667000D01*
X144756000Y-89707000D02*
X143528000Y-89707000D01*
X148064000Y-89707000D02*
X146836000Y-89707000D01*
X144756000Y-89747000D02*
X143506000Y-89747000D01*
X148086000Y-89747000D02*
X146836000Y-89747000D01*
X144756000Y-89787000D02*
X143486000Y-89787000D01*
X148106000Y-89787000D02*
X146836000Y-89787000D01*
X144756000Y-89827000D02*
X143467000Y-89827000D01*
X148125000Y-89827000D02*
X146836000Y-89827000D01*
X144756000Y-89867000D02*
X143448000Y-89867000D01*
X148144000Y-89867000D02*
X146836000Y-89867000D01*
X144756000Y-89907000D02*
X143431000Y-89907000D01*
X148161000Y-89907000D02*
X146836000Y-89907000D01*
X144756000Y-89947000D02*
X143414000Y-89947000D01*
X148178000Y-89947000D02*
X146836000Y-89947000D01*
X144756000Y-89987000D02*
X143398000Y-89987000D01*
X148194000Y-89987000D02*
X146836000Y-89987000D01*
X144756000Y-90027000D02*
X143382000Y-90027000D01*
X148210000Y-90027000D02*
X146836000Y-90027000D01*
X144756000Y-90067000D02*
X143368000Y-90067000D01*
X148224000Y-90067000D02*
X146836000Y-90067000D01*
X144756000Y-90107000D02*
X143354000Y-90107000D01*
X148238000Y-90107000D02*
X146836000Y-90107000D01*
X144756000Y-90147000D02*
X143341000Y-90147000D01*
X148251000Y-90147000D02*
X146836000Y-90147000D01*
X144756000Y-90187000D02*
X143328000Y-90187000D01*
X148264000Y-90187000D02*
X146836000Y-90187000D01*
X144756000Y-90227000D02*
X143316000Y-90227000D01*
X148276000Y-90227000D02*
X146836000Y-90227000D01*
X144756000Y-90268000D02*
X143305000Y-90268000D01*
X148287000Y-90268000D02*
X146836000Y-90268000D01*
X144756000Y-90308000D02*
X143295000Y-90308000D01*
X148297000Y-90308000D02*
X146836000Y-90308000D01*
X144756000Y-90348000D02*
X143285000Y-90348000D01*
X148307000Y-90348000D02*
X146836000Y-90348000D01*
X144756000Y-90388000D02*
X143276000Y-90388000D01*
X148316000Y-90388000D02*
X146836000Y-90388000D01*
X144756000Y-90428000D02*
X143268000Y-90428000D01*
X148324000Y-90428000D02*
X146836000Y-90428000D01*
X144756000Y-90468000D02*
X143260000Y-90468000D01*
X148332000Y-90468000D02*
X146836000Y-90468000D01*
X144756000Y-90508000D02*
X143253000Y-90508000D01*
X148339000Y-90508000D02*
X146836000Y-90508000D01*
X144756000Y-90548000D02*
X143246000Y-90548000D01*
X148346000Y-90548000D02*
X146836000Y-90548000D01*
X144756000Y-90588000D02*
X143240000Y-90588000D01*
X148352000Y-90588000D02*
X146836000Y-90588000D01*
X144756000Y-90628000D02*
X143235000Y-90628000D01*
X148357000Y-90628000D02*
X146836000Y-90628000D01*
X144756000Y-90668000D02*
X143231000Y-90668000D01*
X148361000Y-90668000D02*
X146836000Y-90668000D01*
X144756000Y-90708000D02*
X143227000Y-90708000D01*
X148365000Y-90708000D02*
X146836000Y-90708000D01*
X144756000Y-90748000D02*
X143223000Y-90748000D01*
X148369000Y-90748000D02*
X146836000Y-90748000D01*
X144756000Y-90788000D02*
X143220000Y-90788000D01*
X148372000Y-90788000D02*
X146836000Y-90788000D01*
X144756000Y-90828000D02*
X143218000Y-90828000D01*
X148374000Y-90828000D02*
X146836000Y-90828000D01*
X144756000Y-90868000D02*
X143217000Y-90868000D01*
X148375000Y-90868000D02*
X146836000Y-90868000D01*
X148376000Y-90908000D02*
X146836000Y-90908000D01*
X144756000Y-90908000D02*
X143216000Y-90908000D01*
X148376000Y-90948000D02*
X146836000Y-90948000D01*
X144756000Y-90948000D02*
X143216000Y-90948000D01*
X148416000Y-90948000D02*
G75*
G03*
X148416000Y-90948000I-2620000J0D01*
G01*
%TO.C,C16*%
D10*
X159154857Y-107097142D02*
X159202476Y-107144761D01*
X159345333Y-107192380D01*
X159440571Y-107192380D01*
X159583428Y-107144761D01*
X159678666Y-107049523D01*
X159726285Y-106954285D01*
X159773904Y-106763809D01*
X159773904Y-106620952D01*
X159726285Y-106430476D01*
X159678666Y-106335238D01*
X159583428Y-106240000D01*
X159440571Y-106192380D01*
X159345333Y-106192380D01*
X159202476Y-106240000D01*
X159154857Y-106287619D01*
X158202476Y-107192380D02*
X158773904Y-107192380D01*
X158488190Y-107192380D02*
X158488190Y-106192380D01*
X158583428Y-106335238D01*
X158678666Y-106430476D01*
X158773904Y-106478095D01*
X157345333Y-106192380D02*
X157535809Y-106192380D01*
X157631047Y-106240000D01*
X157678666Y-106287619D01*
X157773904Y-106430476D01*
X157821523Y-106620952D01*
X157821523Y-107001904D01*
X157773904Y-107097142D01*
X157726285Y-107144761D01*
X157631047Y-107192380D01*
X157440571Y-107192380D01*
X157345333Y-107144761D01*
X157297714Y-107097142D01*
X157250095Y-107001904D01*
X157250095Y-106763809D01*
X157297714Y-106668571D01*
X157345333Y-106620952D01*
X157440571Y-106573333D01*
X157631047Y-106573333D01*
X157726285Y-106620952D01*
X157773904Y-106668571D01*
X157821523Y-106763809D01*
%TO.C,R41*%
X133294380Y-105275142D02*
X132818190Y-104941809D01*
X133294380Y-104703714D02*
X132294380Y-104703714D01*
X132294380Y-105084666D01*
X132342000Y-105179904D01*
X132389619Y-105227523D01*
X132484857Y-105275142D01*
X132627714Y-105275142D01*
X132722952Y-105227523D01*
X132770571Y-105179904D01*
X132818190Y-105084666D01*
X132818190Y-104703714D01*
X132627714Y-106132285D02*
X133294380Y-106132285D01*
X132246761Y-105894190D02*
X132961047Y-105656095D01*
X132961047Y-106275142D01*
X133294380Y-107179904D02*
X133294380Y-106608476D01*
X133294380Y-106894190D02*
X132294380Y-106894190D01*
X132437238Y-106798952D01*
X132532476Y-106703714D01*
X132580095Y-106608476D01*
%TO.C,R22*%
X153550857Y-100528380D02*
X153884190Y-100052190D01*
X154122285Y-100528380D02*
X154122285Y-99528380D01*
X153741333Y-99528380D01*
X153646095Y-99576000D01*
X153598476Y-99623619D01*
X153550857Y-99718857D01*
X153550857Y-99861714D01*
X153598476Y-99956952D01*
X153646095Y-100004571D01*
X153741333Y-100052190D01*
X154122285Y-100052190D01*
X153169904Y-99623619D02*
X153122285Y-99576000D01*
X153027047Y-99528380D01*
X152788952Y-99528380D01*
X152693714Y-99576000D01*
X152646095Y-99623619D01*
X152598476Y-99718857D01*
X152598476Y-99814095D01*
X152646095Y-99956952D01*
X153217523Y-100528380D01*
X152598476Y-100528380D01*
X152217523Y-99623619D02*
X152169904Y-99576000D01*
X152074666Y-99528380D01*
X151836571Y-99528380D01*
X151741333Y-99576000D01*
X151693714Y-99623619D01*
X151646095Y-99718857D01*
X151646095Y-99814095D01*
X151693714Y-99956952D01*
X152265142Y-100528380D01*
X151646095Y-100528380D01*
%TO.C,C15*%
X138731142Y-98457142D02*
X138778761Y-98409523D01*
X138826380Y-98266666D01*
X138826380Y-98171428D01*
X138778761Y-98028571D01*
X138683523Y-97933333D01*
X138588285Y-97885714D01*
X138397809Y-97838095D01*
X138254952Y-97838095D01*
X138064476Y-97885714D01*
X137969238Y-97933333D01*
X137874000Y-98028571D01*
X137826380Y-98171428D01*
X137826380Y-98266666D01*
X137874000Y-98409523D01*
X137921619Y-98457142D01*
X138826380Y-99409523D02*
X138826380Y-98838095D01*
X138826380Y-99123809D02*
X137826380Y-99123809D01*
X137969238Y-99028571D01*
X138064476Y-98933333D01*
X138112095Y-98838095D01*
X137826380Y-100314285D02*
X137826380Y-99838095D01*
X138302571Y-99790476D01*
X138254952Y-99838095D01*
X138207333Y-99933333D01*
X138207333Y-100171428D01*
X138254952Y-100266666D01*
X138302571Y-100314285D01*
X138397809Y-100361904D01*
X138635904Y-100361904D01*
X138731142Y-100314285D01*
X138778761Y-100266666D01*
X138826380Y-100171428D01*
X138826380Y-99933333D01*
X138778761Y-99838095D01*
X138731142Y-99790476D01*
%TO.C,C12*%
X153550857Y-105259142D02*
X153598476Y-105306761D01*
X153741333Y-105354380D01*
X153836571Y-105354380D01*
X153979428Y-105306761D01*
X154074666Y-105211523D01*
X154122285Y-105116285D01*
X154169904Y-104925809D01*
X154169904Y-104782952D01*
X154122285Y-104592476D01*
X154074666Y-104497238D01*
X153979428Y-104402000D01*
X153836571Y-104354380D01*
X153741333Y-104354380D01*
X153598476Y-104402000D01*
X153550857Y-104449619D01*
X152598476Y-105354380D02*
X153169904Y-105354380D01*
X152884190Y-105354380D02*
X152884190Y-104354380D01*
X152979428Y-104497238D01*
X153074666Y-104592476D01*
X153169904Y-104640095D01*
X152217523Y-104449619D02*
X152169904Y-104402000D01*
X152074666Y-104354380D01*
X151836571Y-104354380D01*
X151741333Y-104402000D01*
X151693714Y-104449619D01*
X151646095Y-104544857D01*
X151646095Y-104640095D01*
X151693714Y-104782952D01*
X152265142Y-105354380D01*
X151646095Y-105354380D01*
%TO.C,C11*%
X157630857Y-78395142D02*
X157678476Y-78442761D01*
X157821333Y-78490380D01*
X157916571Y-78490380D01*
X158059428Y-78442761D01*
X158154666Y-78347523D01*
X158202285Y-78252285D01*
X158249904Y-78061809D01*
X158249904Y-77918952D01*
X158202285Y-77728476D01*
X158154666Y-77633238D01*
X158059428Y-77538000D01*
X157916571Y-77490380D01*
X157821333Y-77490380D01*
X157678476Y-77538000D01*
X157630857Y-77585619D01*
X156678476Y-78490380D02*
X157249904Y-78490380D01*
X156964190Y-78490380D02*
X156964190Y-77490380D01*
X157059428Y-77633238D01*
X157154666Y-77728476D01*
X157249904Y-77776095D01*
X155726095Y-78490380D02*
X156297523Y-78490380D01*
X156011809Y-78490380D02*
X156011809Y-77490380D01*
X156107047Y-77633238D01*
X156202285Y-77728476D01*
X156297523Y-77776095D01*
%TO.C,C10*%
X150518857Y-107097142D02*
X150566476Y-107144761D01*
X150709333Y-107192380D01*
X150804571Y-107192380D01*
X150947428Y-107144761D01*
X151042666Y-107049523D01*
X151090285Y-106954285D01*
X151137904Y-106763809D01*
X151137904Y-106620952D01*
X151090285Y-106430476D01*
X151042666Y-106335238D01*
X150947428Y-106240000D01*
X150804571Y-106192380D01*
X150709333Y-106192380D01*
X150566476Y-106240000D01*
X150518857Y-106287619D01*
X149566476Y-107192380D02*
X150137904Y-107192380D01*
X149852190Y-107192380D02*
X149852190Y-106192380D01*
X149947428Y-106335238D01*
X150042666Y-106430476D01*
X150137904Y-106478095D01*
X148947428Y-106192380D02*
X148852190Y-106192380D01*
X148756952Y-106240000D01*
X148709333Y-106287619D01*
X148661714Y-106382857D01*
X148614095Y-106573333D01*
X148614095Y-106811428D01*
X148661714Y-107001904D01*
X148709333Y-107097142D01*
X148756952Y-107144761D01*
X148852190Y-107192380D01*
X148947428Y-107192380D01*
X149042666Y-107144761D01*
X149090285Y-107097142D01*
X149137904Y-107001904D01*
X149185523Y-106811428D01*
X149185523Y-106573333D01*
X149137904Y-106382857D01*
X149090285Y-106287619D01*
X149042666Y-106240000D01*
X148947428Y-106192380D01*
%TO.C,C8*%
X146978666Y-84685142D02*
X147026285Y-84732761D01*
X147169142Y-84780380D01*
X147264380Y-84780380D01*
X147407238Y-84732761D01*
X147502476Y-84637523D01*
X147550095Y-84542285D01*
X147597714Y-84351809D01*
X147597714Y-84208952D01*
X147550095Y-84018476D01*
X147502476Y-83923238D01*
X147407238Y-83828000D01*
X147264380Y-83780380D01*
X147169142Y-83780380D01*
X147026285Y-83828000D01*
X146978666Y-83875619D01*
X146407238Y-84208952D02*
X146502476Y-84161333D01*
X146550095Y-84113714D01*
X146597714Y-84018476D01*
X146597714Y-83970857D01*
X146550095Y-83875619D01*
X146502476Y-83828000D01*
X146407238Y-83780380D01*
X146216761Y-83780380D01*
X146121523Y-83828000D01*
X146073904Y-83875619D01*
X146026285Y-83970857D01*
X146026285Y-84018476D01*
X146073904Y-84113714D01*
X146121523Y-84161333D01*
X146216761Y-84208952D01*
X146407238Y-84208952D01*
X146502476Y-84256571D01*
X146550095Y-84304190D01*
X146597714Y-84399428D01*
X146597714Y-84589904D01*
X146550095Y-84685142D01*
X146502476Y-84732761D01*
X146407238Y-84780380D01*
X146216761Y-84780380D01*
X146121523Y-84732761D01*
X146073904Y-84685142D01*
X146026285Y-84589904D01*
X146026285Y-84399428D01*
X146073904Y-84304190D01*
X146121523Y-84256571D01*
X146216761Y-84208952D01*
%TO.C,C7*%
X163893142Y-98425333D02*
X163940761Y-98377714D01*
X163988380Y-98234857D01*
X163988380Y-98139619D01*
X163940761Y-97996761D01*
X163845523Y-97901523D01*
X163750285Y-97853904D01*
X163559809Y-97806285D01*
X163416952Y-97806285D01*
X163226476Y-97853904D01*
X163131238Y-97901523D01*
X163036000Y-97996761D01*
X162988380Y-98139619D01*
X162988380Y-98234857D01*
X163036000Y-98377714D01*
X163083619Y-98425333D01*
X162988380Y-98758666D02*
X162988380Y-99425333D01*
X163988380Y-98996761D01*
%TO.C,C6*%
X141914666Y-107097142D02*
X141962285Y-107144761D01*
X142105142Y-107192380D01*
X142200380Y-107192380D01*
X142343238Y-107144761D01*
X142438476Y-107049523D01*
X142486095Y-106954285D01*
X142533714Y-106763809D01*
X142533714Y-106620952D01*
X142486095Y-106430476D01*
X142438476Y-106335238D01*
X142343238Y-106240000D01*
X142200380Y-106192380D01*
X142105142Y-106192380D01*
X141962285Y-106240000D01*
X141914666Y-106287619D01*
X141057523Y-106192380D02*
X141248000Y-106192380D01*
X141343238Y-106240000D01*
X141390857Y-106287619D01*
X141486095Y-106430476D01*
X141533714Y-106620952D01*
X141533714Y-107001904D01*
X141486095Y-107097142D01*
X141438476Y-107144761D01*
X141343238Y-107192380D01*
X141152761Y-107192380D01*
X141057523Y-107144761D01*
X141009904Y-107097142D01*
X140962285Y-107001904D01*
X140962285Y-106763809D01*
X141009904Y-106668571D01*
X141057523Y-106620952D01*
X141152761Y-106573333D01*
X141343238Y-106573333D01*
X141438476Y-106620952D01*
X141486095Y-106668571D01*
X141533714Y-106763809D01*
%TO.C,C5*%
X130214666Y-78335142D02*
X130262285Y-78382761D01*
X130405142Y-78430380D01*
X130500380Y-78430380D01*
X130643238Y-78382761D01*
X130738476Y-78287523D01*
X130786095Y-78192285D01*
X130833714Y-78001809D01*
X130833714Y-77858952D01*
X130786095Y-77668476D01*
X130738476Y-77573238D01*
X130643238Y-77478000D01*
X130500380Y-77430380D01*
X130405142Y-77430380D01*
X130262285Y-77478000D01*
X130214666Y-77525619D01*
X129309904Y-77430380D02*
X129786095Y-77430380D01*
X129833714Y-77906571D01*
X129786095Y-77858952D01*
X129690857Y-77811333D01*
X129452761Y-77811333D01*
X129357523Y-77858952D01*
X129309904Y-77906571D01*
X129262285Y-78001809D01*
X129262285Y-78239904D01*
X129309904Y-78335142D01*
X129357523Y-78382761D01*
X129452761Y-78430380D01*
X129690857Y-78430380D01*
X129786095Y-78382761D01*
X129833714Y-78335142D01*
%TO.C,C3*%
X167743142Y-109053333D02*
X167790761Y-109005714D01*
X167838380Y-108862857D01*
X167838380Y-108767619D01*
X167790761Y-108624761D01*
X167695523Y-108529523D01*
X167600285Y-108481904D01*
X167409809Y-108434285D01*
X167266952Y-108434285D01*
X167076476Y-108481904D01*
X166981238Y-108529523D01*
X166886000Y-108624761D01*
X166838380Y-108767619D01*
X166838380Y-108862857D01*
X166886000Y-109005714D01*
X166933619Y-109053333D01*
X166838380Y-109386666D02*
X166838380Y-110005714D01*
X167219333Y-109672380D01*
X167219333Y-109815238D01*
X167266952Y-109910476D01*
X167314571Y-109958095D01*
X167409809Y-110005714D01*
X167647904Y-110005714D01*
X167743142Y-109958095D01*
X167790761Y-109910476D01*
X167838380Y-109815238D01*
X167838380Y-109529523D01*
X167790761Y-109434285D01*
X167743142Y-109386666D01*
%TO.C,C1*%
X149712666Y-91289142D02*
X149760285Y-91336761D01*
X149903142Y-91384380D01*
X149998380Y-91384380D01*
X150141238Y-91336761D01*
X150236476Y-91241523D01*
X150284095Y-91146285D01*
X150331714Y-90955809D01*
X150331714Y-90812952D01*
X150284095Y-90622476D01*
X150236476Y-90527238D01*
X150141238Y-90432000D01*
X149998380Y-90384380D01*
X149903142Y-90384380D01*
X149760285Y-90432000D01*
X149712666Y-90479619D01*
X148760285Y-91384380D02*
X149331714Y-91384380D01*
X149046000Y-91384380D02*
X149046000Y-90384380D01*
X149141238Y-90527238D01*
X149236476Y-90622476D01*
X149331714Y-90670095D01*
%TD*%
M02*
