%TF.GenerationSoftware,KiCad,Pcbnew,5.1.9*%
%TF.CreationDate,2021-04-12T02:58:06-04:00*%
%TF.ProjectId,rog_tri-vibe,726f675f-7472-4692-9d76-6962652e6b69,rev?*%
%TF.SameCoordinates,Original*%
%TF.FileFunction,Soldermask,Top*%
%TF.FilePolarity,Negative*%
%FSLAX46Y46*%
G04 Gerber Fmt 4.6, Leading zero omitted, Abs format (unit mm)*
G04 Created by KiCad (PCBNEW 5.1.9) date 2021-04-12 02:58:06*
%MOMM*%
%LPD*%
G01*
G04 APERTURE LIST*
%ADD10C,1.600000*%
%ADD11R,1.600000X1.600000*%
%ADD12C,2.500000*%
%ADD13R,0.900000X0.800000*%
%ADD14C,2.100000*%
%ADD15R,2.000000X2.000000*%
%ADD16C,2.000000*%
G04 APERTURE END LIST*
%TO.C,C18*%
G36*
G01*
X134624000Y-104973000D02*
X135124000Y-104973000D01*
G75*
G02*
X135349000Y-105198000I0J-225000D01*
G01*
X135349000Y-105648000D01*
G75*
G02*
X135124000Y-105873000I-225000J0D01*
G01*
X134624000Y-105873000D01*
G75*
G02*
X134399000Y-105648000I0J225000D01*
G01*
X134399000Y-105198000D01*
G75*
G02*
X134624000Y-104973000I225000J0D01*
G01*
G37*
G36*
G01*
X134624000Y-103423000D02*
X135124000Y-103423000D01*
G75*
G02*
X135349000Y-103648000I0J-225000D01*
G01*
X135349000Y-104098000D01*
G75*
G02*
X135124000Y-104323000I-225000J0D01*
G01*
X134624000Y-104323000D01*
G75*
G02*
X134399000Y-104098000I0J225000D01*
G01*
X134399000Y-103648000D01*
G75*
G02*
X134624000Y-103423000I225000J0D01*
G01*
G37*
%TD*%
%TO.C,C17*%
G36*
G01*
X165866000Y-104693000D02*
X166366000Y-104693000D01*
G75*
G02*
X166591000Y-104918000I0J-225000D01*
G01*
X166591000Y-105368000D01*
G75*
G02*
X166366000Y-105593000I-225000J0D01*
G01*
X165866000Y-105593000D01*
G75*
G02*
X165641000Y-105368000I0J225000D01*
G01*
X165641000Y-104918000D01*
G75*
G02*
X165866000Y-104693000I225000J0D01*
G01*
G37*
G36*
G01*
X165866000Y-106243000D02*
X166366000Y-106243000D01*
G75*
G02*
X166591000Y-106468000I0J-225000D01*
G01*
X166591000Y-106918000D01*
G75*
G02*
X166366000Y-107143000I-225000J0D01*
G01*
X165866000Y-107143000D01*
G75*
G02*
X165641000Y-106918000I0J225000D01*
G01*
X165641000Y-106468000D01*
G75*
G02*
X165866000Y-106243000I225000J0D01*
G01*
G37*
%TD*%
%TO.C,C9*%
G36*
G01*
X145841000Y-76196000D02*
X145841000Y-75696000D01*
G75*
G02*
X146066000Y-75471000I225000J0D01*
G01*
X146516000Y-75471000D01*
G75*
G02*
X146741000Y-75696000I0J-225000D01*
G01*
X146741000Y-76196000D01*
G75*
G02*
X146516000Y-76421000I-225000J0D01*
G01*
X146066000Y-76421000D01*
G75*
G02*
X145841000Y-76196000I0J225000D01*
G01*
G37*
G36*
G01*
X147391000Y-76196000D02*
X147391000Y-75696000D01*
G75*
G02*
X147616000Y-75471000I225000J0D01*
G01*
X148066000Y-75471000D01*
G75*
G02*
X148291000Y-75696000I0J-225000D01*
G01*
X148291000Y-76196000D01*
G75*
G02*
X148066000Y-76421000I-225000J0D01*
G01*
X147616000Y-76421000D01*
G75*
G02*
X147391000Y-76196000I0J225000D01*
G01*
G37*
%TD*%
%TO.C,U4*%
G36*
G01*
X143232000Y-104163000D02*
X143232000Y-103863000D01*
G75*
G02*
X143382000Y-103713000I150000J0D01*
G01*
X145032000Y-103713000D01*
G75*
G02*
X145182000Y-103863000I0J-150000D01*
G01*
X145182000Y-104163000D01*
G75*
G02*
X145032000Y-104313000I-150000J0D01*
G01*
X143382000Y-104313000D01*
G75*
G02*
X143232000Y-104163000I0J150000D01*
G01*
G37*
G36*
G01*
X143232000Y-105433000D02*
X143232000Y-105133000D01*
G75*
G02*
X143382000Y-104983000I150000J0D01*
G01*
X145032000Y-104983000D01*
G75*
G02*
X145182000Y-105133000I0J-150000D01*
G01*
X145182000Y-105433000D01*
G75*
G02*
X145032000Y-105583000I-150000J0D01*
G01*
X143382000Y-105583000D01*
G75*
G02*
X143232000Y-105433000I0J150000D01*
G01*
G37*
G36*
G01*
X143232000Y-106703000D02*
X143232000Y-106403000D01*
G75*
G02*
X143382000Y-106253000I150000J0D01*
G01*
X145032000Y-106253000D01*
G75*
G02*
X145182000Y-106403000I0J-150000D01*
G01*
X145182000Y-106703000D01*
G75*
G02*
X145032000Y-106853000I-150000J0D01*
G01*
X143382000Y-106853000D01*
G75*
G02*
X143232000Y-106703000I0J150000D01*
G01*
G37*
G36*
G01*
X143232000Y-107973000D02*
X143232000Y-107673000D01*
G75*
G02*
X143382000Y-107523000I150000J0D01*
G01*
X145032000Y-107523000D01*
G75*
G02*
X145182000Y-107673000I0J-150000D01*
G01*
X145182000Y-107973000D01*
G75*
G02*
X145032000Y-108123000I-150000J0D01*
G01*
X143382000Y-108123000D01*
G75*
G02*
X143232000Y-107973000I0J150000D01*
G01*
G37*
G36*
G01*
X138282000Y-107973000D02*
X138282000Y-107673000D01*
G75*
G02*
X138432000Y-107523000I150000J0D01*
G01*
X140082000Y-107523000D01*
G75*
G02*
X140232000Y-107673000I0J-150000D01*
G01*
X140232000Y-107973000D01*
G75*
G02*
X140082000Y-108123000I-150000J0D01*
G01*
X138432000Y-108123000D01*
G75*
G02*
X138282000Y-107973000I0J150000D01*
G01*
G37*
G36*
G01*
X138282000Y-106703000D02*
X138282000Y-106403000D01*
G75*
G02*
X138432000Y-106253000I150000J0D01*
G01*
X140082000Y-106253000D01*
G75*
G02*
X140232000Y-106403000I0J-150000D01*
G01*
X140232000Y-106703000D01*
G75*
G02*
X140082000Y-106853000I-150000J0D01*
G01*
X138432000Y-106853000D01*
G75*
G02*
X138282000Y-106703000I0J150000D01*
G01*
G37*
G36*
G01*
X138282000Y-105433000D02*
X138282000Y-105133000D01*
G75*
G02*
X138432000Y-104983000I150000J0D01*
G01*
X140082000Y-104983000D01*
G75*
G02*
X140232000Y-105133000I0J-150000D01*
G01*
X140232000Y-105433000D01*
G75*
G02*
X140082000Y-105583000I-150000J0D01*
G01*
X138432000Y-105583000D01*
G75*
G02*
X138282000Y-105433000I0J150000D01*
G01*
G37*
G36*
G01*
X138282000Y-104163000D02*
X138282000Y-103863000D01*
G75*
G02*
X138432000Y-103713000I150000J0D01*
G01*
X140082000Y-103713000D01*
G75*
G02*
X140232000Y-103863000I0J-150000D01*
G01*
X140232000Y-104163000D01*
G75*
G02*
X140082000Y-104313000I-150000J0D01*
G01*
X138432000Y-104313000D01*
G75*
G02*
X138282000Y-104163000I0J150000D01*
G01*
G37*
%TD*%
%TO.C,U2*%
G36*
G01*
X160504000Y-104163000D02*
X160504000Y-103863000D01*
G75*
G02*
X160654000Y-103713000I150000J0D01*
G01*
X162304000Y-103713000D01*
G75*
G02*
X162454000Y-103863000I0J-150000D01*
G01*
X162454000Y-104163000D01*
G75*
G02*
X162304000Y-104313000I-150000J0D01*
G01*
X160654000Y-104313000D01*
G75*
G02*
X160504000Y-104163000I0J150000D01*
G01*
G37*
G36*
G01*
X160504000Y-105433000D02*
X160504000Y-105133000D01*
G75*
G02*
X160654000Y-104983000I150000J0D01*
G01*
X162304000Y-104983000D01*
G75*
G02*
X162454000Y-105133000I0J-150000D01*
G01*
X162454000Y-105433000D01*
G75*
G02*
X162304000Y-105583000I-150000J0D01*
G01*
X160654000Y-105583000D01*
G75*
G02*
X160504000Y-105433000I0J150000D01*
G01*
G37*
G36*
G01*
X160504000Y-106703000D02*
X160504000Y-106403000D01*
G75*
G02*
X160654000Y-106253000I150000J0D01*
G01*
X162304000Y-106253000D01*
G75*
G02*
X162454000Y-106403000I0J-150000D01*
G01*
X162454000Y-106703000D01*
G75*
G02*
X162304000Y-106853000I-150000J0D01*
G01*
X160654000Y-106853000D01*
G75*
G02*
X160504000Y-106703000I0J150000D01*
G01*
G37*
G36*
G01*
X160504000Y-107973000D02*
X160504000Y-107673000D01*
G75*
G02*
X160654000Y-107523000I150000J0D01*
G01*
X162304000Y-107523000D01*
G75*
G02*
X162454000Y-107673000I0J-150000D01*
G01*
X162454000Y-107973000D01*
G75*
G02*
X162304000Y-108123000I-150000J0D01*
G01*
X160654000Y-108123000D01*
G75*
G02*
X160504000Y-107973000I0J150000D01*
G01*
G37*
G36*
G01*
X155554000Y-107973000D02*
X155554000Y-107673000D01*
G75*
G02*
X155704000Y-107523000I150000J0D01*
G01*
X157354000Y-107523000D01*
G75*
G02*
X157504000Y-107673000I0J-150000D01*
G01*
X157504000Y-107973000D01*
G75*
G02*
X157354000Y-108123000I-150000J0D01*
G01*
X155704000Y-108123000D01*
G75*
G02*
X155554000Y-107973000I0J150000D01*
G01*
G37*
G36*
G01*
X155554000Y-106703000D02*
X155554000Y-106403000D01*
G75*
G02*
X155704000Y-106253000I150000J0D01*
G01*
X157354000Y-106253000D01*
G75*
G02*
X157504000Y-106403000I0J-150000D01*
G01*
X157504000Y-106703000D01*
G75*
G02*
X157354000Y-106853000I-150000J0D01*
G01*
X155704000Y-106853000D01*
G75*
G02*
X155554000Y-106703000I0J150000D01*
G01*
G37*
G36*
G01*
X155554000Y-105433000D02*
X155554000Y-105133000D01*
G75*
G02*
X155704000Y-104983000I150000J0D01*
G01*
X157354000Y-104983000D01*
G75*
G02*
X157504000Y-105133000I0J-150000D01*
G01*
X157504000Y-105433000D01*
G75*
G02*
X157354000Y-105583000I-150000J0D01*
G01*
X155704000Y-105583000D01*
G75*
G02*
X155554000Y-105433000I0J150000D01*
G01*
G37*
G36*
G01*
X155554000Y-104163000D02*
X155554000Y-103863000D01*
G75*
G02*
X155704000Y-103713000I150000J0D01*
G01*
X157354000Y-103713000D01*
G75*
G02*
X157504000Y-103863000I0J-150000D01*
G01*
X157504000Y-104163000D01*
G75*
G02*
X157354000Y-104313000I-150000J0D01*
G01*
X155704000Y-104313000D01*
G75*
G02*
X155554000Y-104163000I0J150000D01*
G01*
G37*
%TD*%
D10*
%TO.C,C16*%
X157512000Y-110490000D03*
D11*
X159512000Y-110490000D03*
%TD*%
%TO.C,U3*%
G36*
G01*
X151868000Y-99083000D02*
X151868000Y-98783000D01*
G75*
G02*
X152018000Y-98633000I150000J0D01*
G01*
X153668000Y-98633000D01*
G75*
G02*
X153818000Y-98783000I0J-150000D01*
G01*
X153818000Y-99083000D01*
G75*
G02*
X153668000Y-99233000I-150000J0D01*
G01*
X152018000Y-99233000D01*
G75*
G02*
X151868000Y-99083000I0J150000D01*
G01*
G37*
G36*
G01*
X151868000Y-100353000D02*
X151868000Y-100053000D01*
G75*
G02*
X152018000Y-99903000I150000J0D01*
G01*
X153668000Y-99903000D01*
G75*
G02*
X153818000Y-100053000I0J-150000D01*
G01*
X153818000Y-100353000D01*
G75*
G02*
X153668000Y-100503000I-150000J0D01*
G01*
X152018000Y-100503000D01*
G75*
G02*
X151868000Y-100353000I0J150000D01*
G01*
G37*
G36*
G01*
X151868000Y-101623000D02*
X151868000Y-101323000D01*
G75*
G02*
X152018000Y-101173000I150000J0D01*
G01*
X153668000Y-101173000D01*
G75*
G02*
X153818000Y-101323000I0J-150000D01*
G01*
X153818000Y-101623000D01*
G75*
G02*
X153668000Y-101773000I-150000J0D01*
G01*
X152018000Y-101773000D01*
G75*
G02*
X151868000Y-101623000I0J150000D01*
G01*
G37*
G36*
G01*
X151868000Y-102893000D02*
X151868000Y-102593000D01*
G75*
G02*
X152018000Y-102443000I150000J0D01*
G01*
X153668000Y-102443000D01*
G75*
G02*
X153818000Y-102593000I0J-150000D01*
G01*
X153818000Y-102893000D01*
G75*
G02*
X153668000Y-103043000I-150000J0D01*
G01*
X152018000Y-103043000D01*
G75*
G02*
X151868000Y-102893000I0J150000D01*
G01*
G37*
G36*
G01*
X151868000Y-104163000D02*
X151868000Y-103863000D01*
G75*
G02*
X152018000Y-103713000I150000J0D01*
G01*
X153668000Y-103713000D01*
G75*
G02*
X153818000Y-103863000I0J-150000D01*
G01*
X153818000Y-104163000D01*
G75*
G02*
X153668000Y-104313000I-150000J0D01*
G01*
X152018000Y-104313000D01*
G75*
G02*
X151868000Y-104163000I0J150000D01*
G01*
G37*
G36*
G01*
X151868000Y-105433000D02*
X151868000Y-105133000D01*
G75*
G02*
X152018000Y-104983000I150000J0D01*
G01*
X153668000Y-104983000D01*
G75*
G02*
X153818000Y-105133000I0J-150000D01*
G01*
X153818000Y-105433000D01*
G75*
G02*
X153668000Y-105583000I-150000J0D01*
G01*
X152018000Y-105583000D01*
G75*
G02*
X151868000Y-105433000I0J150000D01*
G01*
G37*
G36*
G01*
X151868000Y-106703000D02*
X151868000Y-106403000D01*
G75*
G02*
X152018000Y-106253000I150000J0D01*
G01*
X153668000Y-106253000D01*
G75*
G02*
X153818000Y-106403000I0J-150000D01*
G01*
X153818000Y-106703000D01*
G75*
G02*
X153668000Y-106853000I-150000J0D01*
G01*
X152018000Y-106853000D01*
G75*
G02*
X151868000Y-106703000I0J150000D01*
G01*
G37*
G36*
G01*
X151868000Y-107973000D02*
X151868000Y-107673000D01*
G75*
G02*
X152018000Y-107523000I150000J0D01*
G01*
X153668000Y-107523000D01*
G75*
G02*
X153818000Y-107673000I0J-150000D01*
G01*
X153818000Y-107973000D01*
G75*
G02*
X153668000Y-108123000I-150000J0D01*
G01*
X152018000Y-108123000D01*
G75*
G02*
X151868000Y-107973000I0J150000D01*
G01*
G37*
G36*
G01*
X146918000Y-107973000D02*
X146918000Y-107673000D01*
G75*
G02*
X147068000Y-107523000I150000J0D01*
G01*
X148718000Y-107523000D01*
G75*
G02*
X148868000Y-107673000I0J-150000D01*
G01*
X148868000Y-107973000D01*
G75*
G02*
X148718000Y-108123000I-150000J0D01*
G01*
X147068000Y-108123000D01*
G75*
G02*
X146918000Y-107973000I0J150000D01*
G01*
G37*
G36*
G01*
X146918000Y-106703000D02*
X146918000Y-106403000D01*
G75*
G02*
X147068000Y-106253000I150000J0D01*
G01*
X148718000Y-106253000D01*
G75*
G02*
X148868000Y-106403000I0J-150000D01*
G01*
X148868000Y-106703000D01*
G75*
G02*
X148718000Y-106853000I-150000J0D01*
G01*
X147068000Y-106853000D01*
G75*
G02*
X146918000Y-106703000I0J150000D01*
G01*
G37*
G36*
G01*
X146918000Y-105433000D02*
X146918000Y-105133000D01*
G75*
G02*
X147068000Y-104983000I150000J0D01*
G01*
X148718000Y-104983000D01*
G75*
G02*
X148868000Y-105133000I0J-150000D01*
G01*
X148868000Y-105433000D01*
G75*
G02*
X148718000Y-105583000I-150000J0D01*
G01*
X147068000Y-105583000D01*
G75*
G02*
X146918000Y-105433000I0J150000D01*
G01*
G37*
G36*
G01*
X146918000Y-104163000D02*
X146918000Y-103863000D01*
G75*
G02*
X147068000Y-103713000I150000J0D01*
G01*
X148718000Y-103713000D01*
G75*
G02*
X148868000Y-103863000I0J-150000D01*
G01*
X148868000Y-104163000D01*
G75*
G02*
X148718000Y-104313000I-150000J0D01*
G01*
X147068000Y-104313000D01*
G75*
G02*
X146918000Y-104163000I0J150000D01*
G01*
G37*
G36*
G01*
X146918000Y-102893000D02*
X146918000Y-102593000D01*
G75*
G02*
X147068000Y-102443000I150000J0D01*
G01*
X148718000Y-102443000D01*
G75*
G02*
X148868000Y-102593000I0J-150000D01*
G01*
X148868000Y-102893000D01*
G75*
G02*
X148718000Y-103043000I-150000J0D01*
G01*
X147068000Y-103043000D01*
G75*
G02*
X146918000Y-102893000I0J150000D01*
G01*
G37*
G36*
G01*
X146918000Y-101623000D02*
X146918000Y-101323000D01*
G75*
G02*
X147068000Y-101173000I150000J0D01*
G01*
X148718000Y-101173000D01*
G75*
G02*
X148868000Y-101323000I0J-150000D01*
G01*
X148868000Y-101623000D01*
G75*
G02*
X148718000Y-101773000I-150000J0D01*
G01*
X147068000Y-101773000D01*
G75*
G02*
X146918000Y-101623000I0J150000D01*
G01*
G37*
G36*
G01*
X146918000Y-100353000D02*
X146918000Y-100053000D01*
G75*
G02*
X147068000Y-99903000I150000J0D01*
G01*
X148718000Y-99903000D01*
G75*
G02*
X148868000Y-100053000I0J-150000D01*
G01*
X148868000Y-100353000D01*
G75*
G02*
X148718000Y-100503000I-150000J0D01*
G01*
X147068000Y-100503000D01*
G75*
G02*
X146918000Y-100353000I0J150000D01*
G01*
G37*
G36*
G01*
X146918000Y-99083000D02*
X146918000Y-98783000D01*
G75*
G02*
X147068000Y-98633000I150000J0D01*
G01*
X148718000Y-98633000D01*
G75*
G02*
X148868000Y-98783000I0J-150000D01*
G01*
X148868000Y-99083000D01*
G75*
G02*
X148718000Y-99233000I-150000J0D01*
G01*
X147068000Y-99233000D01*
G75*
G02*
X146918000Y-99083000I0J150000D01*
G01*
G37*
%TD*%
%TO.C,U1*%
G36*
G01*
X146200000Y-88032000D02*
X145900000Y-88032000D01*
G75*
G02*
X145750000Y-87882000I0J150000D01*
G01*
X145750000Y-86232000D01*
G75*
G02*
X145900000Y-86082000I150000J0D01*
G01*
X146200000Y-86082000D01*
G75*
G02*
X146350000Y-86232000I0J-150000D01*
G01*
X146350000Y-87882000D01*
G75*
G02*
X146200000Y-88032000I-150000J0D01*
G01*
G37*
G36*
G01*
X147470000Y-88032000D02*
X147170000Y-88032000D01*
G75*
G02*
X147020000Y-87882000I0J150000D01*
G01*
X147020000Y-86232000D01*
G75*
G02*
X147170000Y-86082000I150000J0D01*
G01*
X147470000Y-86082000D01*
G75*
G02*
X147620000Y-86232000I0J-150000D01*
G01*
X147620000Y-87882000D01*
G75*
G02*
X147470000Y-88032000I-150000J0D01*
G01*
G37*
G36*
G01*
X148740000Y-88032000D02*
X148440000Y-88032000D01*
G75*
G02*
X148290000Y-87882000I0J150000D01*
G01*
X148290000Y-86232000D01*
G75*
G02*
X148440000Y-86082000I150000J0D01*
G01*
X148740000Y-86082000D01*
G75*
G02*
X148890000Y-86232000I0J-150000D01*
G01*
X148890000Y-87882000D01*
G75*
G02*
X148740000Y-88032000I-150000J0D01*
G01*
G37*
G36*
G01*
X150010000Y-88032000D02*
X149710000Y-88032000D01*
G75*
G02*
X149560000Y-87882000I0J150000D01*
G01*
X149560000Y-86232000D01*
G75*
G02*
X149710000Y-86082000I150000J0D01*
G01*
X150010000Y-86082000D01*
G75*
G02*
X150160000Y-86232000I0J-150000D01*
G01*
X150160000Y-87882000D01*
G75*
G02*
X150010000Y-88032000I-150000J0D01*
G01*
G37*
G36*
G01*
X151280000Y-88032000D02*
X150980000Y-88032000D01*
G75*
G02*
X150830000Y-87882000I0J150000D01*
G01*
X150830000Y-86232000D01*
G75*
G02*
X150980000Y-86082000I150000J0D01*
G01*
X151280000Y-86082000D01*
G75*
G02*
X151430000Y-86232000I0J-150000D01*
G01*
X151430000Y-87882000D01*
G75*
G02*
X151280000Y-88032000I-150000J0D01*
G01*
G37*
G36*
G01*
X152550000Y-88032000D02*
X152250000Y-88032000D01*
G75*
G02*
X152100000Y-87882000I0J150000D01*
G01*
X152100000Y-86232000D01*
G75*
G02*
X152250000Y-86082000I150000J0D01*
G01*
X152550000Y-86082000D01*
G75*
G02*
X152700000Y-86232000I0J-150000D01*
G01*
X152700000Y-87882000D01*
G75*
G02*
X152550000Y-88032000I-150000J0D01*
G01*
G37*
G36*
G01*
X153820000Y-88032000D02*
X153520000Y-88032000D01*
G75*
G02*
X153370000Y-87882000I0J150000D01*
G01*
X153370000Y-86232000D01*
G75*
G02*
X153520000Y-86082000I150000J0D01*
G01*
X153820000Y-86082000D01*
G75*
G02*
X153970000Y-86232000I0J-150000D01*
G01*
X153970000Y-87882000D01*
G75*
G02*
X153820000Y-88032000I-150000J0D01*
G01*
G37*
G36*
G01*
X153820000Y-83082000D02*
X153520000Y-83082000D01*
G75*
G02*
X153370000Y-82932000I0J150000D01*
G01*
X153370000Y-81282000D01*
G75*
G02*
X153520000Y-81132000I150000J0D01*
G01*
X153820000Y-81132000D01*
G75*
G02*
X153970000Y-81282000I0J-150000D01*
G01*
X153970000Y-82932000D01*
G75*
G02*
X153820000Y-83082000I-150000J0D01*
G01*
G37*
G36*
G01*
X152550000Y-83082000D02*
X152250000Y-83082000D01*
G75*
G02*
X152100000Y-82932000I0J150000D01*
G01*
X152100000Y-81282000D01*
G75*
G02*
X152250000Y-81132000I150000J0D01*
G01*
X152550000Y-81132000D01*
G75*
G02*
X152700000Y-81282000I0J-150000D01*
G01*
X152700000Y-82932000D01*
G75*
G02*
X152550000Y-83082000I-150000J0D01*
G01*
G37*
G36*
G01*
X151280000Y-83082000D02*
X150980000Y-83082000D01*
G75*
G02*
X150830000Y-82932000I0J150000D01*
G01*
X150830000Y-81282000D01*
G75*
G02*
X150980000Y-81132000I150000J0D01*
G01*
X151280000Y-81132000D01*
G75*
G02*
X151430000Y-81282000I0J-150000D01*
G01*
X151430000Y-82932000D01*
G75*
G02*
X151280000Y-83082000I-150000J0D01*
G01*
G37*
G36*
G01*
X150010000Y-83082000D02*
X149710000Y-83082000D01*
G75*
G02*
X149560000Y-82932000I0J150000D01*
G01*
X149560000Y-81282000D01*
G75*
G02*
X149710000Y-81132000I150000J0D01*
G01*
X150010000Y-81132000D01*
G75*
G02*
X150160000Y-81282000I0J-150000D01*
G01*
X150160000Y-82932000D01*
G75*
G02*
X150010000Y-83082000I-150000J0D01*
G01*
G37*
G36*
G01*
X148740000Y-83082000D02*
X148440000Y-83082000D01*
G75*
G02*
X148290000Y-82932000I0J150000D01*
G01*
X148290000Y-81282000D01*
G75*
G02*
X148440000Y-81132000I150000J0D01*
G01*
X148740000Y-81132000D01*
G75*
G02*
X148890000Y-81282000I0J-150000D01*
G01*
X148890000Y-82932000D01*
G75*
G02*
X148740000Y-83082000I-150000J0D01*
G01*
G37*
G36*
G01*
X147470000Y-83082000D02*
X147170000Y-83082000D01*
G75*
G02*
X147020000Y-82932000I0J150000D01*
G01*
X147020000Y-81282000D01*
G75*
G02*
X147170000Y-81132000I150000J0D01*
G01*
X147470000Y-81132000D01*
G75*
G02*
X147620000Y-81282000I0J-150000D01*
G01*
X147620000Y-82932000D01*
G75*
G02*
X147470000Y-83082000I-150000J0D01*
G01*
G37*
G36*
G01*
X146200000Y-83082000D02*
X145900000Y-83082000D01*
G75*
G02*
X145750000Y-82932000I0J150000D01*
G01*
X145750000Y-81282000D01*
G75*
G02*
X145900000Y-81132000I150000J0D01*
G01*
X146200000Y-81132000D01*
G75*
G02*
X146350000Y-81282000I0J-150000D01*
G01*
X146350000Y-82932000D01*
G75*
G02*
X146200000Y-83082000I-150000J0D01*
G01*
G37*
%TD*%
%TO.C,RV2*%
G36*
G01*
X168088000Y-76059000D02*
X168088000Y-74309000D01*
G75*
G02*
X168463000Y-73934000I375000J0D01*
G01*
X170213000Y-73934000D01*
G75*
G02*
X170588000Y-74309000I0J-375000D01*
G01*
X170588000Y-76059000D01*
G75*
G02*
X170213000Y-76434000I-375000J0D01*
G01*
X168463000Y-76434000D01*
G75*
G02*
X168088000Y-76059000I0J375000D01*
G01*
G37*
D12*
X159338000Y-75184000D03*
X164338000Y-75184000D03*
%TD*%
%TO.C,RV1*%
G36*
G01*
X139640000Y-76059000D02*
X139640000Y-74309000D01*
G75*
G02*
X140015000Y-73934000I375000J0D01*
G01*
X141765000Y-73934000D01*
G75*
G02*
X142140000Y-74309000I0J-375000D01*
G01*
X142140000Y-76059000D01*
G75*
G02*
X141765000Y-76434000I-375000J0D01*
G01*
X140015000Y-76434000D01*
G75*
G02*
X139640000Y-76059000I0J375000D01*
G01*
G37*
X130890000Y-75184000D03*
X135890000Y-75184000D03*
%TD*%
%TO.C,R40*%
G36*
G01*
X132821000Y-98089000D02*
X133371000Y-98089000D01*
G75*
G02*
X133571000Y-98289000I0J-200000D01*
G01*
X133571000Y-98689000D01*
G75*
G02*
X133371000Y-98889000I-200000J0D01*
G01*
X132821000Y-98889000D01*
G75*
G02*
X132621000Y-98689000I0J200000D01*
G01*
X132621000Y-98289000D01*
G75*
G02*
X132821000Y-98089000I200000J0D01*
G01*
G37*
G36*
G01*
X132821000Y-99739000D02*
X133371000Y-99739000D01*
G75*
G02*
X133571000Y-99939000I0J-200000D01*
G01*
X133571000Y-100339000D01*
G75*
G02*
X133371000Y-100539000I-200000J0D01*
G01*
X132821000Y-100539000D01*
G75*
G02*
X132621000Y-100339000I0J200000D01*
G01*
X132621000Y-99939000D01*
G75*
G02*
X132821000Y-99739000I200000J0D01*
G01*
G37*
%TD*%
%TO.C,R39*%
G36*
G01*
X152483000Y-89387000D02*
X152483000Y-89937000D01*
G75*
G02*
X152283000Y-90137000I-200000J0D01*
G01*
X151883000Y-90137000D01*
G75*
G02*
X151683000Y-89937000I0J200000D01*
G01*
X151683000Y-89387000D01*
G75*
G02*
X151883000Y-89187000I200000J0D01*
G01*
X152283000Y-89187000D01*
G75*
G02*
X152483000Y-89387000I0J-200000D01*
G01*
G37*
G36*
G01*
X154133000Y-89387000D02*
X154133000Y-89937000D01*
G75*
G02*
X153933000Y-90137000I-200000J0D01*
G01*
X153533000Y-90137000D01*
G75*
G02*
X153333000Y-89937000I0J200000D01*
G01*
X153333000Y-89387000D01*
G75*
G02*
X153533000Y-89187000I200000J0D01*
G01*
X153933000Y-89187000D01*
G75*
G02*
X154133000Y-89387000I0J-200000D01*
G01*
G37*
%TD*%
%TO.C,R38*%
G36*
G01*
X153333000Y-91715000D02*
X153333000Y-91165000D01*
G75*
G02*
X153533000Y-90965000I200000J0D01*
G01*
X153933000Y-90965000D01*
G75*
G02*
X154133000Y-91165000I0J-200000D01*
G01*
X154133000Y-91715000D01*
G75*
G02*
X153933000Y-91915000I-200000J0D01*
G01*
X153533000Y-91915000D01*
G75*
G02*
X153333000Y-91715000I0J200000D01*
G01*
G37*
G36*
G01*
X151683000Y-91715000D02*
X151683000Y-91165000D01*
G75*
G02*
X151883000Y-90965000I200000J0D01*
G01*
X152283000Y-90965000D01*
G75*
G02*
X152483000Y-91165000I0J-200000D01*
G01*
X152483000Y-91715000D01*
G75*
G02*
X152283000Y-91915000I-200000J0D01*
G01*
X151883000Y-91915000D01*
G75*
G02*
X151683000Y-91715000I0J200000D01*
G01*
G37*
%TD*%
%TO.C,R37*%
G36*
G01*
X136377000Y-105073000D02*
X136927000Y-105073000D01*
G75*
G02*
X137127000Y-105273000I0J-200000D01*
G01*
X137127000Y-105673000D01*
G75*
G02*
X136927000Y-105873000I-200000J0D01*
G01*
X136377000Y-105873000D01*
G75*
G02*
X136177000Y-105673000I0J200000D01*
G01*
X136177000Y-105273000D01*
G75*
G02*
X136377000Y-105073000I200000J0D01*
G01*
G37*
G36*
G01*
X136377000Y-103423000D02*
X136927000Y-103423000D01*
G75*
G02*
X137127000Y-103623000I0J-200000D01*
G01*
X137127000Y-104023000D01*
G75*
G02*
X136927000Y-104223000I-200000J0D01*
G01*
X136377000Y-104223000D01*
G75*
G02*
X136177000Y-104023000I0J200000D01*
G01*
X136177000Y-103623000D01*
G75*
G02*
X136377000Y-103423000I200000J0D01*
G01*
G37*
%TD*%
%TO.C,R36*%
G36*
G01*
X131043000Y-104693000D02*
X131593000Y-104693000D01*
G75*
G02*
X131793000Y-104893000I0J-200000D01*
G01*
X131793000Y-105293000D01*
G75*
G02*
X131593000Y-105493000I-200000J0D01*
G01*
X131043000Y-105493000D01*
G75*
G02*
X130843000Y-105293000I0J200000D01*
G01*
X130843000Y-104893000D01*
G75*
G02*
X131043000Y-104693000I200000J0D01*
G01*
G37*
G36*
G01*
X131043000Y-106343000D02*
X131593000Y-106343000D01*
G75*
G02*
X131793000Y-106543000I0J-200000D01*
G01*
X131793000Y-106943000D01*
G75*
G02*
X131593000Y-107143000I-200000J0D01*
G01*
X131043000Y-107143000D01*
G75*
G02*
X130843000Y-106943000I0J200000D01*
G01*
X130843000Y-106543000D01*
G75*
G02*
X131043000Y-106343000I200000J0D01*
G01*
G37*
%TD*%
%TO.C,R35*%
G36*
G01*
X137647000Y-111931000D02*
X138197000Y-111931000D01*
G75*
G02*
X138397000Y-112131000I0J-200000D01*
G01*
X138397000Y-112531000D01*
G75*
G02*
X138197000Y-112731000I-200000J0D01*
G01*
X137647000Y-112731000D01*
G75*
G02*
X137447000Y-112531000I0J200000D01*
G01*
X137447000Y-112131000D01*
G75*
G02*
X137647000Y-111931000I200000J0D01*
G01*
G37*
G36*
G01*
X137647000Y-110281000D02*
X138197000Y-110281000D01*
G75*
G02*
X138397000Y-110481000I0J-200000D01*
G01*
X138397000Y-110881000D01*
G75*
G02*
X138197000Y-111081000I-200000J0D01*
G01*
X137647000Y-111081000D01*
G75*
G02*
X137447000Y-110881000I0J200000D01*
G01*
X137447000Y-110481000D01*
G75*
G02*
X137647000Y-110281000I200000J0D01*
G01*
G37*
%TD*%
%TO.C,R34*%
G36*
G01*
X138705000Y-100413000D02*
X138155000Y-100413000D01*
G75*
G02*
X137955000Y-100213000I0J200000D01*
G01*
X137955000Y-99813000D01*
G75*
G02*
X138155000Y-99613000I200000J0D01*
G01*
X138705000Y-99613000D01*
G75*
G02*
X138905000Y-99813000I0J-200000D01*
G01*
X138905000Y-100213000D01*
G75*
G02*
X138705000Y-100413000I-200000J0D01*
G01*
G37*
G36*
G01*
X138705000Y-102063000D02*
X138155000Y-102063000D01*
G75*
G02*
X137955000Y-101863000I0J200000D01*
G01*
X137955000Y-101463000D01*
G75*
G02*
X138155000Y-101263000I200000J0D01*
G01*
X138705000Y-101263000D01*
G75*
G02*
X138905000Y-101463000I0J-200000D01*
G01*
X138905000Y-101863000D01*
G75*
G02*
X138705000Y-102063000I-200000J0D01*
G01*
G37*
%TD*%
%TO.C,R33*%
G36*
G01*
X164763000Y-84095000D02*
X164763000Y-83545000D01*
G75*
G02*
X164963000Y-83345000I200000J0D01*
G01*
X165363000Y-83345000D01*
G75*
G02*
X165563000Y-83545000I0J-200000D01*
G01*
X165563000Y-84095000D01*
G75*
G02*
X165363000Y-84295000I-200000J0D01*
G01*
X164963000Y-84295000D01*
G75*
G02*
X164763000Y-84095000I0J200000D01*
G01*
G37*
G36*
G01*
X163113000Y-84095000D02*
X163113000Y-83545000D01*
G75*
G02*
X163313000Y-83345000I200000J0D01*
G01*
X163713000Y-83345000D01*
G75*
G02*
X163913000Y-83545000I0J-200000D01*
G01*
X163913000Y-84095000D01*
G75*
G02*
X163713000Y-84295000I-200000J0D01*
G01*
X163313000Y-84295000D01*
G75*
G02*
X163113000Y-84095000I0J200000D01*
G01*
G37*
%TD*%
%TO.C,R32*%
G36*
G01*
X161969000Y-78507000D02*
X161969000Y-77957000D01*
G75*
G02*
X162169000Y-77757000I200000J0D01*
G01*
X162569000Y-77757000D01*
G75*
G02*
X162769000Y-77957000I0J-200000D01*
G01*
X162769000Y-78507000D01*
G75*
G02*
X162569000Y-78707000I-200000J0D01*
G01*
X162169000Y-78707000D01*
G75*
G02*
X161969000Y-78507000I0J200000D01*
G01*
G37*
G36*
G01*
X160319000Y-78507000D02*
X160319000Y-77957000D01*
G75*
G02*
X160519000Y-77757000I200000J0D01*
G01*
X160919000Y-77757000D01*
G75*
G02*
X161119000Y-77957000I0J-200000D01*
G01*
X161119000Y-78507000D01*
G75*
G02*
X160919000Y-78707000I-200000J0D01*
G01*
X160519000Y-78707000D01*
G75*
G02*
X160319000Y-78507000I0J200000D01*
G01*
G37*
%TD*%
%TO.C,R31*%
G36*
G01*
X164763000Y-85873000D02*
X164763000Y-85323000D01*
G75*
G02*
X164963000Y-85123000I200000J0D01*
G01*
X165363000Y-85123000D01*
G75*
G02*
X165563000Y-85323000I0J-200000D01*
G01*
X165563000Y-85873000D01*
G75*
G02*
X165363000Y-86073000I-200000J0D01*
G01*
X164963000Y-86073000D01*
G75*
G02*
X164763000Y-85873000I0J200000D01*
G01*
G37*
G36*
G01*
X163113000Y-85873000D02*
X163113000Y-85323000D01*
G75*
G02*
X163313000Y-85123000I200000J0D01*
G01*
X163713000Y-85123000D01*
G75*
G02*
X163913000Y-85323000I0J-200000D01*
G01*
X163913000Y-85873000D01*
G75*
G02*
X163713000Y-86073000I-200000J0D01*
G01*
X163313000Y-86073000D01*
G75*
G02*
X163113000Y-85873000I0J200000D01*
G01*
G37*
%TD*%
%TO.C,R30*%
G36*
G01*
X164763000Y-87651000D02*
X164763000Y-87101000D01*
G75*
G02*
X164963000Y-86901000I200000J0D01*
G01*
X165363000Y-86901000D01*
G75*
G02*
X165563000Y-87101000I0J-200000D01*
G01*
X165563000Y-87651000D01*
G75*
G02*
X165363000Y-87851000I-200000J0D01*
G01*
X164963000Y-87851000D01*
G75*
G02*
X164763000Y-87651000I0J200000D01*
G01*
G37*
G36*
G01*
X163113000Y-87651000D02*
X163113000Y-87101000D01*
G75*
G02*
X163313000Y-86901000I200000J0D01*
G01*
X163713000Y-86901000D01*
G75*
G02*
X163913000Y-87101000I0J-200000D01*
G01*
X163913000Y-87651000D01*
G75*
G02*
X163713000Y-87851000I-200000J0D01*
G01*
X163313000Y-87851000D01*
G75*
G02*
X163113000Y-87651000I0J200000D01*
G01*
G37*
%TD*%
%TO.C,R29*%
G36*
G01*
X147849000Y-95079000D02*
X147299000Y-95079000D01*
G75*
G02*
X147099000Y-94879000I0J200000D01*
G01*
X147099000Y-94479000D01*
G75*
G02*
X147299000Y-94279000I200000J0D01*
G01*
X147849000Y-94279000D01*
G75*
G02*
X148049000Y-94479000I0J-200000D01*
G01*
X148049000Y-94879000D01*
G75*
G02*
X147849000Y-95079000I-200000J0D01*
G01*
G37*
G36*
G01*
X147849000Y-96729000D02*
X147299000Y-96729000D01*
G75*
G02*
X147099000Y-96529000I0J200000D01*
G01*
X147099000Y-96129000D01*
G75*
G02*
X147299000Y-95929000I200000J0D01*
G01*
X147849000Y-95929000D01*
G75*
G02*
X148049000Y-96129000I0J-200000D01*
G01*
X148049000Y-96529000D01*
G75*
G02*
X147849000Y-96729000I-200000J0D01*
G01*
G37*
%TD*%
%TO.C,R28*%
G36*
G01*
X161969000Y-80285000D02*
X161969000Y-79735000D01*
G75*
G02*
X162169000Y-79535000I200000J0D01*
G01*
X162569000Y-79535000D01*
G75*
G02*
X162769000Y-79735000I0J-200000D01*
G01*
X162769000Y-80285000D01*
G75*
G02*
X162569000Y-80485000I-200000J0D01*
G01*
X162169000Y-80485000D01*
G75*
G02*
X161969000Y-80285000I0J200000D01*
G01*
G37*
G36*
G01*
X160319000Y-80285000D02*
X160319000Y-79735000D01*
G75*
G02*
X160519000Y-79535000I200000J0D01*
G01*
X160919000Y-79535000D01*
G75*
G02*
X161119000Y-79735000I0J-200000D01*
G01*
X161119000Y-80285000D01*
G75*
G02*
X160919000Y-80485000I-200000J0D01*
G01*
X160519000Y-80485000D01*
G75*
G02*
X160319000Y-80285000I0J200000D01*
G01*
G37*
%TD*%
%TO.C,R27*%
G36*
G01*
X142793000Y-101875000D02*
X142793000Y-101325000D01*
G75*
G02*
X142993000Y-101125000I200000J0D01*
G01*
X143393000Y-101125000D01*
G75*
G02*
X143593000Y-101325000I0J-200000D01*
G01*
X143593000Y-101875000D01*
G75*
G02*
X143393000Y-102075000I-200000J0D01*
G01*
X142993000Y-102075000D01*
G75*
G02*
X142793000Y-101875000I0J200000D01*
G01*
G37*
G36*
G01*
X144443000Y-101875000D02*
X144443000Y-101325000D01*
G75*
G02*
X144643000Y-101125000I200000J0D01*
G01*
X145043000Y-101125000D01*
G75*
G02*
X145243000Y-101325000I0J-200000D01*
G01*
X145243000Y-101875000D01*
G75*
G02*
X145043000Y-102075000I-200000J0D01*
G01*
X144643000Y-102075000D01*
G75*
G02*
X144443000Y-101875000I0J200000D01*
G01*
G37*
%TD*%
%TO.C,R26*%
G36*
G01*
X144443000Y-98319000D02*
X144443000Y-97769000D01*
G75*
G02*
X144643000Y-97569000I200000J0D01*
G01*
X145043000Y-97569000D01*
G75*
G02*
X145243000Y-97769000I0J-200000D01*
G01*
X145243000Y-98319000D01*
G75*
G02*
X145043000Y-98519000I-200000J0D01*
G01*
X144643000Y-98519000D01*
G75*
G02*
X144443000Y-98319000I0J200000D01*
G01*
G37*
G36*
G01*
X142793000Y-98319000D02*
X142793000Y-97769000D01*
G75*
G02*
X142993000Y-97569000I200000J0D01*
G01*
X143393000Y-97569000D01*
G75*
G02*
X143593000Y-97769000I0J-200000D01*
G01*
X143593000Y-98319000D01*
G75*
G02*
X143393000Y-98519000I-200000J0D01*
G01*
X142993000Y-98519000D01*
G75*
G02*
X142793000Y-98319000I0J200000D01*
G01*
G37*
%TD*%
%TO.C,R25*%
G36*
G01*
X149627000Y-96729000D02*
X149077000Y-96729000D01*
G75*
G02*
X148877000Y-96529000I0J200000D01*
G01*
X148877000Y-96129000D01*
G75*
G02*
X149077000Y-95929000I200000J0D01*
G01*
X149627000Y-95929000D01*
G75*
G02*
X149827000Y-96129000I0J-200000D01*
G01*
X149827000Y-96529000D01*
G75*
G02*
X149627000Y-96729000I-200000J0D01*
G01*
G37*
G36*
G01*
X149627000Y-95079000D02*
X149077000Y-95079000D01*
G75*
G02*
X148877000Y-94879000I0J200000D01*
G01*
X148877000Y-94479000D01*
G75*
G02*
X149077000Y-94279000I200000J0D01*
G01*
X149627000Y-94279000D01*
G75*
G02*
X149827000Y-94479000I0J-200000D01*
G01*
X149827000Y-94879000D01*
G75*
G02*
X149627000Y-95079000I-200000J0D01*
G01*
G37*
%TD*%
%TO.C,R24*%
G36*
G01*
X144443000Y-100097000D02*
X144443000Y-99547000D01*
G75*
G02*
X144643000Y-99347000I200000J0D01*
G01*
X145043000Y-99347000D01*
G75*
G02*
X145243000Y-99547000I0J-200000D01*
G01*
X145243000Y-100097000D01*
G75*
G02*
X145043000Y-100297000I-200000J0D01*
G01*
X144643000Y-100297000D01*
G75*
G02*
X144443000Y-100097000I0J200000D01*
G01*
G37*
G36*
G01*
X142793000Y-100097000D02*
X142793000Y-99547000D01*
G75*
G02*
X142993000Y-99347000I200000J0D01*
G01*
X143393000Y-99347000D01*
G75*
G02*
X143593000Y-99547000I0J-200000D01*
G01*
X143593000Y-100097000D01*
G75*
G02*
X143393000Y-100297000I-200000J0D01*
G01*
X142993000Y-100297000D01*
G75*
G02*
X142793000Y-100097000I0J200000D01*
G01*
G37*
%TD*%
%TO.C,R23*%
G36*
G01*
X139467000Y-78315000D02*
X138917000Y-78315000D01*
G75*
G02*
X138717000Y-78115000I0J200000D01*
G01*
X138717000Y-77715000D01*
G75*
G02*
X138917000Y-77515000I200000J0D01*
G01*
X139467000Y-77515000D01*
G75*
G02*
X139667000Y-77715000I0J-200000D01*
G01*
X139667000Y-78115000D01*
G75*
G02*
X139467000Y-78315000I-200000J0D01*
G01*
G37*
G36*
G01*
X139467000Y-79965000D02*
X138917000Y-79965000D01*
G75*
G02*
X138717000Y-79765000I0J200000D01*
G01*
X138717000Y-79365000D01*
G75*
G02*
X138917000Y-79165000I200000J0D01*
G01*
X139467000Y-79165000D01*
G75*
G02*
X139667000Y-79365000I0J-200000D01*
G01*
X139667000Y-79765000D01*
G75*
G02*
X139467000Y-79965000I-200000J0D01*
G01*
G37*
%TD*%
%TO.C,R21*%
G36*
G01*
X140695000Y-79165000D02*
X141245000Y-79165000D01*
G75*
G02*
X141445000Y-79365000I0J-200000D01*
G01*
X141445000Y-79765000D01*
G75*
G02*
X141245000Y-79965000I-200000J0D01*
G01*
X140695000Y-79965000D01*
G75*
G02*
X140495000Y-79765000I0J200000D01*
G01*
X140495000Y-79365000D01*
G75*
G02*
X140695000Y-79165000I200000J0D01*
G01*
G37*
G36*
G01*
X140695000Y-77515000D02*
X141245000Y-77515000D01*
G75*
G02*
X141445000Y-77715000I0J-200000D01*
G01*
X141445000Y-78115000D01*
G75*
G02*
X141245000Y-78315000I-200000J0D01*
G01*
X140695000Y-78315000D01*
G75*
G02*
X140495000Y-78115000I0J200000D01*
G01*
X140495000Y-77715000D01*
G75*
G02*
X140695000Y-77515000I200000J0D01*
G01*
G37*
%TD*%
%TO.C,R20*%
G36*
G01*
X150705000Y-78211000D02*
X150705000Y-78761000D01*
G75*
G02*
X150505000Y-78961000I-200000J0D01*
G01*
X150105000Y-78961000D01*
G75*
G02*
X149905000Y-78761000I0J200000D01*
G01*
X149905000Y-78211000D01*
G75*
G02*
X150105000Y-78011000I200000J0D01*
G01*
X150505000Y-78011000D01*
G75*
G02*
X150705000Y-78211000I0J-200000D01*
G01*
G37*
G36*
G01*
X152355000Y-78211000D02*
X152355000Y-78761000D01*
G75*
G02*
X152155000Y-78961000I-200000J0D01*
G01*
X151755000Y-78961000D01*
G75*
G02*
X151555000Y-78761000I0J200000D01*
G01*
X151555000Y-78211000D01*
G75*
G02*
X151755000Y-78011000I200000J0D01*
G01*
X152155000Y-78011000D01*
G75*
G02*
X152355000Y-78211000I0J-200000D01*
G01*
G37*
%TD*%
%TO.C,R19*%
G36*
G01*
X147491000Y-79777000D02*
X147491000Y-79227000D01*
G75*
G02*
X147691000Y-79027000I200000J0D01*
G01*
X148091000Y-79027000D01*
G75*
G02*
X148291000Y-79227000I0J-200000D01*
G01*
X148291000Y-79777000D01*
G75*
G02*
X148091000Y-79977000I-200000J0D01*
G01*
X147691000Y-79977000D01*
G75*
G02*
X147491000Y-79777000I0J200000D01*
G01*
G37*
G36*
G01*
X145841000Y-79777000D02*
X145841000Y-79227000D01*
G75*
G02*
X146041000Y-79027000I200000J0D01*
G01*
X146441000Y-79027000D01*
G75*
G02*
X146641000Y-79227000I0J-200000D01*
G01*
X146641000Y-79777000D01*
G75*
G02*
X146441000Y-79977000I-200000J0D01*
G01*
X146041000Y-79977000D01*
G75*
G02*
X145841000Y-79777000I0J200000D01*
G01*
G37*
%TD*%
%TO.C,R18*%
G36*
G01*
X153437000Y-95079000D02*
X152887000Y-95079000D01*
G75*
G02*
X152687000Y-94879000I0J200000D01*
G01*
X152687000Y-94479000D01*
G75*
G02*
X152887000Y-94279000I200000J0D01*
G01*
X153437000Y-94279000D01*
G75*
G02*
X153637000Y-94479000I0J-200000D01*
G01*
X153637000Y-94879000D01*
G75*
G02*
X153437000Y-95079000I-200000J0D01*
G01*
G37*
G36*
G01*
X153437000Y-96729000D02*
X152887000Y-96729000D01*
G75*
G02*
X152687000Y-96529000I0J200000D01*
G01*
X152687000Y-96129000D01*
G75*
G02*
X152887000Y-95929000I200000J0D01*
G01*
X153437000Y-95929000D01*
G75*
G02*
X153637000Y-96129000I0J-200000D01*
G01*
X153637000Y-96529000D01*
G75*
G02*
X153437000Y-96729000I-200000J0D01*
G01*
G37*
%TD*%
%TO.C,R17*%
G36*
G01*
X147491000Y-77999000D02*
X147491000Y-77449000D01*
G75*
G02*
X147691000Y-77249000I200000J0D01*
G01*
X148091000Y-77249000D01*
G75*
G02*
X148291000Y-77449000I0J-200000D01*
G01*
X148291000Y-77999000D01*
G75*
G02*
X148091000Y-78199000I-200000J0D01*
G01*
X147691000Y-78199000D01*
G75*
G02*
X147491000Y-77999000I0J200000D01*
G01*
G37*
G36*
G01*
X145841000Y-77999000D02*
X145841000Y-77449000D01*
G75*
G02*
X146041000Y-77249000I200000J0D01*
G01*
X146441000Y-77249000D01*
G75*
G02*
X146641000Y-77449000I0J-200000D01*
G01*
X146641000Y-77999000D01*
G75*
G02*
X146441000Y-78199000I-200000J0D01*
G01*
X146041000Y-78199000D01*
G75*
G02*
X145841000Y-77999000I0J200000D01*
G01*
G37*
%TD*%
%TO.C,R16*%
G36*
G01*
X157943000Y-101579000D02*
X157943000Y-102129000D01*
G75*
G02*
X157743000Y-102329000I-200000J0D01*
G01*
X157343000Y-102329000D01*
G75*
G02*
X157143000Y-102129000I0J200000D01*
G01*
X157143000Y-101579000D01*
G75*
G02*
X157343000Y-101379000I200000J0D01*
G01*
X157743000Y-101379000D01*
G75*
G02*
X157943000Y-101579000I0J-200000D01*
G01*
G37*
G36*
G01*
X156293000Y-101579000D02*
X156293000Y-102129000D01*
G75*
G02*
X156093000Y-102329000I-200000J0D01*
G01*
X155693000Y-102329000D01*
G75*
G02*
X155493000Y-102129000I0J200000D01*
G01*
X155493000Y-101579000D01*
G75*
G02*
X155693000Y-101379000I200000J0D01*
G01*
X156093000Y-101379000D01*
G75*
G02*
X156293000Y-101579000I0J-200000D01*
G01*
G37*
%TD*%
%TO.C,R15*%
G36*
G01*
X156293000Y-96245000D02*
X156293000Y-96795000D01*
G75*
G02*
X156093000Y-96995000I-200000J0D01*
G01*
X155693000Y-96995000D01*
G75*
G02*
X155493000Y-96795000I0J200000D01*
G01*
X155493000Y-96245000D01*
G75*
G02*
X155693000Y-96045000I200000J0D01*
G01*
X156093000Y-96045000D01*
G75*
G02*
X156293000Y-96245000I0J-200000D01*
G01*
G37*
G36*
G01*
X157943000Y-96245000D02*
X157943000Y-96795000D01*
G75*
G02*
X157743000Y-96995000I-200000J0D01*
G01*
X157343000Y-96995000D01*
G75*
G02*
X157143000Y-96795000I0J200000D01*
G01*
X157143000Y-96245000D01*
G75*
G02*
X157343000Y-96045000I200000J0D01*
G01*
X157743000Y-96045000D01*
G75*
G02*
X157943000Y-96245000I0J-200000D01*
G01*
G37*
%TD*%
%TO.C,R14*%
G36*
G01*
X151659000Y-95079000D02*
X151109000Y-95079000D01*
G75*
G02*
X150909000Y-94879000I0J200000D01*
G01*
X150909000Y-94479000D01*
G75*
G02*
X151109000Y-94279000I200000J0D01*
G01*
X151659000Y-94279000D01*
G75*
G02*
X151859000Y-94479000I0J-200000D01*
G01*
X151859000Y-94879000D01*
G75*
G02*
X151659000Y-95079000I-200000J0D01*
G01*
G37*
G36*
G01*
X151659000Y-96729000D02*
X151109000Y-96729000D01*
G75*
G02*
X150909000Y-96529000I0J200000D01*
G01*
X150909000Y-96129000D01*
G75*
G02*
X151109000Y-95929000I200000J0D01*
G01*
X151659000Y-95929000D01*
G75*
G02*
X151859000Y-96129000I0J-200000D01*
G01*
X151859000Y-96529000D01*
G75*
G02*
X151659000Y-96729000I-200000J0D01*
G01*
G37*
%TD*%
%TO.C,R13*%
G36*
G01*
X156293000Y-98023000D02*
X156293000Y-98573000D01*
G75*
G02*
X156093000Y-98773000I-200000J0D01*
G01*
X155693000Y-98773000D01*
G75*
G02*
X155493000Y-98573000I0J200000D01*
G01*
X155493000Y-98023000D01*
G75*
G02*
X155693000Y-97823000I200000J0D01*
G01*
X156093000Y-97823000D01*
G75*
G02*
X156293000Y-98023000I0J-200000D01*
G01*
G37*
G36*
G01*
X157943000Y-98023000D02*
X157943000Y-98573000D01*
G75*
G02*
X157743000Y-98773000I-200000J0D01*
G01*
X157343000Y-98773000D01*
G75*
G02*
X157143000Y-98573000I0J200000D01*
G01*
X157143000Y-98023000D01*
G75*
G02*
X157343000Y-97823000I200000J0D01*
G01*
X157743000Y-97823000D01*
G75*
G02*
X157943000Y-98023000I0J-200000D01*
G01*
G37*
%TD*%
%TO.C,R12*%
G36*
G01*
X157143000Y-100351000D02*
X157143000Y-99801000D01*
G75*
G02*
X157343000Y-99601000I200000J0D01*
G01*
X157743000Y-99601000D01*
G75*
G02*
X157943000Y-99801000I0J-200000D01*
G01*
X157943000Y-100351000D01*
G75*
G02*
X157743000Y-100551000I-200000J0D01*
G01*
X157343000Y-100551000D01*
G75*
G02*
X157143000Y-100351000I0J200000D01*
G01*
G37*
G36*
G01*
X155493000Y-100351000D02*
X155493000Y-99801000D01*
G75*
G02*
X155693000Y-99601000I200000J0D01*
G01*
X156093000Y-99601000D01*
G75*
G02*
X156293000Y-99801000I0J-200000D01*
G01*
X156293000Y-100351000D01*
G75*
G02*
X156093000Y-100551000I-200000J0D01*
G01*
X155693000Y-100551000D01*
G75*
G02*
X155493000Y-100351000I0J200000D01*
G01*
G37*
%TD*%
%TO.C,R11*%
G36*
G01*
X164063000Y-106343000D02*
X164613000Y-106343000D01*
G75*
G02*
X164813000Y-106543000I0J-200000D01*
G01*
X164813000Y-106943000D01*
G75*
G02*
X164613000Y-107143000I-200000J0D01*
G01*
X164063000Y-107143000D01*
G75*
G02*
X163863000Y-106943000I0J200000D01*
G01*
X163863000Y-106543000D01*
G75*
G02*
X164063000Y-106343000I200000J0D01*
G01*
G37*
G36*
G01*
X164063000Y-104693000D02*
X164613000Y-104693000D01*
G75*
G02*
X164813000Y-104893000I0J-200000D01*
G01*
X164813000Y-105293000D01*
G75*
G02*
X164613000Y-105493000I-200000J0D01*
G01*
X164063000Y-105493000D01*
G75*
G02*
X163863000Y-105293000I0J200000D01*
G01*
X163863000Y-104893000D01*
G75*
G02*
X164063000Y-104693000I200000J0D01*
G01*
G37*
%TD*%
%TO.C,R10*%
G36*
G01*
X166287000Y-95271000D02*
X166287000Y-94721000D01*
G75*
G02*
X166487000Y-94521000I200000J0D01*
G01*
X166887000Y-94521000D01*
G75*
G02*
X167087000Y-94721000I0J-200000D01*
G01*
X167087000Y-95271000D01*
G75*
G02*
X166887000Y-95471000I-200000J0D01*
G01*
X166487000Y-95471000D01*
G75*
G02*
X166287000Y-95271000I0J200000D01*
G01*
G37*
G36*
G01*
X164637000Y-95271000D02*
X164637000Y-94721000D01*
G75*
G02*
X164837000Y-94521000I200000J0D01*
G01*
X165237000Y-94521000D01*
G75*
G02*
X165437000Y-94721000I0J-200000D01*
G01*
X165437000Y-95271000D01*
G75*
G02*
X165237000Y-95471000I-200000J0D01*
G01*
X164837000Y-95471000D01*
G75*
G02*
X164637000Y-95271000I0J200000D01*
G01*
G37*
%TD*%
%TO.C,R9*%
G36*
G01*
X166287000Y-97049000D02*
X166287000Y-96499000D01*
G75*
G02*
X166487000Y-96299000I200000J0D01*
G01*
X166887000Y-96299000D01*
G75*
G02*
X167087000Y-96499000I0J-200000D01*
G01*
X167087000Y-97049000D01*
G75*
G02*
X166887000Y-97249000I-200000J0D01*
G01*
X166487000Y-97249000D01*
G75*
G02*
X166287000Y-97049000I0J200000D01*
G01*
G37*
G36*
G01*
X164637000Y-97049000D02*
X164637000Y-96499000D01*
G75*
G02*
X164837000Y-96299000I200000J0D01*
G01*
X165237000Y-96299000D01*
G75*
G02*
X165437000Y-96499000I0J-200000D01*
G01*
X165437000Y-97049000D01*
G75*
G02*
X165237000Y-97249000I-200000J0D01*
G01*
X164837000Y-97249000D01*
G75*
G02*
X164637000Y-97049000I0J200000D01*
G01*
G37*
%TD*%
%TO.C,R8*%
G36*
G01*
X136798000Y-86048002D02*
X136798000Y-85147998D01*
G75*
G02*
X137047998Y-84898000I249998J0D01*
G01*
X137573002Y-84898000D01*
G75*
G02*
X137823000Y-85147998I0J-249998D01*
G01*
X137823000Y-86048002D01*
G75*
G02*
X137573002Y-86298000I-249998J0D01*
G01*
X137047998Y-86298000D01*
G75*
G02*
X136798000Y-86048002I0J249998D01*
G01*
G37*
G36*
G01*
X134973000Y-86048002D02*
X134973000Y-85147998D01*
G75*
G02*
X135222998Y-84898000I249998J0D01*
G01*
X135748002Y-84898000D01*
G75*
G02*
X135998000Y-85147998I0J-249998D01*
G01*
X135998000Y-86048002D01*
G75*
G02*
X135748002Y-86298000I-249998J0D01*
G01*
X135222998Y-86298000D01*
G75*
G02*
X134973000Y-86048002I0J249998D01*
G01*
G37*
%TD*%
%TO.C,R7*%
G36*
G01*
X165079000Y-111106000D02*
X165629000Y-111106000D01*
G75*
G02*
X165829000Y-111306000I0J-200000D01*
G01*
X165829000Y-111706000D01*
G75*
G02*
X165629000Y-111906000I-200000J0D01*
G01*
X165079000Y-111906000D01*
G75*
G02*
X164879000Y-111706000I0J200000D01*
G01*
X164879000Y-111306000D01*
G75*
G02*
X165079000Y-111106000I200000J0D01*
G01*
G37*
G36*
G01*
X165079000Y-109456000D02*
X165629000Y-109456000D01*
G75*
G02*
X165829000Y-109656000I0J-200000D01*
G01*
X165829000Y-110056000D01*
G75*
G02*
X165629000Y-110256000I-200000J0D01*
G01*
X165079000Y-110256000D01*
G75*
G02*
X164879000Y-110056000I0J200000D01*
G01*
X164879000Y-109656000D01*
G75*
G02*
X165079000Y-109456000I200000J0D01*
G01*
G37*
%TD*%
%TO.C,R6*%
G36*
G01*
X167407000Y-111906000D02*
X166857000Y-111906000D01*
G75*
G02*
X166657000Y-111706000I0J200000D01*
G01*
X166657000Y-111306000D01*
G75*
G02*
X166857000Y-111106000I200000J0D01*
G01*
X167407000Y-111106000D01*
G75*
G02*
X167607000Y-111306000I0J-200000D01*
G01*
X167607000Y-111706000D01*
G75*
G02*
X167407000Y-111906000I-200000J0D01*
G01*
G37*
G36*
G01*
X167407000Y-110256000D02*
X166857000Y-110256000D01*
G75*
G02*
X166657000Y-110056000I0J200000D01*
G01*
X166657000Y-109656000D01*
G75*
G02*
X166857000Y-109456000I200000J0D01*
G01*
X167407000Y-109456000D01*
G75*
G02*
X167607000Y-109656000I0J-200000D01*
G01*
X167607000Y-110056000D01*
G75*
G02*
X167407000Y-110256000I-200000J0D01*
G01*
G37*
%TD*%
%TO.C,R5*%
G36*
G01*
X167087000Y-101833000D02*
X167087000Y-102383000D01*
G75*
G02*
X166887000Y-102583000I-200000J0D01*
G01*
X166487000Y-102583000D01*
G75*
G02*
X166287000Y-102383000I0J200000D01*
G01*
X166287000Y-101833000D01*
G75*
G02*
X166487000Y-101633000I200000J0D01*
G01*
X166887000Y-101633000D01*
G75*
G02*
X167087000Y-101833000I0J-200000D01*
G01*
G37*
G36*
G01*
X165437000Y-101833000D02*
X165437000Y-102383000D01*
G75*
G02*
X165237000Y-102583000I-200000J0D01*
G01*
X164837000Y-102583000D01*
G75*
G02*
X164637000Y-102383000I0J200000D01*
G01*
X164637000Y-101833000D01*
G75*
G02*
X164837000Y-101633000I200000J0D01*
G01*
X165237000Y-101633000D01*
G75*
G02*
X165437000Y-101833000I0J-200000D01*
G01*
G37*
%TD*%
%TO.C,R4*%
G36*
G01*
X141395000Y-92223000D02*
X141395000Y-91673000D01*
G75*
G02*
X141595000Y-91473000I200000J0D01*
G01*
X141995000Y-91473000D01*
G75*
G02*
X142195000Y-91673000I0J-200000D01*
G01*
X142195000Y-92223000D01*
G75*
G02*
X141995000Y-92423000I-200000J0D01*
G01*
X141595000Y-92423000D01*
G75*
G02*
X141395000Y-92223000I0J200000D01*
G01*
G37*
G36*
G01*
X139745000Y-92223000D02*
X139745000Y-91673000D01*
G75*
G02*
X139945000Y-91473000I200000J0D01*
G01*
X140345000Y-91473000D01*
G75*
G02*
X140545000Y-91673000I0J-200000D01*
G01*
X140545000Y-92223000D01*
G75*
G02*
X140345000Y-92423000I-200000J0D01*
G01*
X139945000Y-92423000D01*
G75*
G02*
X139745000Y-92223000I0J200000D01*
G01*
G37*
%TD*%
%TO.C,R3*%
G36*
G01*
X165437000Y-98277000D02*
X165437000Y-98827000D01*
G75*
G02*
X165237000Y-99027000I-200000J0D01*
G01*
X164837000Y-99027000D01*
G75*
G02*
X164637000Y-98827000I0J200000D01*
G01*
X164637000Y-98277000D01*
G75*
G02*
X164837000Y-98077000I200000J0D01*
G01*
X165237000Y-98077000D01*
G75*
G02*
X165437000Y-98277000I0J-200000D01*
G01*
G37*
G36*
G01*
X167087000Y-98277000D02*
X167087000Y-98827000D01*
G75*
G02*
X166887000Y-99027000I-200000J0D01*
G01*
X166487000Y-99027000D01*
G75*
G02*
X166287000Y-98827000I0J200000D01*
G01*
X166287000Y-98277000D01*
G75*
G02*
X166487000Y-98077000I200000J0D01*
G01*
X166887000Y-98077000D01*
G75*
G02*
X167087000Y-98277000I0J-200000D01*
G01*
G37*
%TD*%
%TO.C,R2*%
G36*
G01*
X140545000Y-89895000D02*
X140545000Y-90445000D01*
G75*
G02*
X140345000Y-90645000I-200000J0D01*
G01*
X139945000Y-90645000D01*
G75*
G02*
X139745000Y-90445000I0J200000D01*
G01*
X139745000Y-89895000D01*
G75*
G02*
X139945000Y-89695000I200000J0D01*
G01*
X140345000Y-89695000D01*
G75*
G02*
X140545000Y-89895000I0J-200000D01*
G01*
G37*
G36*
G01*
X142195000Y-89895000D02*
X142195000Y-90445000D01*
G75*
G02*
X141995000Y-90645000I-200000J0D01*
G01*
X141595000Y-90645000D01*
G75*
G02*
X141395000Y-90445000I0J200000D01*
G01*
X141395000Y-89895000D01*
G75*
G02*
X141595000Y-89695000I200000J0D01*
G01*
X141995000Y-89695000D01*
G75*
G02*
X142195000Y-89895000I0J-200000D01*
G01*
G37*
%TD*%
%TO.C,R1*%
G36*
G01*
X141395000Y-88667000D02*
X141395000Y-88117000D01*
G75*
G02*
X141595000Y-87917000I200000J0D01*
G01*
X141995000Y-87917000D01*
G75*
G02*
X142195000Y-88117000I0J-200000D01*
G01*
X142195000Y-88667000D01*
G75*
G02*
X141995000Y-88867000I-200000J0D01*
G01*
X141595000Y-88867000D01*
G75*
G02*
X141395000Y-88667000I0J200000D01*
G01*
G37*
G36*
G01*
X139745000Y-88667000D02*
X139745000Y-88117000D01*
G75*
G02*
X139945000Y-87917000I200000J0D01*
G01*
X140345000Y-87917000D01*
G75*
G02*
X140545000Y-88117000I0J-200000D01*
G01*
X140545000Y-88667000D01*
G75*
G02*
X140345000Y-88867000I-200000J0D01*
G01*
X139945000Y-88867000D01*
G75*
G02*
X139745000Y-88667000I0J200000D01*
G01*
G37*
%TD*%
D13*
%TO.C,Q1*%
X135398000Y-88646000D03*
X137398000Y-87696000D03*
X137398000Y-89596000D03*
%TD*%
%TO.C,J5*%
G36*
G01*
X131356001Y-102904000D02*
X129755999Y-102904000D01*
G75*
G02*
X129506000Y-102654001I0J249999D01*
G01*
X129506000Y-101053999D01*
G75*
G02*
X129755999Y-100804000I249999J0D01*
G01*
X131356001Y-100804000D01*
G75*
G02*
X131606000Y-101053999I0J-249999D01*
G01*
X131606000Y-102654001D01*
G75*
G02*
X131356001Y-102904000I-249999J0D01*
G01*
G37*
D14*
X130556000Y-97254000D03*
%TD*%
%TO.C,J4*%
G36*
G01*
X131356001Y-111286000D02*
X129755999Y-111286000D01*
G75*
G02*
X129506000Y-111036001I0J249999D01*
G01*
X129506000Y-109435999D01*
G75*
G02*
X129755999Y-109186000I249999J0D01*
G01*
X131356001Y-109186000D01*
G75*
G02*
X131606000Y-109435999I0J-249999D01*
G01*
X131606000Y-111036001D01*
G75*
G02*
X131356001Y-111286000I-249999J0D01*
G01*
G37*
%TD*%
%TO.C,J3*%
G36*
G01*
X170472001Y-95538000D02*
X168871999Y-95538000D01*
G75*
G02*
X168622000Y-95288001I0J249999D01*
G01*
X168622000Y-93687999D01*
G75*
G02*
X168871999Y-93438000I249999J0D01*
G01*
X170472001Y-93438000D01*
G75*
G02*
X170722000Y-93687999I0J-249999D01*
G01*
X170722000Y-95288001D01*
G75*
G02*
X170472001Y-95538000I-249999J0D01*
G01*
G37*
X169672000Y-89888000D03*
%TD*%
%TO.C,J2*%
X130556000Y-93246000D03*
G36*
G01*
X129755999Y-87596000D02*
X131356001Y-87596000D01*
G75*
G02*
X131606000Y-87845999I0J-249999D01*
G01*
X131606000Y-89446001D01*
G75*
G02*
X131356001Y-89696000I-249999J0D01*
G01*
X129755999Y-89696000D01*
G75*
G02*
X129506000Y-89446001I0J249999D01*
G01*
X129506000Y-87845999D01*
G75*
G02*
X129755999Y-87596000I249999J0D01*
G01*
G37*
%TD*%
%TO.C,J1*%
X169672000Y-98524000D03*
G36*
G01*
X170472001Y-104174000D02*
X168871999Y-104174000D01*
G75*
G02*
X168622000Y-103924001I0J249999D01*
G01*
X168622000Y-102323999D01*
G75*
G02*
X168871999Y-102074000I249999J0D01*
G01*
X170472001Y-102074000D01*
G75*
G02*
X170722000Y-102323999I0J-249999D01*
G01*
X170722000Y-103924001D01*
G75*
G02*
X170472001Y-104174000I-249999J0D01*
G01*
G37*
%TD*%
D13*
%TO.C,D7*%
X155718000Y-90932000D03*
X157718000Y-89982000D03*
X157718000Y-91882000D03*
%TD*%
%TO.C,D6*%
X159528000Y-90932000D03*
X161528000Y-89982000D03*
X161528000Y-91882000D03*
%TD*%
%TO.C,D5*%
X163338000Y-90932000D03*
X165338000Y-89982000D03*
X165338000Y-91882000D03*
%TD*%
%TO.C,D4*%
X154702000Y-77790000D03*
X154702000Y-79690000D03*
X156702000Y-78740000D03*
%TD*%
%TO.C,D3*%
X159496000Y-87122000D03*
X157496000Y-88072000D03*
X157496000Y-86172000D03*
%TD*%
%TO.C,D2*%
X156702000Y-76134000D03*
X156702000Y-74234000D03*
X154702000Y-75184000D03*
%TD*%
%TO.C,D1*%
X135398000Y-92456000D03*
X137398000Y-91506000D03*
X137398000Y-93406000D03*
%TD*%
D10*
%TO.C,C15*%
X134874000Y-101600000D03*
X134874000Y-96600000D03*
%TD*%
%TO.C,C14*%
G36*
G01*
X133346000Y-105873000D02*
X132846000Y-105873000D01*
G75*
G02*
X132621000Y-105648000I0J225000D01*
G01*
X132621000Y-105198000D01*
G75*
G02*
X132846000Y-104973000I225000J0D01*
G01*
X133346000Y-104973000D01*
G75*
G02*
X133571000Y-105198000I0J-225000D01*
G01*
X133571000Y-105648000D01*
G75*
G02*
X133346000Y-105873000I-225000J0D01*
G01*
G37*
G36*
G01*
X133346000Y-104323000D02*
X132846000Y-104323000D01*
G75*
G02*
X132621000Y-104098000I0J225000D01*
G01*
X132621000Y-103648000D01*
G75*
G02*
X132846000Y-103423000I225000J0D01*
G01*
X133346000Y-103423000D01*
G75*
G02*
X133571000Y-103648000I0J-225000D01*
G01*
X133571000Y-104098000D01*
G75*
G02*
X133346000Y-104323000I-225000J0D01*
G01*
G37*
%TD*%
%TO.C,C13*%
G36*
G01*
X135894000Y-111831000D02*
X136394000Y-111831000D01*
G75*
G02*
X136619000Y-112056000I0J-225000D01*
G01*
X136619000Y-112506000D01*
G75*
G02*
X136394000Y-112731000I-225000J0D01*
G01*
X135894000Y-112731000D01*
G75*
G02*
X135669000Y-112506000I0J225000D01*
G01*
X135669000Y-112056000D01*
G75*
G02*
X135894000Y-111831000I225000J0D01*
G01*
G37*
G36*
G01*
X135894000Y-110281000D02*
X136394000Y-110281000D01*
G75*
G02*
X136619000Y-110506000I0J-225000D01*
G01*
X136619000Y-110956000D01*
G75*
G02*
X136394000Y-111181000I-225000J0D01*
G01*
X135894000Y-111181000D01*
G75*
G02*
X135669000Y-110956000I0J225000D01*
G01*
X135669000Y-110506000D01*
G75*
G02*
X135894000Y-110281000I225000J0D01*
G01*
G37*
%TD*%
%TO.C,C11*%
X155988000Y-81788000D03*
X157988000Y-81788000D03*
%TD*%
%TO.C,C10*%
X148876000Y-110490000D03*
D11*
X150876000Y-110490000D03*
%TD*%
D10*
%TO.C,C8*%
X142748000Y-83344000D03*
D11*
X142748000Y-85344000D03*
%TD*%
D10*
%TO.C,C7*%
X161036000Y-101092000D03*
X161036000Y-96092000D03*
%TD*%
%TO.C,C6*%
X140748000Y-110490000D03*
D11*
X142748000Y-110490000D03*
%TD*%
D15*
%TO.C,C5*%
X136906000Y-82550000D03*
D16*
X131906000Y-82550000D03*
%TD*%
%TO.C,C4*%
G36*
G01*
X163326000Y-109456000D02*
X163826000Y-109456000D01*
G75*
G02*
X164051000Y-109681000I0J-225000D01*
G01*
X164051000Y-110131000D01*
G75*
G02*
X163826000Y-110356000I-225000J0D01*
G01*
X163326000Y-110356000D01*
G75*
G02*
X163101000Y-110131000I0J225000D01*
G01*
X163101000Y-109681000D01*
G75*
G02*
X163326000Y-109456000I225000J0D01*
G01*
G37*
G36*
G01*
X163326000Y-111006000D02*
X163826000Y-111006000D01*
G75*
G02*
X164051000Y-111231000I0J-225000D01*
G01*
X164051000Y-111681000D01*
G75*
G02*
X163826000Y-111906000I-225000J0D01*
G01*
X163326000Y-111906000D01*
G75*
G02*
X163101000Y-111681000I0J225000D01*
G01*
X163101000Y-111231000D01*
G75*
G02*
X163326000Y-111006000I225000J0D01*
G01*
G37*
%TD*%
D10*
%TO.C,C3*%
X169672000Y-106760000D03*
X169672000Y-111760000D03*
%TD*%
%TO.C,C2*%
G36*
G01*
X166187000Y-100580000D02*
X166187000Y-100080000D01*
G75*
G02*
X166412000Y-99855000I225000J0D01*
G01*
X166862000Y-99855000D01*
G75*
G02*
X167087000Y-100080000I0J-225000D01*
G01*
X167087000Y-100580000D01*
G75*
G02*
X166862000Y-100805000I-225000J0D01*
G01*
X166412000Y-100805000D01*
G75*
G02*
X166187000Y-100580000I0J225000D01*
G01*
G37*
G36*
G01*
X164637000Y-100580000D02*
X164637000Y-100080000D01*
G75*
G02*
X164862000Y-99855000I225000J0D01*
G01*
X165312000Y-99855000D01*
G75*
G02*
X165537000Y-100080000I0J-225000D01*
G01*
X165537000Y-100580000D01*
G75*
G02*
X165312000Y-100805000I-225000J0D01*
G01*
X164862000Y-100805000D01*
G75*
G02*
X164637000Y-100580000I0J225000D01*
G01*
G37*
%TD*%
%TO.C,C1*%
X145796000Y-89948000D03*
D11*
X145796000Y-91948000D03*
%TD*%
M02*
