M48
; DRILL file {KiCad 5.1.9} date Mon Apr 12 02:58:08 2021
; FORMAT={-:-/ absolute / inch / decimal}
; #@! TF.CreationDate,2021-04-12T02:58:08-04:00
; #@! TF.GenerationSoftware,Kicad,Pcbnew,5.1.9
; #@! TF.FileFunction,Plated,1,2,PTH
FMAT,2
INCH
T1C0.0157
T2C0.0236
T3C0.0315
T4C0.0394
T5C0.0433
T6C0.0512
%
G90
G05
T1
X5.1Y-4.09
X5.25Y-2.91
X5.26Y-4.3
X5.31Y-4.42
X5.32Y-3.9
X5.39Y-4.04
X5.4Y-3.79
X5.41Y-4.25
X5.44Y-2.91
X5.47Y-3.53
X5.48Y-3.36
X5.48Y-4.05
X5.5113Y-3.8587
X5.53Y-3.72
X5.5587Y-3.8113
X5.62Y-4.05
X5.64Y-3.64
X5.7Y-3.18
X5.7Y-3.42
X5.76Y-3.84
X5.77Y-2.91
X5.8198Y-3.4998
X5.8602Y-3.5402
X5.89Y-4.03
X5.89Y-4.08
X5.92Y-3.56
X5.95Y-3.16
X5.959Y-3.65
X6.0Y-3.16
X6.02Y-2.91
X6.02Y-3.65
X6.04Y-3.03
X6.1Y-3.72
X6.1102Y-4.0502
X6.13Y-3.44
X6.24Y-3.14
X6.26Y-3.99
X6.27Y-3.69
X6.2998Y-3.2998
X6.35Y-3.47
X6.37Y-2.94
X6.38Y-4.04
X6.38Y-4.38
X6.39Y-3.3
X6.44Y-3.68
X6.4415Y-3.08
X6.45Y-3.88
X6.56Y-2.94
X6.56Y-3.37
X6.6Y-3.48
X6.6Y-4.2
X6.62Y-3.1
X6.62Y-3.23
X6.62Y-3.97
X6.71Y-3.1
X6.71Y-3.28
X6.71Y-4.28
T2
X5.26Y-3.4487
X5.26Y-3.5313
X5.57Y-3.95
X5.59Y-4.17
T3
X5.31Y-3.8031
X5.31Y-4.0
X5.5413Y-4.35
X5.62Y-3.2813
X5.62Y-3.36
X5.62Y-4.35
X5.74Y-3.5413
X5.74Y-3.62
X5.8613Y-4.35
X5.94Y-4.35
X6.1413Y-3.22
X6.2013Y-4.35
X6.22Y-3.22
X6.28Y-4.35
X6.34Y-3.7831
X6.34Y-3.98
X6.68Y-4.2031
X6.68Y-4.4
T4
X5.1931Y-3.25
X5.39Y-3.25
T5
X5.14Y-3.49
X5.14Y-3.6711
X5.14Y-3.8289
X5.14Y-4.01
X5.14Y-4.34
X6.68Y-3.5389
X6.68Y-3.72
X6.68Y-3.8789
X6.68Y-4.06
T6
X5.1531Y-2.96
X5.35Y-2.96
X5.5469Y-2.96
X6.2731Y-2.96
X6.47Y-2.96
X6.6669Y-2.96
T0
M30
